<?xml version="1.0" encoding="UTF-8" ?>
<!DOCTYPE svg PUBLIC "-//W3C//DTD SVG 1.1//EN" "http://www.w3.org/Graphics/SVG/1.1/DTD/svg11.dtd">
<svg width="789pt" height="464pt" viewBox="0 0 789 464" version="1.1" xmlns="http://www.w3.org/2000/svg">
<g id="#878787ff">
<path fill="#878787" opacity="1.00" d=" M 155.65 109.27 C 262.33 80.56 374.78 76.97 484.37 87.55 C 561.73 97.21 641.41 112.01 709.07 152.66 C 688.16 152.60 667.23 152.84 646.33 152.55 C 594.74 124.27 536.64 110.47 478.96 101.11 C 373.27 86.04 264.65 87.80 160.08 110.11 C 158.55 110.16 157.03 109.96 155.65 109.27 Z" />
<path fill="#878787" opacity="1.00" d=" M 690.08 184.69 C 703.51 160.56 739.72 162.86 760.85 175.07 C 759.34 184.54 749.68 191.15 740.64 186.26 C 724.14 182.80 706.89 185.46 690.08 184.69 Z" />
<path fill="#878787" opacity="1.00" d=" M 146.20 179.01 C 147.96 169.00 159.97 168.65 167.95 169.99 C 168.51 190.94 168.49 212.02 167.95 232.98 C 166.47 243.58 154.26 243.22 146.15 242.78 C 145.84 221.54 145.73 200.24 146.20 179.01 Z" />
<path fill="#878787" opacity="1.00" d=" M 267.10 187.77 C 264.93 180.08 268.98 169.86 277.98 169.70 C 301.58 169.78 325.27 169.30 348.83 169.94 C 353.66 176.48 347.80 188.36 339.06 187.81 C 315.07 187.94 291.09 187.90 267.10 187.77 Z" />
<path fill="#878787" opacity="1.00" d=" M 364.20 169.96 C 388.65 171.37 417.80 163.18 438.09 180.92 C 453.84 196.51 448.55 226.21 428.05 235.09 C 434.03 245.63 443.20 254.72 447.96 265.66 C 439.48 264.73 429.26 268.33 422.43 261.61 C 416.96 254.03 411.96 246.06 406.22 238.67 C 392.22 238.74 378.22 238.56 364.23 238.77 C 363.61 232.27 364.40 224.13 371.69 221.78 C 385.74 219.87 400.59 223.51 414.44 219.54 C 427.43 216.12 428.18 194.90 416.04 189.97 C 406.61 186.71 396.12 187.77 386.35 188.45 C 385.80 195.63 387.62 203.22 385.05 210.10 C 381.13 217.71 371.36 216.71 364.20 216.03 C 364.42 200.68 364.38 185.31 364.20 169.96 Z" />
<path fill="#878787" opacity="1.00" d=" M 584.70 181.37 C 576.64 166.48 599.86 166.12 606.18 174.78 C 620.93 191.47 633.64 211.03 649.69 225.90 C 649.75 210.27 649.35 194.60 649.89 178.99 C 651.57 169.04 663.83 168.49 671.73 170.18 C 671.35 201.88 672.16 233.68 671.33 265.34 C 663.96 265.62 654.41 267.58 649.28 260.73 C 627.97 234.10 605.50 208.37 584.70 181.37 Z" />
<path fill="#878787" opacity="1.00" d=" M 687.79 202.03 C 686.30 188.81 701.62 188.14 710.93 189.26 C 709.02 193.09 708.21 198.97 712.57 201.45 C 727.03 209.04 745.64 207.35 758.17 218.81 C 771.07 230.96 764.36 254.26 748.64 260.62 C 728.49 269.38 703.75 266.36 685.32 254.69 C 686.82 247.70 692.75 240.73 700.60 242.48 C 712.43 247.23 726.65 250.19 738.66 244.66 C 745.89 240.78 742.54 230.04 735.04 228.88 C 718.57 222.63 692.45 223.33 687.79 202.03 Z" />
<path fill="#878787" opacity="1.00" d=" M 583.98 189.71 C 591.55 197.65 599.42 206.37 605.17 215.83 C 606.16 229.24 605.76 242.97 605.37 256.43 C 603.39 266.32 592.09 266.21 584.20 265.73 C 583.15 240.48 583.58 215.01 583.98 189.71 Z" />
<path fill="#878787" opacity="1.00" d=" M 297.82 202.00 C 299.50 191.80 311.80 191.79 319.79 192.97 C 319.46 214.20 319.92 235.44 319.56 256.66 C 317.15 266.42 306.16 266.18 298.16 265.72 C 297.07 244.57 297.75 223.21 297.82 202.00 Z" />
<path fill="#878787" opacity="1.00" d=" M 55.06 228.16 C 74.43 219.27 100.24 221.64 115.10 237.90 C 122.17 246.09 128.53 255.34 131.88 265.69 C 123.22 264.90 110.93 268.64 106.02 258.97 C 94.07 240.01 62.89 239.97 51.15 259.16 C 46.01 268.73 33.82 264.88 25.09 265.67 C 31.36 250.87 40.38 235.86 55.06 228.16 Z" />
<path fill="#878787" opacity="1.00" d=" M 491.72 228.75 C 508.43 220.49 529.89 221.04 545.51 231.53 C 556.82 240.16 564.46 252.72 569.90 265.66 C 560.89 265.03 548.48 268.65 543.44 258.55 C 531.50 240.15 501.52 240.20 489.37 258.36 C 484.70 268.30 471.80 265.87 463.06 265.02 C 469.05 250.74 477.83 236.47 491.72 228.75 Z" />
<path fill="#878787" opacity="1.00" d=" M 364.25 265.78 C 359.89 251.42 371.39 238.93 385.98 244.02 C 391.17 258.68 378.27 269.55 364.25 265.78 Z" />
<path fill="#878787" opacity="1.00" d=" M 155.34 247.48 C 175.54 247.04 195.79 247.57 216.00 247.22 C 217.75 254.53 214.88 264.94 206.00 265.30 C 186.05 265.26 166.05 265.67 146.11 265.10 C 144.57 257.93 147.47 249.15 155.34 247.48 Z" />
<path fill="#878787" opacity="1.00" d=" M 684.93 285.93 C 688.62 282.75 691.43 277.39 696.97 277.65 C 715.07 277.87 733.21 277.25 751.29 277.97 C 729.79 306.06 696.11 322.25 664.25 336.16 C 582.33 368.88 493.65 380.67 406.02 383.65 C 309.01 385.21 210.13 377.31 118.02 345.22 C 244.34 380.15 378.97 383.02 507.75 359.83 C 570.34 346.77 636.02 329.33 684.93 285.93 Z" />
<path fill="#878787" opacity="1.00" d=" M 50.25 282.24 C 65.45 274.98 67.93 300.93 52.15 296.96 C 52.29 300.63 52.26 304.31 51.72 307.95 C 51.41 307.60 50.79 306.89 50.48 306.54 C 50.08 298.46 50.56 290.34 50.25 282.24 M 52.18 283.95 C 52.30 287.51 52.10 291.08 52.42 294.64 C 55.42 294.50 58.80 295.16 61.26 293.02 C 61.31 290.62 61.35 288.21 61.39 285.81 C 60.66 285.08 59.93 284.35 59.19 283.63 C 56.85 283.63 54.49 283.54 52.18 283.95 Z" />
<path fill="#878787" opacity="1.00" d=" M 76.22 307.91 C 77.92 299.43 79.48 288.81 83.79 282.11 C 86.50 290.13 88.17 298.52 90.72 306.62 C 90.34 306.92 89.57 307.51 89.19 307.81 C 88.02 305.46 88.05 302.69 86.63 300.42 C 84.22 300.26 81.80 300.27 79.39 300.42 C 78.63 303.03 78.57 306.08 76.22 307.91 M 80.15 298.02 C 82.16 298.60 84.24 298.33 86.28 298.12 C 85.81 294.69 84.67 291.40 83.88 288.04 C 81.00 290.40 81.21 294.70 80.15 298.02 Z" />
<path fill="#878787" opacity="1.00" d=" M 103.31 287.84 C 103.45 281.56 110.73 281.05 115.40 282.63 C 115.49 283.18 115.65 284.27 115.74 284.82 C 112.58 283.55 108.68 282.75 105.74 284.95 C 105.69 286.34 105.63 287.73 105.56 289.13 C 108.66 292.76 112.13 296.05 115.65 299.27 C 115.77 301.10 115.79 302.95 115.74 304.79 C 112.68 308.44 106.87 308.78 103.29 305.73 C 103.52 305.38 103.96 304.69 104.19 304.34 C 107.04 306.16 111.49 306.42 114.11 304.07 C 114.19 303.26 114.34 301.64 114.41 300.83 C 111.08 296.19 105.47 293.25 103.31 287.84 Z" />
<path fill="#878787" opacity="1.00" d=" M 131.59 282.65 C 134.65 282.01 137.79 282.08 140.89 282.33 C 141.20 283.12 141.51 283.92 141.81 284.72 C 138.83 284.35 136.04 283.01 132.93 283.82 C 131.86 285.05 130.81 286.36 130.51 288.02 C 133.63 292.62 138.85 295.54 141.54 300.41 C 144.23 307.65 131.85 310.37 129.16 305.27 C 133.30 306.12 141.46 306.53 139.34 299.95 C 136.27 296.29 132.75 293.03 129.32 289.71 C 129.24 287.18 129.02 284.10 131.59 282.65 Z" />
<path fill="#878787" opacity="1.00" d=" M 155.12 282.23 C 158.43 282.46 164.34 280.18 165.92 283.71 C 162.88 283.60 159.84 283.61 156.81 283.81 C 156.63 286.82 156.47 289.86 156.91 292.86 C 158.52 293.41 161.87 292.19 161.92 294.67 C 160.22 294.66 158.53 294.71 156.84 294.81 C 156.67 298.47 156.32 302.19 156.98 305.83 C 159.70 305.68 162.43 305.75 165.15 305.91 C 165.34 306.35 165.73 307.23 165.92 307.67 C 162.11 307.58 158.29 307.86 154.49 307.44 C 154.48 299.05 153.76 290.55 155.12 282.23 Z" />
<path fill="#878787" opacity="1.00" d=" M 178.34 282.05 C 178.81 282.23 179.74 282.60 180.21 282.78 C 183.56 288.30 185.04 294.95 188.91 300.06 C 189.90 294.20 189.15 288.18 189.31 282.26 C 189.91 282.26 191.11 282.26 191.70 282.26 C 191.45 290.35 191.84 298.45 191.53 306.53 C 191.21 306.87 190.56 307.55 190.24 307.89 C 186.64 302.18 185.02 295.32 181.12 289.89 C 179.38 295.59 181.40 302.04 179.71 307.95 C 179.40 307.60 178.79 306.89 178.48 306.54 C 178.12 298.39 178.46 290.21 178.34 282.05 Z" />
<path fill="#878787" opacity="1.00" d=" M 207.28 282.41 C 210.46 282.24 213.66 281.52 216.82 282.27 C 216.81 282.63 216.77 283.33 216.75 283.68 C 213.81 283.60 210.86 283.62 207.93 283.81 C 204.16 290.49 202.08 309.05 215.01 305.83 C 215.66 302.21 215.36 298.49 215.12 294.84 C 213.71 294.42 210.88 295.61 211.06 293.29 C 212.94 293.18 214.83 293.14 216.73 293.21 C 216.87 298.06 216.97 302.92 216.74 307.78 C 212.45 307.45 207.27 308.79 204.43 304.58 C 204.18 298.14 204.44 291.70 204.33 285.26 C 205.43 284.43 206.42 283.47 207.28 282.41 Z" />
<path fill="#878787" opacity="1.00" d=" M 230.13 282.21 C 233.44 282.53 239.34 280.18 240.91 283.71 C 237.88 283.60 234.84 283.61 231.81 283.80 C 231.61 286.82 231.49 289.86 231.90 292.87 C 233.50 293.44 236.88 292.17 236.91 294.65 C 235.21 294.66 233.52 294.71 231.83 294.81 C 231.66 298.48 231.36 302.19 231.96 305.84 C 234.69 305.68 237.42 305.74 240.15 305.90 C 240.34 306.34 240.73 307.23 240.92 307.67 C 237.33 307.66 233.74 307.56 230.15 307.78 C 229.38 299.33 229.42 290.67 230.13 282.21 Z" />
<path fill="#878787" opacity="1.00" d=" M 253.24 282.23 C 264.81 276.75 272.26 292.41 261.04 297.75 C 263.18 300.66 265.19 304.05 266.43 307.31 C 262.51 306.61 261.06 300.35 259.02 297.02 C 258.20 296.97 256.57 296.86 255.75 296.80 C 255.51 300.04 255.78 303.29 255.54 306.53 C 255.23 306.87 254.59 307.55 254.28 307.89 C 252.04 299.74 254.08 290.71 253.24 282.23 M 255.77 283.86 C 255.59 287.31 255.44 290.78 255.93 294.22 C 258.70 294.65 261.91 294.90 264.26 293.05 C 264.11 289.83 265.55 285.59 262.14 283.59 C 260.02 283.64 257.89 283.70 255.77 283.86 Z" />
<path fill="#878787" opacity="1.00" d=" M 299.06 283.70 C 301.04 280.73 309.94 280.80 311.92 283.65 C 310.22 283.66 308.52 283.71 306.83 283.81 C 306.33 291.38 306.95 298.98 306.52 306.55 C 306.21 306.89 305.59 307.59 305.28 307.93 C 304.15 300.02 304.85 291.95 304.82 283.98 C 302.93 283.54 300.98 283.60 299.06 283.70 Z" />
<path fill="#878787" opacity="1.00" d=" M 325.15 282.19 C 328.35 281.74 331.56 282.15 334.76 282.39 C 335.72 283.36 336.71 284.32 337.57 285.39 C 338.73 290.55 337.15 295.32 332.52 297.92 C 334.30 301.23 336.98 304.11 337.84 307.86 C 333.95 305.63 332.76 300.34 330.08 296.80 C 329.26 296.80 327.61 296.80 326.78 296.80 C 326.59 300.51 326.62 304.22 326.71 307.94 C 322.71 301.43 325.61 290.39 325.15 282.19 M 326.81 283.82 C 326.71 287.49 326.31 291.20 326.98 294.84 C 333.58 296.77 338.35 290.93 335.25 284.80 C 332.74 283.07 329.64 283.69 326.81 283.82 Z" />
<path fill="#878787" opacity="1.00" d=" M 357.25 282.13 C 361.48 288.90 363.55 299.34 364.68 307.85 C 361.83 307.09 362.90 302.67 361.60 300.41 C 359.07 300.23 356.50 300.17 354.04 300.89 C 353.06 303.12 352.81 305.57 351.87 307.81 C 351.50 307.57 350.74 307.08 350.36 306.84 C 352.79 298.64 354.55 290.21 357.25 282.13 M 357.05 289.10 C 356.19 292.06 355.47 295.07 354.75 298.08 C 356.78 298.36 358.84 298.51 360.86 298.06 C 359.46 295.26 360.66 289.65 357.05 289.10 Z" />
<path fill="#878787" opacity="1.00" d=" M 378.38 282.05 C 383.78 285.97 383.09 295.87 388.84 299.04 C 389.28 293.45 389.00 287.84 389.37 282.24 C 389.69 282.24 390.34 282.23 390.66 282.23 C 390.66 290.81 390.65 299.39 390.67 307.97 C 385.29 303.15 385.05 294.28 380.09 288.91 C 379.14 295.18 379.88 301.59 379.69 307.92 C 376.03 301.47 378.54 290.26 378.38 282.05 Z" />
<path fill="#878787" opacity="1.00" d=" M 403.31 287.88 C 403.51 280.99 412.59 280.51 416.97 283.82 C 416.50 284.04 415.55 284.48 415.07 284.70 C 412.11 283.28 407.55 282.56 405.55 285.84 C 405.58 286.68 405.62 288.36 405.65 289.20 C 409.14 293.68 414.39 296.75 416.86 301.98 C 415.80 308.51 407.10 309.70 403.09 305.23 C 406.82 305.41 410.99 306.48 414.29 304.11 C 414.27 302.74 414.22 301.38 414.13 300.03 C 410.52 296.04 405.41 292.93 403.31 287.88 Z" />
<path fill="#878787" opacity="1.00" d=" M 429.26 282.26 C 444.46 274.89 446.79 301.14 431.05 296.87 C 430.31 300.24 432.63 306.30 429.29 307.91 C 429.35 299.36 429.42 290.81 429.26 282.26 M 431.05 283.92 C 431.10 287.50 430.50 291.18 431.48 294.69 C 433.90 294.58 436.36 294.60 438.74 294.01 C 439.15 293.54 439.98 292.59 440.40 292.12 C 440.32 290.01 440.29 287.91 440.20 285.81 C 439.45 285.18 438.72 284.55 438.00 283.91 C 435.69 283.56 433.35 283.61 431.05 283.92 Z" />
<path fill="#878787" opacity="1.00" d=" M 454.85 301.06 C 454.74 293.49 452.28 278.58 464.75 282.37 C 465.70 283.36 466.67 284.34 467.55 285.41 C 467.73 291.47 467.75 297.57 467.54 303.64 C 465.56 310.39 453.84 308.23 454.85 301.06 M 456.66 285.81 C 457.56 292.07 454.78 299.71 458.21 305.07 C 469.68 308.46 466.59 289.70 464.04 283.85 C 462.29 283.72 460.55 283.65 458.81 283.62 C 458.09 284.35 457.38 285.08 456.66 285.81 Z" />
<path fill="#878787" opacity="1.00" d=" M 480.24 282.24 C 491.19 276.52 499.53 292.57 488.06 297.12 C 489.22 300.87 492.84 303.64 492.81 307.82 C 489.47 305.07 488.27 300.63 486.01 297.08 C 485.18 296.91 483.53 296.59 482.70 296.42 C 481.86 300.21 482.80 304.16 481.71 307.93 C 481.40 307.58 480.79 306.89 480.48 306.55 C 480.08 298.46 480.57 290.33 480.24 282.24 M 482.19 284.08 C 482.43 287.57 482.26 291.08 482.42 294.58 C 485.39 294.69 488.73 295.17 491.19 293.09 C 491.40 290.40 491.47 287.70 491.11 285.03 C 490.62 284.69 489.63 284.00 489.14 283.65 C 486.81 283.64 484.46 283.51 482.19 284.08 Z" />
<path fill="#878787" opacity="1.00" d=" M 506.06 283.66 C 508.11 280.76 516.88 280.80 518.93 283.65 C 517.21 283.65 515.50 283.71 513.80 283.83 C 513.36 291.39 513.87 298.98 513.55 306.54 C 513.23 306.87 512.59 307.54 512.27 307.88 C 510.05 300.26 512.17 291.77 511.20 283.83 C 509.48 283.72 507.77 283.66 506.06 283.66 Z" />
<path fill="#878787" opacity="1.00" d=" M 532.75 308.07 C 532.31 299.36 536.08 290.06 539.03 281.94 C 542.96 289.60 543.37 298.80 546.68 306.81 C 546.29 307.06 545.52 307.57 545.13 307.82 C 543.95 305.46 543.57 302.84 542.65 300.40 C 540.22 300.28 537.79 300.30 535.36 300.41 C 534.38 302.93 534.04 305.66 532.75 308.07 M 536.05 297.99 C 538.00 298.51 540.03 298.40 542.02 298.04 C 541.47 295.05 540.64 292.12 539.96 289.16 C 536.24 289.40 537.42 295.22 536.05 297.99 Z" />
<path fill="#878787" opacity="1.00" d=" M 559.07 283.67 C 560.90 280.68 569.92 280.85 571.93 283.66 C 570.22 283.66 568.52 283.71 566.84 283.81 C 565.78 291.77 568.07 300.35 565.67 307.95 C 562.77 300.33 565.26 291.81 564.22 283.84 C 562.50 283.71 560.78 283.65 559.07 283.67 Z" />
<path fill="#878787" opacity="1.00" d=" M 585.23 282.15 C 585.60 282.18 586.32 282.23 586.68 282.25 C 586.54 290.35 586.86 298.46 586.53 306.54 C 586.22 306.89 585.59 307.59 585.28 307.94 C 584.47 299.40 584.47 290.69 585.23 282.15 Z" />
<path fill="#878787" opacity="1.00" d=" M 602.29 282.38 C 615.14 278.60 612.39 294.33 612.18 302.04 C 612.19 309.57 598.99 309.64 599.33 301.97 C 600.31 295.50 596.83 287.38 602.29 282.38 M 602.88 283.78 C 599.89 290.16 601.17 298.14 602.02 304.97 C 604.64 305.89 608.01 306.18 610.19 304.11 C 610.41 297.74 610.46 291.35 610.18 284.99 C 608.13 283.16 605.38 283.64 602.88 283.78 Z" />
<path fill="#878787" opacity="1.00" d=" M 625.38 282.06 C 630.77 285.95 630.33 296.02 635.96 299.01 C 636.78 293.46 636.15 287.82 636.33 282.24 C 636.66 282.23 637.33 282.23 637.67 282.23 C 637.63 290.80 637.69 299.38 637.65 307.96 C 632.33 303.18 632.10 294.24 627.08 288.94 C 626.13 295.15 626.91 301.51 626.66 307.79 C 626.34 307.79 625.69 307.79 625.37 307.79 C 624.96 299.22 624.94 290.63 625.38 282.06 Z" />
</g>
<g id="#4d4d4dff">
<path fill="#4d4d4d" opacity="1.00" d=" M 116.95 120.76 C 129.71 116.65 142.57 111.59 155.65 109.27 C 157.03 109.96 158.55 110.16 160.08 110.11 C 145.78 113.50 131.38 118.00 116.95 120.76 Z" />
<path fill="#4d4d4d" opacity="1.00" d=" M 63.63 178.64 C 66.80 165.75 90.30 165.54 93.71 178.32 C 101.60 196.92 110.80 215.03 117.98 233.90 C 110.85 226.59 101.44 222.43 92.03 219.05 C 84.64 212.39 83.51 201.36 78.90 192.82 C 72.63 200.87 73.02 213.90 63.97 219.86 C 55.01 222.33 46.84 226.92 39.85 233.03 C 46.97 214.62 55.79 196.79 63.63 178.64 Z" />
<path fill="#4d4d4d" opacity="1.00" d=" M 501.39 178.37 C 504.17 166.88 520.67 167.46 528.37 172.63 C 538.22 192.71 547.07 213.43 555.99 233.98 C 548.91 227.38 540.42 222.33 531.02 219.90 C 521.94 214.02 522.07 201.20 516.10 192.95 C 511.10 201.26 510.21 212.27 502.95 219.01 C 493.67 222.56 484.08 226.36 477.13 233.86 C 484.43 215.09 493.50 196.94 501.39 178.37 Z" />
<path fill="#4d4d4d" opacity="1.00" d=" M 231.89 203.92 C 245.23 210.01 258.16 217.16 271.12 224.11 C 258.40 231.87 244.54 238.14 231.21 244.97 C 233.60 238.96 236.76 233.31 239.35 227.40 C 242.23 226.28 245.61 226.02 248.07 224.08 C 245.28 222.62 242.20 221.86 239.26 220.76 C 236.97 215.08 233.70 209.79 231.89 203.92 Z" />
</g>
</svg>
