<?xml version="1.0" encoding="UTF-8" ?>
<!DOCTYPE svg PUBLIC "-//W3C//DTD SVG 1.1//EN" "http://www.w3.org/Graphics/SVG/1.1/DTD/svg11.dtd">
<svg width="241pt" height="41pt" viewBox="0 0 241 41" version="1.1" xmlns="http://www.w3.org/2000/svg">
<g id="#565656ff">
<path fill="#565656" opacity="1.00" d=" M 83.81 12.97 C 89.36 11.20 91.31 5.13 94.62 0.93 C 95.02 6.22 93.82 11.88 96.05 16.88 C 98.60 20.91 102.91 23.37 106.15 26.80 C 102.17 26.85 98.12 26.29 94.19 27.08 C 88.72 28.97 86.65 34.94 83.35 39.17 C 83.12 34.16 83.57 28.97 82.00 24.14 C 79.82 19.57 75.23 16.88 71.84 13.29 C 75.82 13.19 79.88 13.79 83.81 12.97 M 87.19 12.01 C 80.91 13.99 79.62 23.23 84.99 26.97 C 90.34 31.52 98.35 24.14 96.00 18.16 C 95.02 14.43 91.35 10.57 87.19 12.01 Z" />
<path fill="#565656" opacity="1.00" d=" M 0.00 7.89 C 3.34 5.94 7.31 6.36 11.01 6.38 C 19.71 6.61 28.42 6.68 37.13 6.90 C 35.89 14.00 32.22 20.62 32.45 27.96 C 38.73 27.76 40.33 21.12 41.96 16.30 C 40.83 14.21 38.52 12.06 39.50 9.48 C 40.94 5.91 47.04 5.93 48.25 9.69 C 48.56 12.65 47.30 15.49 46.67 18.33 C 49.40 18.31 52.14 18.31 54.87 18.33 C 54.72 15.52 53.81 12.51 54.85 9.80 C 57.90 5.78 63.82 6.04 68.30 6.79 C 72.43 7.65 71.39 15.04 67.13 14.62 C 64.56 13.82 62.86 11.37 60.58 10.00 C 59.53 16.10 65.24 22.47 61.20 28.17 C 56.48 34.59 47.14 33.36 40.95 29.93 C 38.67 30.98 36.44 32.33 33.92 32.67 C 30.03 33.11 25.78 29.52 26.57 25.45 C 27.51 20.60 29.66 16.06 30.29 11.14 C 27.53 14.25 25.44 18.01 21.89 20.34 C 21.42 23.72 23.03 28.41 19.56 30.56 C 14.11 33.88 7.40 32.45 1.35 32.76 C 3.56 26.36 5.40 19.84 7.40 13.36 C 9.31 13.36 11.22 13.35 13.14 13.34 C 11.80 18.54 10.12 23.63 8.63 28.79 C 11.38 28.29 14.07 27.54 16.65 26.47 C 16.21 24.50 15.76 22.54 15.31 20.57 C 18.47 18.54 21.90 16.10 21.63 11.85 C 14.44 11.15 7.21 11.22 0.00 11.10 L 0.00 7.89 M 44.65 22.60 C 44.58 23.55 44.42 25.47 44.34 26.42 C 47.22 28.47 51.29 29.61 54.46 27.54 C 56.59 26.31 56.32 23.63 56.72 21.55 C 52.67 21.33 48.55 21.28 44.65 22.60 Z" />
<path fill="#565656" opacity="1.00" d=" M 106.15 16.99 C 105.25 11.30 110.68 6.51 116.09 6.53 C 124.38 6.30 132.69 6.64 141.00 6.46 C 144.91 6.54 148.97 6.07 152.75 7.33 C 156.12 8.45 157.70 12.87 155.85 15.90 C 153.98 18.93 150.59 20.47 147.65 22.25 C 147.71 23.74 147.77 25.23 147.84 26.72 C 152.42 20.75 160.17 19.81 167.18 20.19 C 170.81 16.11 173.36 11.10 177.43 7.44 C 179.94 6.84 182.55 7.09 185.11 7.04 C 183.82 11.39 182.66 15.78 181.43 20.15 C 184.31 20.19 187.20 20.23 190.09 20.29 C 191.43 15.88 192.91 11.50 194.36 7.12 C 196.01 7.24 197.67 7.35 199.33 7.47 C 200.17 11.87 201.08 16.26 202.19 20.60 C 204.42 16.30 204.75 10.78 208.47 7.41 C 211.87 4.29 217.42 9.36 215.12 13.10 C 213.69 15.69 210.47 15.31 207.98 15.51 C 207.33 17.37 206.68 19.22 206.03 21.08 C 210.74 19.45 215.74 19.15 220.69 19.34 C 221.08 20.38 221.47 21.43 221.87 22.48 C 219.31 22.57 216.69 22.42 214.19 23.06 C 212.33 23.58 211.43 26.64 213.24 27.74 C 216.21 30.28 221.79 30.28 224.02 26.76 C 225.99 21.01 219.83 14.77 223.29 9.26 C 228.06 5.08 236.02 5.30 241.00 9.11 L 241.00 11.82 C 239.47 13.47 237.65 15.75 235.10 15.12 C 232.31 14.55 232.02 10.45 229.11 10.15 C 228.09 15.14 232.02 19.58 231.50 24.57 C 231.02 28.07 228.01 30.66 224.78 31.66 C 217.90 33.83 209.11 32.99 204.76 26.55 C 203.80 28.66 202.95 30.86 201.60 32.76 C 200.19 32.80 197.97 33.38 197.51 31.51 C 196.07 27.32 195.74 22.84 194.62 18.57 C 192.23 22.90 192.35 28.96 188.17 32.06 C 182.63 33.38 176.83 32.34 171.19 32.67 C 172.19 29.44 173.15 26.19 173.92 22.90 C 167.31 22.70 165.00 30.07 159.62 32.51 C 155.65 34.35 150.61 35.62 146.52 33.47 C 143.19 30.81 142.32 26.29 140.49 22.63 C 139.12 25.91 137.79 29.20 136.75 32.59 C 134.61 32.66 132.47 32.72 130.33 32.80 C 132.44 26.38 134.35 19.90 136.56 13.51 C 138.66 13.46 140.76 13.40 142.87 13.33 C 142.16 15.94 141.47 18.56 140.85 21.19 C 144.50 19.74 150.53 17.64 148.55 12.52 C 142.61 10.61 136.25 11.90 130.13 11.82 C 127.69 18.36 127.07 26.00 122.52 31.50 C 117.74 33.75 112.10 32.29 106.98 32.63 C 107.41 31.14 107.85 29.64 108.29 28.15 C 111.60 28.31 114.90 28.55 118.20 28.86 C 120.40 23.29 122.15 17.55 123.58 11.74 C 118.55 11.78 111.54 9.98 109.06 15.87 C 111.92 15.51 115.84 12.83 118.09 15.85 C 119.20 17.98 119.44 21.63 116.95 22.91 C 112.62 25.33 105.97 22.29 106.15 16.99 M 172.98 19.40 C 174.48 19.11 175.98 18.80 177.47 18.49 C 177.49 16.55 177.57 14.63 178.84 13.04 C 176.58 14.86 174.48 16.90 172.98 19.40 M 180.44 23.50 C 179.59 25.12 179.04 26.88 178.40 28.59 C 181.39 28.40 184.38 28.40 187.37 28.54 C 188.10 26.40 188.84 24.27 189.60 22.14 C 186.54 22.52 183.43 22.71 180.44 23.50 M 155.47 26.51 C 154.36 27.42 154.23 30.10 156.07 30.15 C 159.92 29.48 162.53 26.30 164.90 23.48 C 161.55 23.27 157.60 23.51 155.47 26.51 Z" />
</g>
</svg>
