<?xml version="1.0" encoding="UTF-8" ?>
<!DOCTYPE svg PUBLIC "-//W3C//DTD SVG 1.1//EN" "http://www.w3.org/Graphics/SVG/1.1/DTD/svg11.dtd">
<svg width="216pt" height="25pt" viewBox="0 0 216 25" version="1.1" xmlns="http://www.w3.org/2000/svg">
<g id="#949494ff">
<path fill="#949494" opacity="1.00" d=" M 124.12 0.00 L 126.67 0.00 C 127.02 1.64 127.03 3.33 127.10 5.00 C 129.09 5.00 131.08 5.00 133.07 4.99 C 133.01 5.66 132.88 6.99 132.82 7.66 C 130.88 7.64 128.94 7.64 127.00 7.63 C 127.09 12.04 126.81 16.48 127.17 20.88 C 128.36 23.17 131.29 22.22 133.27 21.91 C 133.53 22.37 134.05 23.30 134.31 23.76 C 133.75 24.07 132.63 24.69 132.07 25.00 L 127.74 25.00 C 125.75 24.14 124.03 22.37 124.02 20.09 C 123.90 15.95 124.05 11.81 124.00 7.66 C 122.85 7.64 121.71 7.61 120.56 7.58 C 120.49 6.95 120.34 5.70 120.26 5.08 C 121.49 5.02 122.72 4.96 123.95 4.91 C 123.97 3.27 124.03 1.63 124.12 0.00 Z" />
<path fill="#949494" opacity="1.00" d=" M 2.98 7.96 C 6.46 3.98 12.43 3.04 17.32 4.53 C 20.10 5.31 21.89 7.70 23.38 10.01 C 21.12 11.20 18.82 12.28 16.43 13.18 C 15.34 12.02 13.91 10.01 12.07 10.83 C 8.64 11.40 8.64 17.60 12.07 18.17 C 13.92 18.99 15.35 16.97 16.44 15.81 C 18.81 16.75 21.11 17.84 23.35 19.06 C 21.74 21.81 19.32 24.02 16.24 25.00 L 9.11 25.00 C 6.07 23.62 2.78 21.90 1.45 18.63 C 0.12 15.18 0.34 10.75 2.98 7.96 Z" />
<path fill="#949494" opacity="1.00" d=" M 24.64 6.18 C 27.88 4.66 31.40 3.63 35.02 3.93 C 39.33 3.73 44.27 6.30 44.96 10.91 C 45.42 15.59 45.09 20.30 45.18 25.00 L 36.98 25.00 C 37.00 24.54 37.05 23.61 37.07 23.14 C 34.32 25.38 30.34 25.65 27.18 24.19 C 23.49 22.58 22.72 17.17 25.18 14.22 C 28.11 11.50 32.33 11.94 36.01 11.99 L 36.00 11.06 C 33.08 10.43 30.13 10.89 27.25 11.47 C 26.37 9.71 25.52 7.94 24.64 6.18 M 32.14 17.34 C 31.57 18.87 33.25 20.59 34.80 19.97 C 36.18 19.10 36.58 17.53 36.56 16.00 C 35.02 16.12 32.95 15.55 32.14 17.34 Z" />
<path fill="#949494" opacity="1.00" d=" M 48.16 3.99 C 54.57 4.00 60.98 4.00 67.40 4.00 C 67.24 5.87 67.72 7.89 66.98 9.65 C 64.39 12.62 61.57 15.38 59.03 18.40 C 61.94 18.37 64.84 18.35 67.75 18.35 C 67.80 20.57 67.82 22.78 67.84 25.00 L 47.98 25.00 C 47.98 23.31 47.92 21.61 48.03 19.92 C 50.40 16.56 53.63 13.91 56.25 10.74 C 53.58 10.64 50.92 10.61 48.25 10.64 C 48.20 8.42 48.18 6.21 48.16 3.99 Z" />
<path fill="#949494" opacity="1.00" d=" M 69.82 4.00 C 72.55 4.00 75.28 4.00 78.01 4.00 L 78.00 5.57 C 82.29 2.88 89.36 3.10 91.67 8.27 C 93.52 13.64 92.29 19.45 92.64 25.00 L 84.00 25.00 C 83.97 21.30 84.05 17.60 83.96 13.90 C 84.16 12.40 82.78 11.47 81.98 10.44 C 81.29 10.69 79.92 11.20 79.24 11.45 C 78.03 15.86 78.63 20.49 78.61 25.00 L 69.82 25.00 C 69.82 18.00 69.82 11.00 69.82 4.00 Z" />
<path fill="#949494" opacity="1.00" d=" M 95.64 6.18 C 98.89 4.67 102.41 3.63 106.02 3.93 C 110.34 3.74 115.27 6.31 115.96 10.90 C 116.42 15.59 116.09 20.30 116.18 25.00 L 107.98 25.00 C 108.00 24.54 108.05 23.61 108.07 23.14 C 105.33 25.38 101.35 25.65 98.18 24.19 C 94.48 22.57 93.70 17.17 96.18 14.22 C 99.11 11.50 103.32 11.93 107.00 11.99 L 107.01 11.06 C 104.08 10.43 101.14 10.89 98.25 11.47 C 97.37 9.71 96.52 7.94 95.64 6.18 M 103.14 17.33 C 102.55 18.86 104.24 20.59 105.79 19.97 C 107.19 19.11 107.55 17.52 107.57 16.00 C 106.02 16.12 103.97 15.55 103.14 17.33 Z" />
<path fill="#949494" opacity="1.00" d=" M 139.64 5.00 C 140.34 5.00 141.74 5.00 142.44 5.00 C 142.36 5.74 142.20 7.22 142.12 7.96 C 144.24 5.98 146.94 4.60 149.92 4.89 C 149.87 5.53 149.77 6.81 149.71 7.46 C 147.09 7.51 144.16 8.28 143.14 11.01 C 141.99 15.57 142.73 20.35 142.57 25.00 L 139.64 25.00 C 139.64 18.33 139.63 11.67 139.64 5.00 Z" />
<path fill="#949494" opacity="1.00" d=" M 152.48 7.29 C 156.21 5.13 160.91 3.92 165.01 5.74 C 167.47 6.78 168.53 9.54 168.61 12.05 C 168.72 16.36 168.59 20.68 168.64 25.00 L 165.99 25.00 C 165.99 24.31 166.00 22.94 166.00 22.25 C 163.03 25.43 158.04 25.92 154.30 23.88 C 151.02 21.89 151.09 16.43 154.52 14.61 C 158.13 12.96 162.22 13.44 166.08 13.28 C 165.59 11.48 165.37 9.34 163.73 8.16 C 160.46 6.77 156.92 7.95 153.85 9.26 C 153.50 8.76 152.82 7.78 152.48 7.29 M 156.01 16.91 C 154.39 17.51 155.21 19.55 154.97 20.83 C 157.30 22.96 160.87 22.81 163.59 21.58 C 165.57 20.44 166.03 18.16 165.94 16.06 C 162.67 16.32 159.00 15.19 156.01 16.91 Z" />
<path fill="#949494" opacity="1.00" d=" M 175.64 5.00 C 176.34 5.00 177.75 5.00 178.46 5.00 C 178.36 5.75 178.16 7.26 178.06 8.01 C 181.11 5.33 185.45 3.91 189.35 5.51 C 192.38 6.57 193.94 9.91 193.99 12.94 C 194.08 16.96 193.96 20.98 194.00 25.00 L 191.00 25.00 C 190.98 20.98 191.04 16.96 190.97 12.93 C 191.12 11.05 190.03 9.34 188.58 8.24 C 185.09 6.57 179.65 7.78 178.85 12.05 C 178.17 16.32 178.68 20.69 178.57 25.00 L 175.64 25.00 C 175.64 18.33 175.63 11.67 175.64 5.00 Z" />
<path fill="#949494" opacity="1.00" d=" M 202.81 5.73 C 206.64 4.05 211.05 5.04 214.75 6.66 C 214.44 7.20 213.83 8.26 213.53 8.79 C 210.24 7.86 206.56 6.74 203.32 8.47 C 202.43 9.62 201.91 11.47 203.35 12.44 C 207.08 14.51 212.08 13.64 215.12 17.09 C 215.12 18.40 215.07 19.70 214.97 21.00 C 214.46 23.23 212.14 24.12 210.30 25.00 L 203.23 25.00 C 201.68 24.25 200.14 23.48 198.62 22.67 C 199.22 21.97 199.80 21.24 200.36 20.49 C 203.40 22.47 207.36 23.05 210.80 21.86 C 212.71 21.14 212.65 17.97 210.78 17.23 C 207.40 15.91 203.11 16.48 200.46 13.65 C 198.50 11.00 199.83 6.97 202.81 5.73 Z" />
</g>
</svg>
