<?xml version="1.0" encoding="UTF-8" ?>
<!DOCTYPE svg PUBLIC "-//W3C//DTD SVG 1.1//EN" "http://www.w3.org/Graphics/SVG/1.1/DTD/svg11.dtd">
<svg width="2450pt" height="420pt" viewBox="0 0 2450 420" version="1.1" xmlns="http://www.w3.org/2000/svg">
<g id="#6c6c6cff">
<path fill="#6c6c6c" opacity="1.00" d=" M 72.78 29.76 C 110.50 17.08 150.26 10.47 189.92 8.31 L 189.76 9.01 C 189.39 16.22 184.35 25.53 186.94 31.47 C 190.20 24.54 190.46 16.04 191.89 8.39 C 202.42 11.42 213.11 13.88 223.57 17.16 C 223.54 48.51 217.69 79.70 215.84 111.03 C 215.26 98.19 218.24 84.78 215.99 72.28 C 204.88 69.16 193.17 68.99 181.96 66.22 C 174.51 96.89 175.04 128.66 174.49 160.01 C 172.68 120.65 176.97 81.36 185.06 42.88 C 184.55 42.99 183.53 43.21 183.03 43.32 C 173.67 81.74 169.69 121.50 171.68 161.02 C 171.35 163.35 172.88 167.69 169.52 168.16 C 156.74 169.51 143.88 170.70 131.40 173.91 C 132.49 159.44 132.65 144.91 133.74 130.45 C 138.48 117.03 144.74 104.16 149.54 90.75 C 136.90 89.87 124.23 89.68 111.57 89.20 C 113.44 76.15 120.89 61.08 119.93 49.54 C 114.99 62.82 112.39 77.34 108.65 91.16 C 121.12 91.98 133.64 92.39 146.14 92.82 C 141.54 104.84 136.24 116.59 131.61 128.59 C 129.07 143.96 130.97 160.65 127.60 175.43 C 99.56 178.28 69.79 178.35 42.32 170.32 C 46.91 176.07 39.50 183.16 44.02 189.02 C 69.58 201.35 98.86 204.47 126.88 201.17 C 127.96 196.74 125.15 188.99 130.26 187.16 C 129.83 193.08 127.80 199.40 130.09 205.12 C 126.33 211.34 125.35 218.66 125.03 225.78 C 130.62 226.82 140.43 224.76 142.16 231.93 C 138.53 237.93 130.14 236.24 124.19 236.34 C 124.02 237.94 123.86 239.54 123.70 241.15 C 140.03 244.38 156.65 245.80 173.11 248.13 C 187.62 242.29 202.52 237.36 217.37 232.42 C 218.12 202.42 218.86 172.41 220.09 142.45 C 220.58 142.29 221.56 141.97 222.05 141.81 C 221.31 171.86 220.10 201.89 219.36 231.93 C 226.62 227.71 245.11 230.52 240.41 219.13 C 241.57 193.33 241.92 167.50 243.21 141.70 C 247.69 149.41 243.01 161.61 244.09 171.07 C 256.05 170.11 267.94 168.51 279.86 167.16 C 279.93 159.10 280.33 151.05 280.38 142.99 C 280.96 143.00 282.11 143.00 282.69 143.01 C 280.60 166.32 283.17 190.31 278.59 213.20 C 304.52 204.49 330.05 194.61 356.03 186.04 C 353.98 172.52 355.71 158.27 356.87 144.68 C 359.65 150.75 356.80 157.79 357.54 164.27 C 362.97 156.12 370.01 164.58 370.55 171.29 C 371.57 167.29 371.88 161.30 377.00 160.51 C 382.14 161.44 382.44 167.73 383.61 171.77 C 386.12 162.64 382.91 151.67 387.15 143.52 C 387.71 153.29 386.11 163.03 385.97 172.80 C 384.31 173.68 383.24 175.13 383.65 177.11 C 386.07 176.42 388.47 175.68 390.87 174.92 C 392.08 163.97 392.72 152.95 392.84 141.94 C 386.74 141.98 380.44 140.69 374.47 142.33 C 377.58 142.66 380.71 142.78 383.83 143.06 C 383.97 146.71 383.97 150.36 383.86 154.01 C 376.01 155.52 368.07 156.72 360.12 157.48 C 358.52 152.69 360.30 146.51 361.47 141.46 C 315.62 140.86 269.76 140.45 223.92 139.85 C 222.72 139.85 221.98 139.22 221.70 137.94 C 278.79 138.14 335.90 139.30 392.99 139.83 C 393.17 134.26 393.03 128.68 392.71 123.11 C 389.61 122.59 386.51 122.11 383.41 121.59 C 382.57 111.08 384.07 100.61 384.42 90.11 C 387.04 91.15 389.65 92.20 392.32 93.11 L 392.74 93.26 C 395.31 120.87 395.80 148.68 392.45 176.25 C 388.90 177.27 385.45 178.73 381.74 179.00 C 382.03 175.56 381.46 172.14 380.70 168.80 C 380.58 166.23 378.20 160.44 375.84 164.83 C 372.96 171.83 370.74 183.43 377.57 188.53 C 373.96 194.02 368.96 187.68 368.20 183.54 C 366.28 176.35 370.53 167.73 363.86 162.09 C 356.08 169.69 355.20 187.47 363.06 194.64 C 358.52 200.01 352.89 194.40 350.99 189.74 C 326.27 197.77 301.93 206.96 277.45 215.68 L 276.61 214.56 C 277.05 202.69 278.81 189.56 272.02 178.98 C 269.39 174.75 263.91 175.36 259.96 177.11 C 260.94 177.95 261.93 178.78 262.93 179.61 C 248.82 182.93 248.66 200.41 247.41 212.02 C 247.64 221.73 252.14 238.39 265.08 234.73 C 256.57 245.15 239.79 240.75 234.12 229.53 C 211.93 234.15 191.15 245.73 169.08 249.09 C 126.99 245.40 85.42 236.24 45.01 224.04 C 39.83 193.45 42.44 161.27 43.33 130.05 C 48.09 107.22 53.24 84.44 57.73 61.55 C 50.44 60.85 43.16 60.11 35.86 59.52 C 21.24 65.47 23.70 83.70 17.67 95.76 C 8.87 96.69 10.17 85.85 10.59 80.14 C 11.82 69.51 12.82 56.16 23.44 50.46 C 35.87 44.20 49.53 50.63 62.39 51.69 C 65.79 44.36 68.90 36.84 72.78 29.76 M 155.37 30.90 C 162.69 31.70 173.37 31.75 177.32 38.68 C 185.21 40.75 204.75 51.07 204.93 37.39 C 188.82 35.19 170.42 25.90 155.37 30.90 M 148.68 36.70 C 146.61 40.88 146.85 45.92 145.42 50.38 C 152.61 52.12 159.57 48.74 165.27 44.65 C 162.72 52.10 152.14 52.79 145.16 52.78 C 144.45 61.41 142.99 70.84 147.23 78.82 C 149.48 83.47 156.79 81.88 158.39 77.43 C 162.01 66.29 164.89 54.91 167.09 43.41 C 170.75 43.37 173.30 40.94 174.85 37.84 C 167.21 33.78 155.92 29.89 148.68 36.70 M 17.40 58.42 L 17.15 58.11 C 13.84 64.59 12.67 72.03 12.28 79.18 C 12.00 83.90 9.57 93.86 16.82 93.97 C 21.97 82.10 20.35 64.98 33.97 58.82 C 42.48 54.68 58.81 66.68 61.04 53.31 C 46.95 51.39 27.02 43.48 17.40 58.42 M 68.62 62.24 C 76.35 63.73 86.65 60.02 95.02 63.84 C 94.63 60.19 97.61 56.73 96.74 53.51 C 86.48 54.08 71.04 48.02 68.62 62.24 M 69.16 65.26 C 65.75 70.27 63.45 76.04 61.10 81.62 C 72.41 83.08 83.87 84.60 95.21 85.19 C 94.52 79.18 92.62 72.57 95.60 66.70 C 88.19 61.53 77.69 64.58 69.16 65.26 M 54.58 130.38 C 65.38 130.57 76.17 130.80 86.97 130.90 C 86.89 116.44 90.79 102.45 94.58 88.67 C 83.41 87.65 72.20 86.38 61.03 85.98 C 56.36 100.02 54.25 115.48 54.58 130.38 M 362.43 144.34 C 362.23 148.08 361.43 151.76 361.48 155.51 C 368.26 154.55 375.02 153.47 381.82 152.66 C 381.90 150.08 381.92 147.49 381.89 144.91 C 375.40 144.64 368.92 144.07 362.43 144.34 M 244.19 173.24 C 243.33 189.56 242.99 205.91 242.40 222.25 C 248.96 206.54 241.67 182.62 261.00 174.94 C 272.21 169.62 277.66 183.72 278.60 192.39 C 279.59 184.80 279.31 177.02 279.62 169.35 C 267.79 170.45 256.02 172.16 244.19 173.24 M 44.13 192.12 C 44.13 198.91 45.32 205.62 45.42 212.41 C 70.38 220.80 96.86 222.75 122.89 225.38 C 121.18 217.86 128.58 209.33 125.62 203.41 C 98.08 207.08 69.57 203.40 44.13 192.12 M 46.06 215.81 C 46.13 218.04 46.21 220.28 46.29 222.52 C 54.56 224.60 62.62 228.14 71.16 228.78 C 62.42 225.11 51.07 225.28 46.06 215.81 M 49.14 216.12 C 53.63 222.97 62.40 223.06 69.40 225.63 C 69.45 224.18 69.50 222.73 69.55 221.28 C 62.76 219.51 55.80 218.40 49.14 216.12 M 71.63 222.68 C 73.58 230.90 87.53 228.59 94.75 231.06 C 94.84 229.14 94.88 227.22 94.94 225.31 C 87.14 224.67 79.42 223.30 71.63 222.68 M 97.15 225.06 C 97.14 227.24 97.14 229.43 97.17 231.62 C 105.45 232.79 113.77 233.70 122.14 234.05 C 122.47 231.86 122.63 229.66 122.69 227.45 C 114.15 227.07 105.68 225.74 97.15 225.06 M 125.11 228.03 C 124.82 230.01 124.51 231.99 124.19 233.96 C 129.58 234.34 135.52 235.03 140.28 231.88 C 137.00 227.05 130.09 228.89 125.11 228.03 M 91.77 234.48 C 101.65 237.04 111.71 238.95 121.76 240.81 C 121.80 239.30 121.84 237.79 121.89 236.28 C 111.80 236.27 101.86 233.49 91.77 234.48 Z" />
<path fill="#6c6c6c" opacity="1.00" d=" M 225.13 18.01 C 238.15 21.52 251.20 25.71 263.53 31.21 C 261.93 31.30 260.35 31.46 258.77 31.62 C 247.05 48.98 230.40 63.55 222.46 83.09 C 222.27 82.27 221.88 80.61 221.69 79.79 C 223.94 59.32 227.08 38.61 225.13 18.01 Z" />
<path fill="#6c6c6c" opacity="1.00" d=" M 524.52 88.60 C 529.85 72.94 535.57 57.41 541.05 41.81 C 541.95 44.17 542.62 46.62 543.12 49.10 C 543.75 48.36 544.40 47.61 545.05 46.87 C 549.45 61.03 553.23 75.38 557.77 89.48 C 573.35 89.54 588.89 90.56 604.47 90.74 C 602.29 93.03 599.41 94.43 596.85 96.21 C 601.26 98.14 606.24 96.66 610.90 97.24 C 597.13 107.54 582.42 116.62 568.53 126.77 C 573.61 143.13 578.42 159.61 583.02 176.11 C 569.20 165.96 556.07 154.74 542.00 145.01 C 527.72 153.94 514.34 164.37 499.99 173.21 C 500.51 168.88 503.37 165.14 503.29 160.73 C 501.44 161.71 499.71 162.87 497.97 164.02 C 502.15 149.78 507.76 135.96 512.59 121.92 C 500.48 112.45 488.03 103.41 476.14 93.67 C 478.18 93.63 480.22 93.56 482.27 93.42 C 480.25 91.09 477.59 89.50 475.14 87.69 C 491.55 87.01 508.08 88.24 524.52 88.60 M 540.69 49.06 C 535.78 62.91 531.51 77.27 525.58 90.58 C 511.13 90.65 496.49 90.57 482.01 89.46 C 492.73 99.40 505.62 107.26 516.49 116.99 C 512.12 131.01 506.39 144.68 502.03 158.74 C 514.24 150.50 526.15 141.27 538.84 134.08 C 550.80 142.57 562.18 151.96 573.94 160.76 C 569.74 146.49 565.38 132.26 561.39 117.93 C 573.61 109.78 585.48 101.12 597.88 93.24 C 583.05 91.64 568.04 93.18 553.24 91.21 C 549.17 77.13 545.27 62.98 540.69 49.06 Z" />
<path fill="#6c6c6c" opacity="1.00" d=" M 76.03 59.53 C 79.59 53.22 88.49 56.45 94.40 55.70 C 93.83 57.40 93.24 59.09 92.68 60.80 C 87.23 59.48 81.60 59.48 76.03 59.53 Z" />
<path fill="#6c6c6c" opacity="1.00" d=" M 312.28 59.24 C 319.58 62.62 327.19 65.25 334.53 68.52 C 333.26 83.96 333.75 99.45 335.05 114.86 C 327.69 113.41 319.63 113.45 312.70 111.21 C 310.03 94.00 311.89 76.53 312.28 59.24 Z" />
<path fill="#6c6c6c" opacity="1.00" d=" M 68.38 79.97 C 75.41 75.36 83.48 72.54 91.24 69.38 C 91.35 72.29 91.46 75.21 91.81 78.11 C 92.03 79.71 92.18 81.33 92.26 82.95 C 84.30 81.92 76.31 81.20 68.38 79.97 Z" />
<path fill="#6c6c6c" opacity="1.00" d=" M 337.43 69.91 C 343.48 71.82 349.22 74.57 355.11 76.92 C 354.46 90.36 353.65 103.90 354.95 117.32 C 349.19 117.06 343.49 116.00 337.80 115.11 C 335.89 100.14 336.06 84.92 337.43 69.91 Z" />
<path fill="#6c6c6c" opacity="1.00" d=" M 279.04 86.17 C 285.87 78.15 299.57 77.72 308.25 70.93 C 308.78 80.02 308.06 89.14 308.78 98.22 C 309.15 102.58 309.65 106.92 310.05 111.28 C 300.18 110.26 290.39 108.44 280.51 107.47 C 278.88 100.49 279.49 93.26 279.04 86.17 Z" />
<path fill="#6c6c6c" opacity="1.00" d=" M 255.13 83.41 C 261.78 81.08 267.97 77.61 274.65 75.31 C 275.01 76.96 275.40 78.60 275.70 80.27 C 275.55 89.18 277.09 98.03 277.14 106.92 C 265.19 104.59 252.67 104.45 241.05 100.98 C 244.81 94.16 249.13 87.66 252.74 80.75 C 253.52 81.64 254.32 82.53 255.13 83.41 Z" />
<path fill="#6c6c6c" opacity="1.00" d=" M 357.76 77.98 C 361.79 80.70 370.72 80.39 369.63 86.97 C 369.52 97.85 368.57 108.70 368.35 119.57 C 364.63 119.00 360.90 118.44 357.18 117.88 C 356.29 104.59 356.76 91.24 357.76 77.98 Z" />
<path fill="#6c6c6c" opacity="1.00" d=" M 372.10 84.44 C 375.64 85.42 378.87 87.23 382.12 88.89 C 381.77 99.69 380.32 110.47 381.06 121.30 C 377.67 120.93 374.32 120.37 370.96 119.89 C 370.49 108.08 372.17 96.27 372.10 84.44 Z" />
<path fill="#6c6c6c" opacity="1.00" d=" M 178.74 107.33 C 189.70 105.89 200.80 105.63 211.65 103.46 C 212.27 108.29 212.45 113.16 212.24 118.02 C 201.30 131.43 191.02 145.71 177.64 156.85 C 177.19 140.32 177.85 123.82 178.74 107.33 Z" />
<path fill="#6c6c6c" opacity="1.00" d=" M 59.15 109.54 C 68.75 110.56 78.77 103.35 87.50 105.46 C 85.94 112.99 84.71 120.68 85.07 128.39 C 75.62 128.94 66.15 128.09 56.70 128.13 C 56.90 123.16 57.11 118.15 58.03 113.26 C 58.37 112.01 58.76 110.78 59.15 109.54 Z" />
<path fill="#6c6c6c" opacity="1.00" d=" M 294.95 142.65 C 298.10 160.09 296.91 185.55 293.93 203.45 C 293.66 183.19 294.68 162.92 294.95 142.65 Z" />
<path fill="#6c6c6c" opacity="1.00" d=" M 307.04 143.94 C 307.49 143.74 308.37 143.35 308.82 143.15 C 309.42 161.75 308.34 180.34 307.82 198.92 C 307.44 198.66 306.66 198.13 306.28 197.87 C 306.23 179.89 307.31 161.93 307.04 143.94 Z" />
<path fill="#6c6c6c" opacity="1.00" d=" M 445.11 199.35 C 449.45 187.05 453.28 174.44 458.47 162.51 C 459.06 164.63 459.56 166.76 459.98 168.92 C 460.49 168.47 461.50 167.58 462.01 167.14 C 465.29 178.25 468.53 189.37 471.85 200.47 C 484.01 200.55 496.17 200.66 508.30 201.41 C 506.89 203.79 503.68 204.27 502.60 206.92 C 506.47 207.20 510.34 207.66 514.23 207.58 C 504.22 216.52 491.70 222.78 481.29 231.27 C 484.32 244.69 488.97 257.88 492.77 271.17 C 481.67 263.21 471.23 254.32 460.06 246.47 C 447.85 252.54 437.01 261.98 425.24 269.22 C 426.34 264.94 428.57 261.01 429.24 256.62 C 427.09 257.62 425.13 258.97 423.16 260.27 C 426.91 249.08 432.04 238.00 434.54 226.60 C 425.27 219.23 415.61 212.33 406.49 204.77 C 408.43 204.71 410.37 204.61 412.31 204.39 C 410.37 202.16 407.51 200.94 405.81 198.50 C 418.94 198.24 431.98 199.74 445.11 199.35 M 446.49 201.60 C 435.00 201.67 423.51 201.25 412.03 201.23 C 420.86 208.27 430.38 214.77 438.76 222.19 C 435.96 233.02 430.86 243.23 428.08 254.09 C 437.72 248.46 446.35 241.24 455.94 235.54 C 465.65 241.39 474.01 249.83 483.72 255.95 C 480.39 245.07 476.87 234.21 474.06 223.19 C 482.98 216.08 493.12 210.58 502.00 203.39 C 490.70 203.53 479.43 202.59 468.14 202.65 C 464.13 192.17 461.98 180.36 458.00 170.30 C 453.53 179.97 450.45 191.30 446.49 201.60 Z" />
<path fill="#6c6c6c" opacity="1.00" d=" M 1338.35 162.94 C 1338.42 163.57 1338.56 164.81 1338.63 165.44 C 1340.30 165.39 1342.01 165.35 1343.72 165.30 C 1344.39 172.37 1344.33 179.56 1345.49 186.55 C 1345.50 187.88 1345.44 189.23 1345.36 190.56 C 1333.44 190.60 1321.52 190.66 1309.61 190.53 C 1309.43 191.94 1309.28 193.36 1309.13 194.78 C 1306.90 194.92 1304.69 195.09 1302.50 195.25 C 1302.75 192.07 1303.25 188.92 1304.02 185.83 C 1315.95 185.47 1327.90 185.76 1339.84 185.70 C 1339.17 178.13 1338.49 170.55 1338.35 162.94 Z" />
<path fill="#6c6c6c" opacity="1.00" d=" M 1690.02 223.04 C 1694.13 203.01 1698.12 182.94 1702.59 162.98 C 1702.06 166.16 1707.05 163.85 1708.97 164.29 C 1704.59 186.36 1699.33 208.29 1695.55 230.45 C 1691.62 230.56 1688.84 226.76 1690.02 223.04 Z" />
<path fill="#6c6c6c" opacity="1.00" d=" M 857.17 164.36 C 858.42 165.71 860.33 165.29 861.99 165.37 C 868.54 194.06 873.72 223.15 880.88 251.66 C 881.02 252.75 881.17 253.84 881.33 254.94 C 881.54 256.52 881.73 258.11 881.95 259.69 C 868.19 261.28 854.23 260.80 840.54 262.69 C 840.32 260.85 840.19 259.01 840.13 257.17 C 852.22 255.88 864.38 255.56 876.50 254.74 C 869.81 224.67 863.51 194.51 857.17 164.36 Z" />
<path fill="#6c6c6c" opacity="1.00" d=" M 1154.86 163.88 C 1156.71 163.73 1158.56 163.58 1160.44 163.43 C 1160.14 174.87 1161.76 186.20 1161.49 197.63 L 1162.75 197.43 C 1161.03 201.33 1159.46 205.35 1156.91 208.81 C 1155.27 193.89 1155.79 178.84 1154.86 163.88 Z" />
<path fill="#6c6c6c" opacity="1.00" d=" M 1517.55 187.74 C 1519.17 179.81 1520.68 171.85 1522.60 163.98 L 1522.67 165.44 C 1524.75 165.38 1526.86 165.34 1528.97 165.30 C 1527.20 174.44 1524.90 183.50 1523.49 192.70 C 1516.16 193.17 1508.29 191.95 1501.30 193.29 C 1496.65 215.08 1492.21 237.09 1487.60 258.96 C 1474.75 260.04 1461.91 261.26 1449.02 261.81 C 1449.26 260.06 1449.54 258.32 1449.85 256.58 C 1460.47 255.16 1471.24 255.22 1481.85 253.72 C 1486.67 231.80 1490.76 209.73 1495.79 187.87 C 1503.04 187.68 1510.30 187.92 1517.55 187.74 Z" />
<path fill="#6c6c6c" opacity="1.00" d=" M 1648.26 164.22 C 1649.04 166.40 1651.92 165.04 1653.71 165.33 C 1654.16 173.80 1654.56 182.30 1655.71 190.72 C 1643.72 190.68 1631.74 190.76 1619.76 190.67 C 1619.48 191.94 1619.22 193.20 1618.96 194.47 C 1624.36 194.64 1629.78 194.31 1635.20 194.66 C 1627.60 194.72 1620.02 194.80 1612.44 195.19 C 1612.64 192.02 1613.14 188.88 1613.94 185.81 C 1625.89 185.49 1637.84 185.78 1649.79 185.68 C 1649.01 178.55 1648.57 171.39 1648.26 164.22 Z" />
<path fill="#6c6c6c" opacity="1.00" d=" M 1755.59 164.72 C 1757.68 164.58 1759.78 164.43 1761.89 164.27 C 1757.90 187.24 1752.85 210.12 1747.77 232.89 C 1742.66 251.93 1722.72 261.65 1704.30 262.37 C 1690.51 262.75 1673.01 263.61 1663.06 252.58 C 1689.60 262.45 1730.88 259.92 1741.71 228.81 C 1747.09 207.63 1750.54 185.98 1755.59 164.72 Z" />
<path fill="#6c6c6c" opacity="1.00" d=" M 2046.69 164.54 C 2048.73 164.45 2050.80 164.36 2052.89 164.23 C 2049.75 185.43 2044.16 206.27 2040.40 227.38 C 2051.71 227.45 2063.05 227.06 2074.36 227.57 C 2060.83 227.74 2047.30 227.41 2033.78 227.90 C 2037.33 206.66 2042.26 185.62 2046.69 164.54 Z" />
<path fill="#6c6c6c" opacity="1.00" d=" M 2257.66 164.32 C 2259.72 164.28 2261.81 164.24 2263.92 164.18 C 2258.24 196.41 2250.61 228.34 2244.39 260.50 C 2232.14 260.60 2219.89 260.50 2207.64 260.54 C 2206.70 258.97 2205.80 257.40 2204.90 255.84 C 2203.85 255.69 2202.82 255.55 2201.82 255.41 C 2214.09 254.78 2226.38 255.61 2238.65 254.98 C 2245.06 224.78 2251.05 194.48 2257.66 164.32 Z" />
<path fill="#6c6c6c" opacity="1.00" d=" M 2342.27 164.23 C 2343.06 166.38 2345.91 165.04 2347.70 165.33 C 2347.96 172.39 2348.70 179.43 2349.20 186.48 C 2349.32 187.83 2349.35 189.20 2349.29 190.56 C 2337.39 190.60 2325.50 190.66 2313.61 190.53 C 2313.38 191.94 2313.18 193.35 2313.01 194.77 C 2310.80 194.91 2308.61 195.08 2306.45 195.25 C 2306.64 192.06 2307.14 188.90 2307.95 185.81 C 2319.89 185.48 2331.84 185.78 2343.80 185.69 C 2343.02 178.55 2342.58 171.39 2342.27 164.23 Z" />
<path fill="#6c6c6c" opacity="1.00" d=" M 764.73 165.42 C 766.35 165.36 768.00 165.31 769.64 165.24 C 770.98 173.69 771.00 182.27 771.82 190.79 C 759.80 190.58 747.78 190.82 735.76 190.66 C 735.68 191.64 735.52 193.58 735.44 194.56 C 740.78 194.50 746.13 194.42 751.47 194.64 C 743.86 194.66 736.27 194.94 728.67 195.17 C 729.00 192.03 729.50 188.92 730.15 185.83 C 742.03 185.48 753.92 185.75 765.81 185.71 C 766.00 178.92 764.60 172.21 764.73 165.42 Z" />
<path fill="#6c6c6c" opacity="1.00" d=" M 1064.56 187.75 C 1066.26 180.27 1067.50 172.69 1069.38 165.26 C 1071.56 165.36 1073.76 165.38 1075.96 165.31 C 1074.32 174.48 1071.95 183.52 1070.51 192.73 C 1063.21 192.69 1055.92 192.84 1048.63 192.64 C 1043.65 214.64 1039.39 236.86 1034.66 258.94 C 1021.79 260.05 1008.92 261.28 996.00 261.80 C 996.30 260.05 996.62 258.31 996.96 256.57 C 1007.55 255.15 1018.29 255.22 1028.86 253.72 C 1033.78 231.83 1037.82 209.74 1042.81 187.87 C 1050.06 187.68 1057.31 187.92 1064.56 187.75 Z" />
<path fill="#6c6c6c" opacity="1.00" d=" M 1203.95 165.69 C 1205.81 165.51 1207.67 165.43 1209.55 165.40 C 1209.65 176.53 1210.49 187.68 1211.18 198.74 C 1209.87 202.46 1208.56 206.25 1206.11 209.40 C 1205.35 194.83 1204.70 180.26 1203.95 165.69 Z" />
<path fill="#6c6c6c" opacity="1.00" d=" M 1219.43 254.75 C 1233.81 224.89 1248.42 195.12 1263.20 165.47 C 1265.35 166.60 1267.84 166.28 1270.20 166.30 C 1269.83 168.43 1269.09 170.47 1268.10 172.39 C 1253.20 201.58 1239.22 231.24 1224.60 260.57 C 1213.21 260.48 1201.82 260.59 1190.44 260.52 C 1190.38 258.90 1190.34 257.27 1190.33 255.66 C 1188.52 255.68 1186.73 255.66 1184.95 255.52 C 1196.42 254.57 1207.98 255.92 1219.43 254.75 Z" />
<path fill="#6c6c6c" opacity="1.00" d=" M 1423.68 188.00 C 1425.22 180.43 1426.70 172.84 1428.48 165.33 C 1440.24 165.45 1430.43 178.94 1430.90 186.19 L 1430.78 186.76 C 1430.27 188.77 1429.73 190.79 1429.57 192.87 C 1416.65 192.35 1400.53 184.46 1389.64 194.46 C 1385.71 194.07 1381.98 188.85 1386.84 186.64 C 1398.71 182.01 1411.62 186.26 1423.68 188.00 Z" />
<path fill="#6c6c6c" opacity="1.00" d=" M 2112.60 254.62 C 2118.96 224.91 2124.83 195.09 2131.33 165.41 C 2133.43 165.30 2135.54 164.89 2137.64 164.38 C 2132.40 196.27 2124.46 227.85 2118.50 259.68 C 2105.66 260.00 2092.92 261.89 2080.05 261.80 C 2080.20 260.12 2080.46 258.46 2080.74 256.79 C 2091.32 255.72 2101.96 255.12 2112.60 254.62 Z" />
<path fill="#6c6c6c" opacity="1.00" d=" M 2189.22 165.27 C 2190.21 165.35 2191.23 165.42 2192.27 165.49 C 2198.66 177.34 2206.31 188.56 2212.12 200.68 C 2212.53 200.32 2213.36 199.59 2213.77 199.23 C 2213.48 201.08 2213.11 202.91 2212.81 204.75 C 2203.85 192.37 2197.09 178.40 2189.22 165.27 Z" />
<path fill="#6c6c6c" opacity="1.00" d=" M 2427.62 187.98 C 2429.28 180.29 2430.54 172.52 2432.54 164.91 L 2432.56 166.33 C 2434.67 166.33 2436.98 166.08 2439.00 167.05 C 2436.67 175.73 2435.09 184.74 2433.21 193.59 C 2420.65 191.41 2404.28 184.89 2393.60 194.48 C 2389.71 194.06 2385.99 189.04 2390.65 186.66 C 2402.55 182.01 2415.52 186.24 2427.62 187.98 Z" />
<path fill="#6c6c6c" opacity="1.00" d=" M 970.68 188.00 C 972.38 180.73 973.55 173.35 975.45 166.13 C 977.49 166.28 979.56 166.40 981.63 166.49 C 981.09 173.13 978.92 179.56 977.96 186.16 L 977.85 186.75 C 977.40 188.79 976.85 190.81 976.58 192.89 C 963.66 192.27 947.59 184.55 936.67 194.45 C 932.74 194.11 929.03 188.82 933.87 186.65 C 945.72 182.03 958.64 186.21 970.68 188.00 Z" />
<path fill="#6c6c6c" opacity="1.00" d=" M 1857.67 172.04 C 1864.97 176.24 1868.12 185.26 1866.19 193.28 C 1865.57 196.92 1864.30 200.44 1862.27 203.53 C 1857.23 210.10 1850.58 215.60 1842.56 218.04 C 1846.68 231.71 1852.08 244.99 1856.06 258.70 C 1842.56 259.86 1829.06 261.14 1815.59 262.74 C 1815.26 260.93 1814.87 259.15 1814.43 257.38 C 1813.53 257.46 1811.73 257.61 1810.83 257.69 C 1823.85 255.87 1836.96 254.83 1850.05 253.59 C 1846.51 239.85 1840.69 226.81 1836.80 213.18 C 1853.32 208.33 1867.29 188.58 1857.67 172.04 Z" />
<path fill="#6c6c6c" opacity="1.00" d=" M 1981.66 176.00 C 2003.44 192.21 1995.52 226.38 1977.06 242.08 C 1951.37 264.43 1907.53 271.82 1879.88 249.73 C 1910.95 264.79 1951.98 258.04 1975.63 232.56 C 1989.34 217.73 1994.37 192.98 1981.66 176.00 Z" />
<path fill="#6c6c6c" opacity="1.00" d=" M 1806.06 186.03 C 1811.26 186.30 1818.05 186.65 1820.40 192.25 C 1817.54 192.01 1814.70 191.76 1811.87 191.53 C 1810.48 197.07 1809.51 202.71 1808.29 208.29 L 1808.12 209.13 C 1805.77 209.33 1803.43 209.41 1801.12 209.25 C 1802.80 201.52 1804.10 193.70 1806.06 186.03 Z" />
<path fill="#6c6c6c" opacity="1.00" d=" M 1900.22 207.20 C 1904.07 187.85 1931.85 178.75 1946.16 192.03 C 1925.24 184.61 1899.16 201.52 1905.55 225.09 C 1898.86 222.31 1898.95 213.24 1900.22 207.20 Z" />
<path fill="#6c6c6c" opacity="1.00" d=" M 986.63 187.92 C 992.75 187.74 998.87 187.72 1005.00 187.91 C 1004.44 190.34 1003.87 192.77 1003.27 195.20 C 1003.38 194.55 1003.59 193.24 1003.69 192.59 C 997.12 192.93 990.54 192.58 983.98 192.82 C 984.88 191.20 985.75 189.56 986.63 187.92 Z" />
<path fill="#6c6c6c" opacity="1.00" d=" M 1439.57 187.92 C 1445.69 187.74 1451.82 187.71 1457.95 187.91 C 1457.46 189.97 1456.99 192.04 1456.48 194.09 L 1456.53 192.58 C 1449.99 192.93 1443.44 192.59 1436.91 192.81 C 1437.80 191.19 1438.68 189.55 1439.57 187.92 Z" />
<path fill="#6c6c6c" opacity="1.00" d=" M 811.98 216.09 C 817.34 207.06 821.11 196.70 827.86 188.72 C 828.21 192.78 828.46 196.86 828.82 200.92 L 828.46 201.46 C 825.22 206.11 822.97 211.34 820.19 216.26 C 817.45 216.31 814.71 216.24 811.98 216.09 Z" />
<path fill="#6c6c6c" opacity="1.00" d=" M 746.02 218.83 C 747.84 211.93 748.80 204.85 750.62 197.95 L 750.69 199.47 C 752.77 199.42 754.86 199.39 756.96 199.36 C 755.27 207.52 753.62 215.69 751.89 223.84 C 744.22 224.40 736.51 223.93 728.83 224.14 C 728.68 225.72 728.48 227.30 728.26 228.87 C 726.01 229.04 723.77 229.15 721.54 229.27 C 721.91 225.84 722.51 222.45 723.31 219.09 C 730.86 218.46 738.45 218.94 746.02 218.83 Z" />
<path fill="#6c6c6c" opacity="1.00" d=" M 1324.04 199.64 C 1326.26 199.55 1328.48 199.51 1330.71 199.43 C 1328.73 207.49 1327.25 215.66 1325.50 223.77 C 1317.91 224.04 1310.31 223.86 1302.72 223.90 C 1302.48 225.55 1302.25 227.21 1302.04 228.87 C 1299.82 229.00 1297.61 229.14 1295.42 229.28 C 1295.67 225.79 1296.26 222.33 1297.15 218.95 C 1304.71 218.60 1312.28 218.93 1319.85 218.78 C 1321.28 212.40 1322.43 205.97 1324.04 199.64 Z" />
<path fill="#6c6c6c" opacity="1.00" d=" M 1633.99 199.45 C 1636.22 199.44 1638.48 199.41 1640.74 199.38 C 1638.84 207.47 1637.19 215.62 1635.63 223.77 C 1628.08 224.38 1620.51 223.99 1612.96 224.11 C 1612.50 225.66 1611.89 227.17 1611.32 228.67 C 1621.99 228.72 1632.70 228.27 1643.36 228.89 C 1630.70 229.43 1618.03 228.98 1605.38 229.17 C 1605.61 225.71 1606.20 222.28 1607.09 218.92 C 1614.65 218.63 1622.22 218.92 1629.79 218.78 C 1631.30 212.36 1632.26 205.82 1633.99 199.45 Z" />
<path fill="#6c6c6c" opacity="1.00" d=" M 2327.96 199.52 C 2330.17 199.53 2332.42 199.53 2334.68 199.51 C 2332.49 207.49 2331.22 215.69 2329.46 223.77 C 2321.88 224.04 2314.30 223.86 2306.73 223.90 C 2306.42 225.55 2306.12 227.20 2305.85 228.85 C 2303.67 228.99 2301.50 229.14 2299.38 229.29 C 2299.61 225.79 2300.20 222.32 2301.09 218.92 C 2308.66 218.62 2316.23 218.92 2323.81 218.78 C 2325.27 212.37 2326.32 205.88 2327.96 199.52 Z" />
<path fill="#6c6c6c" opacity="1.00" d=" M 1157.31 254.49 C 1165.92 237.90 1172.92 220.38 1182.15 204.14 C 1183.36 208.99 1183.31 214.00 1183.12 218.95 C 1175.50 232.35 1169.63 246.81 1162.60 260.57 C 1151.19 260.48 1139.78 260.59 1128.38 260.51 C 1128.34 258.90 1128.32 257.28 1128.32 255.67 C 1126.49 255.68 1124.69 255.64 1122.90 255.51 C 1134.32 254.38 1146.04 256.30 1157.31 254.49 Z" />
<path fill="#6c6c6c" opacity="1.00" d=" M 2176.26 209.74 C 2178.23 212.45 2179.87 215.39 2181.29 218.43 C 2178.14 232.14 2175.40 245.96 2172.61 259.75 C 2160.08 260.56 2147.55 261.44 2135.00 261.75 C 2135.52 260.02 2136.04 258.29 2136.59 256.56 C 2146.59 255.47 2156.69 255.56 2166.73 254.69 C 2170.08 239.74 2172.84 224.67 2176.26 209.74 Z" />
<path fill="#6c6c6c" opacity="1.00" d=" M 901.95 210.74 C 910.58 217.53 925.08 217.06 931.02 225.91 C 920.83 222.18 909.45 219.00 901.95 210.74 Z" />
<path fill="#6c6c6c" opacity="1.00" d=" M 1354.81 210.74 C 1364.02 216.94 1376.21 217.79 1384.49 225.05 C 1384.28 225.43 1383.84 226.20 1383.62 226.59 C 1374.35 221.17 1362.42 219.19 1354.81 210.74 Z" />
<path fill="#6c6c6c" opacity="1.00" d=" M 2358.81 210.76 C 2367.67 217.40 2381.49 217.14 2388.11 225.90 C 2377.83 222.12 2366.66 218.80 2358.81 210.76 Z" />
<path fill="#6c6c6c" opacity="1.00" d=" M 968.06 212.15 C 982.42 220.33 974.72 242.47 963.32 250.27 C 940.95 265.67 911.55 263.30 886.03 259.59 C 886.25 258.34 886.48 257.09 886.72 255.85 C 908.92 257.24 933.07 259.47 953.25 248.12 C 965.58 241.54 973.84 225.66 968.06 212.15 Z" />
<path fill="#6c6c6c" opacity="1.00" d=" M 1421.00 212.11 C 1434.79 219.78 1428.20 240.63 1417.96 248.90 C 1395.74 265.94 1365.18 263.26 1339.09 259.66 C 1339.24 258.37 1339.39 257.09 1339.56 255.80 C 1363.82 257.37 1391.58 260.04 1412.00 244.06 C 1420.87 236.51 1425.87 223.22 1421.00 212.11 Z" />
<path fill="#6c6c6c" opacity="1.00" d=" M 2424.96 212.08 C 2438.88 220.08 2431.97 241.12 2421.35 249.29 C 2399.17 265.91 2368.98 263.18 2343.11 259.69 C 2343.21 258.39 2343.33 257.10 2343.47 255.81 C 2365.74 257.25 2390.02 259.51 2410.24 248.05 C 2422.54 241.44 2430.74 225.56 2424.96 212.08 Z" />
<path fill="#6c6c6c" opacity="1.00" d=" M 1799.45 217.28 C 1802.10 221.46 1802.56 226.52 1803.38 231.29 C 1801.14 240.88 1799.45 250.63 1797.16 260.19 C 1784.52 261.22 1771.76 261.52 1759.10 262.76 C 1759.29 260.97 1759.46 259.18 1759.68 257.39 C 1758.02 257.51 1756.38 257.59 1754.75 257.63 C 1766.90 255.99 1779.50 256.70 1791.46 254.68 C 1794.51 242.31 1796.61 229.70 1799.45 217.28 Z" />
<path fill="#6c6c6c" opacity="1.00" d=" M 1630.47 254.79 C 1634.06 247.18 1637.74 239.60 1641.63 232.12 L 1641.28 233.65 C 1643.81 233.51 1646.36 233.46 1648.92 233.41 C 1644.53 242.46 1640.23 251.57 1635.77 260.59 C 1612.87 260.51 1589.98 260.50 1567.08 260.59 C 1567.30 258.95 1567.57 257.32 1567.85 255.69 C 1565.69 255.67 1563.55 255.63 1561.42 255.57 C 1584.41 254.49 1607.49 255.94 1630.47 254.79 Z" />
<path fill="#6c6c6c" opacity="1.00" d=" M 2071.82 232.31 C 2074.35 232.33 2076.89 232.34 2079.45 232.39 C 2078.90 234.67 2077.91 236.81 2076.78 238.84 C 2072.91 246.00 2069.57 253.43 2065.75 260.62 C 2042.18 260.44 2018.60 260.58 1995.03 260.55 C 1995.44 258.89 1995.90 257.25 1996.49 255.64 C 1994.17 255.69 1991.90 255.68 1989.63 255.51 C 2012.99 254.55 2036.45 255.90 2059.77 254.81 C 2064.71 248.15 2067.27 239.48 2071.82 232.31 Z" />
<path fill="#6c6c6c" opacity="1.00" d=" M 746.69 254.92 C 750.51 247.81 753.45 240.26 757.40 233.22 C 759.81 233.59 762.26 233.53 764.69 233.36 C 760.39 240.61 755.64 247.59 751.17 254.74 C 752.30 254.89 753.44 255.04 754.60 255.18 C 753.80 256.92 753.03 258.68 752.28 260.44 C 729.26 260.65 706.23 260.50 683.20 260.52 C 683.69 258.91 684.07 257.27 684.53 255.66 C 682.28 255.69 680.03 255.68 677.79 255.51 C 700.74 254.63 723.74 255.74 746.69 254.92 Z" />
<path fill="#6c6c6c" opacity="1.00" d=" M 1330.92 233.65 C 1333.28 233.60 1335.65 233.58 1338.03 233.58 C 1337.53 236.73 1336.34 239.72 1334.80 242.51 C 1331.60 248.46 1328.96 254.68 1325.76 260.63 C 1302.87 260.44 1279.97 260.55 1257.07 260.57 C 1257.37 258.94 1257.71 257.32 1258.06 255.70 C 1255.87 255.67 1253.70 255.63 1251.53 255.55 C 1274.51 254.53 1297.56 255.90 1320.52 254.81 C 1323.84 247.69 1327.30 240.63 1330.92 233.65 Z" />
<path fill="#6c6c6c" opacity="1.00" d=" M 2334.88 233.60 C 2337.23 233.59 2339.60 233.58 2341.99 233.59 C 2341.49 236.75 2340.25 239.72 2338.68 242.47 C 2335.49 248.41 2332.88 254.62 2329.77 260.59 C 2306.88 260.50 2283.98 260.50 2261.08 260.59 C 2261.30 258.95 2261.58 257.32 2261.87 255.69 C 2259.70 255.66 2257.56 255.63 2255.44 255.57 C 2278.19 254.50 2301.06 255.91 2323.78 254.82 C 2328.34 248.47 2330.89 240.49 2334.88 233.60 Z" />
<path fill="#6c6c6c" opacity="1.00" d=" M 800.12 240.71 C 810.83 240.35 821.56 240.62 832.27 240.56 C 832.62 242.24 832.94 243.94 833.15 245.65 C 824.08 245.67 815.02 245.67 805.96 245.66 C 802.60 251.25 799.31 256.88 796.05 262.52 C 782.78 261.05 769.39 261.03 756.10 259.77 C 757.21 258.51 758.12 257.10 758.83 255.57 C 758.09 255.50 756.61 255.36 755.87 255.29 C 767.50 255.33 779.05 257.09 790.68 256.77 C 793.86 251.43 796.96 246.05 800.12 240.71 Z" />
<path fill="#6c6c6c" opacity="1.00" d=" M 349.70 244.80 C 350.80 246.66 351.34 248.77 351.93 250.84 C 352.42 250.44 353.39 249.64 353.88 249.24 C 356.60 258.35 358.76 267.78 362.20 276.59 C 372.19 276.82 382.19 277.38 392.18 277.49 C 390.88 280.40 386.89 280.66 385.74 283.70 C 390.21 283.84 394.71 283.51 399.17 284.01 C 389.66 290.99 379.71 297.38 370.08 304.19 C 373.24 315.53 376.66 326.81 380.05 338.09 C 369.95 331.99 361.53 322.74 351.27 317.24 C 341.62 323.14 332.63 330.22 322.97 336.18 C 323.23 331.82 325.99 328.12 326.27 323.77 C 324.41 324.77 322.65 325.93 320.88 327.05 C 322.92 317.64 327.78 309.05 329.75 299.66 C 321.64 293.94 314.09 287.45 306.02 281.67 C 308.06 281.02 310.15 281.65 312.21 281.82 C 310.98 278.58 307.09 277.83 305.24 275.05 C 316.35 275.86 327.53 275.43 338.67 275.68 C 342.46 265.43 346.03 255.09 349.70 244.80 M 349.57 251.89 C 346.22 260.60 343.67 269.65 339.95 278.19 C 330.62 278.88 321.28 277.65 311.95 277.50 C 318.86 283.86 327.00 288.85 333.98 295.15 C 331.55 304.19 327.33 312.69 325.00 321.78 C 332.90 316.52 340.35 310.49 348.70 305.96 C 355.91 311.79 363.26 317.48 370.74 322.98 C 368.41 313.97 365.22 305.17 363.06 296.14 C 370.11 289.92 378.81 285.60 386.05 279.56 C 376.69 278.93 366.91 280.44 357.82 278.21 C 354.54 269.63 352.96 260.45 349.57 251.89 Z" />
<path fill="#6c6c6c" opacity="1.00" d=" M 254.39 295.88 C 256.30 297.47 256.23 300.15 256.83 302.38 C 257.67 301.92 258.51 301.48 259.36 301.04 C 261.47 308.18 263.29 315.43 265.74 322.46 C 274.07 322.26 282.37 322.84 290.67 323.31 C 288.29 325.90 284.08 326.64 282.78 330.14 C 287.90 330.22 293.02 330.13 298.14 330.25 C 290.04 336.22 281.41 341.46 273.40 347.53 C 275.17 357.42 279.18 366.96 281.49 376.80 C 273.15 370.91 265.33 364.30 257.05 358.33 C 248.83 364.18 240.59 370.04 232.04 375.40 C 233.59 370.58 235.65 365.93 236.91 361.03 C 234.20 361.62 232.24 363.69 229.93 365.09 C 232.16 357.63 235.39 350.50 237.40 342.99 C 230.91 338.15 224.53 333.17 218.12 328.23 C 220.47 328.20 222.83 328.13 225.17 327.84 C 222.96 325.19 219.72 323.74 217.37 321.25 C 226.70 320.64 235.99 321.96 245.32 321.65 C 248.22 313.02 251.46 304.50 254.39 295.88 M 254.47 303.08 C 252.05 310.13 249.38 317.09 247.03 324.16 C 239.65 324.33 232.23 324.39 224.88 323.57 C 229.72 329.27 237.15 332.29 241.94 337.99 C 239.88 345.00 236.76 351.67 234.98 358.77 C 241.03 354.79 246.71 350.20 252.98 346.57 C 259.66 349.87 265.14 355.87 271.51 360.03 C 269.62 352.68 266.38 345.52 265.52 338.02 C 271.36 333.43 277.78 329.61 283.88 325.37 C 276.34 325.09 268.77 325.45 261.26 324.69 C 258.42 317.68 257.12 310.16 254.47 303.08 Z" />
<path fill="#6c6c6c" opacity="1.00" d=" M 160.78 347.68 C 163.70 339.74 166.10 331.57 169.50 323.84 C 170.15 326.12 170.85 328.40 171.76 330.60 C 172.32 330.22 173.42 329.48 173.98 329.10 C 175.62 335.64 177.57 342.10 179.63 348.52 C 187.24 348.39 194.90 348.09 202.43 349.39 C 199.97 351.67 196.10 352.49 194.69 355.75 C 199.65 355.90 204.60 356.17 209.56 356.26 C 202.30 361.95 194.28 366.64 186.88 372.16 C 188.33 381.07 192.56 389.95 193.98 399.10 C 186.60 393.55 179.39 387.80 172.02 382.25 C 164.27 387.44 156.72 392.92 148.92 398.03 C 149.85 392.97 152.98 388.52 153.30 383.34 C 151.10 384.61 149.01 386.06 146.87 387.43 C 148.58 380.79 151.58 374.57 153.42 367.96 C 147.58 363.36 141.56 358.97 135.83 354.23 C 137.91 354.09 139.99 354.32 142.04 354.69 C 142.00 350.97 137.02 350.33 135.37 347.41 C 143.84 347.48 152.31 347.63 160.78 347.68 M 161.94 350.21 C 155.60 350.82 149.21 350.11 142.85 350.22 C 147.66 354.53 152.93 358.29 158.07 362.19 C 156.10 368.57 153.79 374.85 151.39 381.08 C 157.36 378.21 162.11 373.34 168.01 370.42 C 173.80 373.42 178.29 378.57 183.93 381.94 C 182.61 375.50 180.07 369.39 178.67 362.97 C 183.84 358.75 189.79 355.61 194.96 351.38 C 188.45 351.16 181.82 351.87 175.41 350.55 C 172.28 344.87 171.63 337.98 169.33 331.88 C 166.03 337.57 165.41 344.64 161.94 350.21 Z" />
<path fill="#6c6c6c" opacity="1.00" d=" M 68.07 366.54 C 70.96 359.34 72.99 351.81 76.14 344.73 C 76.82 346.92 77.40 349.16 77.83 351.42 C 78.76 351.02 79.69 350.63 80.62 350.24 C 82.03 356.01 83.56 361.79 85.66 367.34 C 92.24 367.13 98.83 367.28 105.42 367.35 C 103.39 370.44 99.26 371.11 97.23 374.22 C 102.42 374.65 107.73 373.68 112.84 374.81 C 105.89 379.59 98.97 384.41 91.97 389.12 C 93.89 396.67 96.01 404.21 98.71 411.53 C 91.22 410.36 85.53 402.43 78.99 398.26 C 71.73 402.46 65.32 408.06 58.01 412.12 C 59.12 407.47 61.13 403.10 62.67 398.59 C 59.93 398.00 58.10 400.79 55.90 401.95 C 57.26 396.11 59.68 390.59 61.64 384.95 C 56.46 381.02 51.15 377.25 46.27 372.95 C 48.54 372.88 50.82 372.88 53.09 372.78 C 50.83 370.06 47.69 368.32 44.94 366.16 C 52.63 365.54 60.39 365.92 68.07 366.54 M 75.61 352.96 C 73.50 358.12 72.29 363.65 69.67 368.59 C 64.06 370.22 57.98 368.16 52.18 368.38 C 56.67 372.17 61.38 375.67 66.08 379.20 C 64.47 384.88 62.15 390.32 60.26 395.91 C 65.35 393.04 69.69 388.59 75.07 386.46 C 79.99 389.41 84.12 393.47 88.82 396.73 C 87.60 390.97 84.53 385.39 84.41 379.52 C 88.75 376.18 93.57 373.50 97.89 370.12 C 92.28 369.06 86.53 369.86 80.88 369.21 C 78.82 363.89 77.93 358.18 75.61 352.96 Z" />
</g>
<g id="#e8e8e8ff">
<path fill="#e8e8e8" opacity="1.00" d=" M 189.76 9.01 C 190.29 8.86 191.36 8.55 191.89 8.39 C 190.46 16.04 190.20 24.54 186.94 31.47 C 184.35 25.53 189.39 16.22 189.76 9.01 Z" />
<path fill="#e8e8e8" opacity="1.00" d=" M 215.84 111.03 C 217.69 79.70 223.54 48.51 223.57 17.16 L 225.13 18.01 C 227.08 38.61 223.94 59.32 221.69 79.79 C 219.74 92.66 218.53 105.75 218.82 118.77 C 233.42 100.30 244.26 79.16 255.64 58.62 C 259.56 51.18 264.12 42.14 273.02 40.05 C 283.72 42.93 293.89 47.68 304.50 50.96 C 304.53 50.53 304.58 49.68 304.61 49.25 C 306.82 50.15 309.12 50.80 311.48 51.15 C 332.86 59.41 353.48 69.88 374.40 79.37 C 380.09 82.02 385.84 84.57 391.49 87.31 C 391.64 89.26 392.00 91.18 392.32 93.11 C 389.65 92.20 387.04 91.15 384.42 90.11 C 384.07 100.61 382.57 111.08 383.41 121.59 C 386.51 122.11 389.61 122.59 392.71 123.11 C 393.03 128.68 393.17 134.26 392.99 139.83 C 335.90 139.30 278.79 138.14 221.70 137.94 C 221.98 139.22 222.72 139.85 223.92 139.85 C 269.76 140.45 315.62 140.86 361.47 141.46 C 360.30 146.51 358.52 152.69 360.12 157.48 C 368.07 156.72 376.01 155.52 383.86 154.01 C 383.97 150.36 383.97 146.71 383.83 143.06 C 380.71 142.78 377.58 142.66 374.47 142.33 C 380.44 140.69 386.74 141.98 392.84 141.94 C 392.72 152.95 392.08 163.97 390.87 174.92 C 388.47 175.68 386.07 176.42 383.65 177.11 C 383.24 175.13 384.31 173.68 385.97 172.80 C 386.11 163.03 387.71 153.29 387.15 143.52 C 382.91 151.67 386.12 162.64 383.61 171.77 C 382.44 167.73 382.14 161.44 377.00 160.51 C 371.88 161.30 371.57 167.29 370.55 171.29 C 370.01 164.58 362.97 156.12 357.54 164.27 C 356.80 157.79 359.65 150.75 356.87 144.68 C 355.71 158.27 353.98 172.52 356.03 186.04 C 330.05 194.61 304.52 204.49 278.59 213.20 C 283.17 190.31 280.60 166.32 282.69 143.01 C 282.11 143.00 280.96 143.00 280.38 142.99 C 280.33 151.05 279.93 159.10 279.86 167.16 C 267.94 168.51 256.05 170.11 244.09 171.07 C 243.01 161.61 247.69 149.41 243.21 141.70 C 241.92 167.50 241.57 193.33 240.41 219.13 C 245.11 230.52 226.62 227.71 219.36 231.93 C 220.10 201.89 221.31 171.86 222.05 141.81 C 221.56 141.97 220.58 142.29 220.09 142.45 C 218.86 172.41 218.12 202.42 217.37 232.42 C 202.52 237.36 187.62 242.29 173.11 248.13 C 156.65 245.80 140.03 244.38 123.70 241.15 C 123.86 239.54 124.02 237.94 124.19 236.34 C 130.14 236.24 138.53 237.93 142.16 231.93 C 140.43 224.76 130.62 226.82 125.03 225.78 C 125.35 218.66 126.33 211.34 130.09 205.12 C 127.80 199.40 129.83 193.08 130.26 187.16 C 125.15 188.99 127.96 196.74 126.88 201.17 C 98.86 204.47 69.58 201.35 44.02 189.02 C 39.50 183.16 46.91 176.07 42.32 170.32 C 69.79 178.35 99.56 178.28 127.60 175.43 C 130.97 160.65 129.07 143.96 131.61 128.59 C 136.24 116.59 141.54 104.84 146.14 92.82 C 133.64 92.39 121.12 91.98 108.65 91.16 C 112.39 77.34 114.99 62.82 119.93 49.54 C 120.89 61.08 113.44 76.15 111.57 89.20 C 124.23 89.68 136.90 89.87 149.54 90.75 C 144.74 104.16 138.48 117.03 133.74 130.45 C 132.65 144.91 132.49 159.44 131.40 173.91 C 143.88 170.70 156.74 169.51 169.52 168.16 C 172.88 167.69 171.35 163.35 171.68 161.02 C 169.69 121.50 173.67 81.74 183.03 43.32 C 183.53 43.21 184.55 42.99 185.06 42.88 C 176.97 81.36 172.68 120.65 174.49 160.01 C 175.04 128.66 174.51 96.89 181.96 66.22 C 193.17 68.99 204.88 69.16 215.99 72.28 C 218.24 84.78 215.26 98.19 215.84 111.03 M 252.74 80.75 C 249.13 87.66 244.81 94.16 241.05 100.98 C 252.67 104.45 265.19 104.59 277.14 106.92 C 277.09 98.03 275.55 89.18 275.70 80.27 C 276.34 69.19 275.86 58.06 276.54 46.97 C 263.59 53.41 259.76 69.17 252.74 80.75 M 279.04 86.17 C 279.49 93.26 278.88 100.49 280.51 107.47 C 290.39 108.44 300.18 110.26 310.05 111.28 C 309.65 106.92 309.15 102.58 308.78 98.22 C 309.12 84.84 308.44 71.42 309.90 58.08 C 300.03 53.74 289.75 50.44 279.71 46.54 C 278.55 59.67 278.01 73.03 279.04 86.17 M 312.28 59.24 C 311.89 76.53 310.03 94.00 312.70 111.21 C 319.63 113.45 327.69 113.41 335.05 114.86 C 333.75 99.45 333.26 83.96 334.53 68.52 C 327.19 65.25 319.58 62.62 312.28 59.24 M 337.43 69.91 C 336.06 84.92 335.89 100.14 337.80 115.11 C 343.49 116.00 349.19 117.06 354.95 117.32 C 353.65 103.90 354.46 90.36 355.11 76.92 C 349.22 74.57 343.48 71.82 337.43 69.91 M 184.24 71.59 C 181.09 83.23 179.31 95.29 178.74 107.33 C 177.85 123.82 177.19 140.32 177.64 156.85 C 191.02 145.71 201.30 131.43 212.24 118.02 C 213.57 103.81 213.86 89.03 213.48 74.61 C 203.79 73.22 194.07 71.13 184.24 71.59 M 357.76 77.98 C 356.76 91.24 356.29 104.59 357.18 117.88 C 360.90 118.44 364.63 119.00 368.35 119.57 C 368.57 108.70 369.52 97.85 369.63 86.97 C 370.72 80.39 361.79 80.70 357.76 77.98 M 372.10 84.44 C 372.17 96.27 370.49 108.08 370.96 119.89 C 374.32 120.37 377.67 120.93 381.06 121.30 C 380.32 110.47 381.77 99.69 382.12 88.89 C 378.87 87.23 375.64 85.42 372.10 84.44 M 174.90 161.11 C 174.91 161.95 174.94 163.63 174.95 164.47 C 190.77 153.95 203.49 139.07 215.26 124.23 C 217.33 122.53 216.08 119.99 215.64 117.87 C 202.89 132.79 191.82 150.90 174.90 161.11 M 294.95 142.65 C 294.68 162.92 293.66 183.19 293.93 203.45 C 296.91 185.55 298.10 160.09 294.95 142.65 M 307.04 143.94 C 307.31 161.93 306.23 179.89 306.28 197.87 C 306.66 198.13 307.44 198.66 307.82 198.92 C 308.34 180.34 309.42 161.75 308.82 143.15 C 308.37 143.35 307.49 143.74 307.04 143.94 Z" />
<path fill="#e8e8e8" opacity="1.00" d=" M 155.37 30.90 C 170.42 25.90 188.82 35.19 204.93 37.39 C 204.75 51.07 185.21 40.75 177.32 38.68 C 173.37 31.75 162.69 31.70 155.37 30.90 Z" />
<path fill="#e8e8e8" opacity="1.00" d=" M 148.68 36.70 C 155.92 29.89 167.21 33.78 174.85 37.84 C 173.30 40.94 170.75 43.37 167.09 43.41 C 164.89 54.91 162.01 66.29 158.39 77.43 C 156.79 81.88 149.48 83.47 147.23 78.82 C 142.99 70.84 144.45 61.41 145.16 52.78 C 152.14 52.79 162.72 52.10 165.27 44.65 C 159.57 48.74 152.61 52.12 145.42 50.38 C 146.85 45.92 146.61 40.88 148.68 36.70 Z" />
<path fill="#e8e8e8" opacity="1.00" d=" M 17.40 58.42 C 27.02 43.48 46.95 51.39 61.04 53.31 C 58.81 66.68 42.48 54.68 33.97 58.82 C 20.35 64.98 21.97 82.10 16.82 93.97 C 9.57 93.86 12.00 83.90 12.28 79.18 C 13.70 83.00 13.10 87.13 13.89 91.06 C 14.53 90.92 15.80 90.64 16.43 90.50 C 20.76 78.59 19.50 59.02 35.10 56.20 C 29.29 53.96 22.95 55.82 17.97 59.14 L 17.40 58.42 Z" />
<path fill="#e8e8e8" opacity="1.00" d=" M 68.62 62.24 C 71.04 48.02 86.48 54.08 96.74 53.51 C 97.61 56.73 94.63 60.19 95.02 63.84 C 86.65 60.02 76.35 63.73 68.62 62.24 M 76.03 59.53 C 81.60 59.48 87.23 59.48 92.68 60.80 C 93.24 59.09 93.83 57.40 94.40 55.70 C 88.49 56.45 79.59 53.22 76.03 59.53 Z" />
<path fill="#e8e8e8" opacity="1.00" d=" M 69.16 65.26 C 77.69 64.58 88.19 61.53 95.60 66.70 C 92.62 72.57 94.52 79.18 95.21 85.19 C 83.87 84.60 72.41 83.08 61.10 81.62 C 63.45 76.04 65.75 70.27 69.16 65.26 M 64.56 79.97 C 65.41 80.04 67.11 80.19 67.96 80.27 L 68.38 79.97 C 76.31 81.20 84.30 81.92 92.26 82.95 C 92.18 81.33 92.03 79.71 91.81 78.11 C 91.56 74.41 91.97 70.70 92.71 67.07 C 81.31 64.96 66.44 65.74 64.56 79.97 Z" />
<path fill="#e8e8e8" opacity="1.00" d=" M 54.58 130.38 C 54.25 115.48 56.36 100.02 61.03 85.98 C 72.20 86.38 83.41 87.65 94.58 88.67 C 90.79 102.45 86.89 116.44 86.97 130.90 C 76.17 130.80 65.38 130.57 54.58 130.38 M 62.30 92.23 C 59.74 98.90 58.29 106.11 58.03 113.26 C 57.11 118.15 56.90 123.16 56.70 128.13 C 66.15 128.09 75.62 128.94 85.07 128.39 C 84.71 120.68 85.94 112.99 87.50 105.46 L 87.88 105.78 C 88.49 100.68 90.53 95.91 91.33 90.85 C 81.59 90.35 71.63 88.30 62.30 92.23 Z" />
<path fill="#e8e8e8" opacity="1.00" d=" M 362.43 144.34 C 368.92 144.07 375.40 144.64 381.89 144.91 C 381.92 147.49 381.90 150.08 381.82 152.66 C 375.02 153.47 368.26 154.55 361.48 155.51 C 361.43 151.76 362.23 148.08 362.43 144.34 Z" />
<path fill="#e8e8e8" opacity="1.00" d=" M 363.06 194.64 C 355.20 187.47 356.08 169.69 363.86 162.09 C 370.53 167.73 366.28 176.35 368.20 183.54 C 365.42 186.58 365.04 191.07 363.06 194.64 Z" />
<path fill="#e8e8e8" opacity="1.00" d=" M 375.84 164.83 C 378.20 160.44 380.58 166.23 380.70 168.80 C 372.77 166.05 373.02 180.19 376.08 184.81 C 376.76 184.77 378.13 184.71 378.82 184.68 C 378.39 185.96 377.97 187.24 377.57 188.53 C 370.74 183.43 372.96 171.83 375.84 164.83 Z" />
<path fill="#e8e8e8" opacity="1.00" d=" M 244.19 173.24 C 256.02 172.16 267.79 170.45 279.62 169.35 C 279.31 177.02 279.59 184.80 278.60 192.39 C 277.66 183.72 272.21 169.62 261.00 174.94 C 241.67 182.62 248.96 206.54 242.40 222.25 C 242.99 205.91 243.33 189.56 244.19 173.24 Z" />
<path fill="#e8e8e8" opacity="1.00" d=" M 259.96 177.11 C 263.91 175.36 269.39 174.75 272.02 178.98 C 278.81 189.56 277.05 202.69 276.61 214.56 C 276.16 214.91 275.24 215.60 274.78 215.94 C 273.72 222.92 269.54 228.99 265.54 234.65 L 265.08 234.73 C 252.14 238.39 247.64 221.73 247.41 212.02 C 248.66 200.41 248.82 182.93 262.93 179.61 C 261.93 178.78 260.94 177.95 259.96 177.11 Z" />
<path fill="#e8e8e8" opacity="1.00" d=" M 44.13 192.12 C 69.57 203.40 98.08 207.08 125.62 203.41 C 128.58 209.33 121.18 217.86 122.89 225.38 C 96.86 222.75 70.38 220.80 45.42 212.41 C 45.32 205.62 44.13 198.91 44.13 192.12 Z" />
<path fill="#e8e8e8" opacity="1.00" d=" M 1811.87 191.53 C 1814.70 191.76 1817.54 192.01 1820.40 192.25 C 1822.13 199.99 1816.04 207.61 1808.29 208.29 C 1809.51 202.71 1810.48 197.07 1811.87 191.53 Z" />
<path fill="#e8e8e8" opacity="1.00" d=" M 46.06 215.81 C 51.07 225.28 62.42 225.11 71.16 228.78 C 62.62 228.14 54.56 224.60 46.29 222.52 C 46.21 220.28 46.13 218.04 46.06 215.81 Z" />
<path fill="#e8e8e8" opacity="1.00" d=" M 49.14 216.12 C 55.80 218.40 62.76 219.51 69.55 221.28 C 69.50 222.73 69.45 224.18 69.40 225.63 C 62.40 223.06 53.63 222.97 49.14 216.12 Z" />
<path fill="#e8e8e8" opacity="1.00" d=" M 71.63 222.68 C 79.42 223.30 87.14 224.67 94.94 225.31 C 94.88 227.22 94.84 229.14 94.75 231.06 C 87.53 228.59 73.58 230.90 71.63 222.68 Z" />
<path fill="#e8e8e8" opacity="1.00" d=" M 97.15 225.06 C 105.68 225.74 114.15 227.07 122.69 227.45 C 122.63 229.66 122.47 231.86 122.14 234.05 C 113.77 233.70 105.45 232.79 97.17 231.62 C 97.14 229.43 97.14 227.24 97.15 225.06 Z" />
<path fill="#e8e8e8" opacity="1.00" d=" M 125.11 228.03 C 130.09 228.89 137.00 227.05 140.28 231.88 C 135.52 235.03 129.58 234.34 124.19 233.96 C 124.51 231.99 124.82 230.01 125.11 228.03 Z" />
<path fill="#e8e8e8" opacity="1.00" d=" M 91.77 234.48 C 101.86 233.49 111.80 236.27 121.89 236.28 C 121.84 237.79 121.80 239.30 121.76 240.81 C 111.71 238.95 101.65 237.04 91.77 234.48 Z" />
</g>
<g id="#afafafff">
<path fill="#afafaf" opacity="1.00" d=" M 258.77 31.62 C 260.35 31.46 261.93 31.30 263.53 31.21 C 279.75 36.98 296.28 43.19 311.48 51.15 C 309.12 50.80 306.82 50.15 304.61 49.25 C 304.58 49.68 304.53 50.53 304.50 50.96 C 293.89 47.68 283.72 42.93 273.02 40.05 C 264.12 42.14 259.56 51.18 255.64 58.62 C 244.26 79.16 233.42 100.30 218.82 118.77 C 218.53 105.75 219.74 92.66 221.69 79.79 C 221.88 80.61 222.27 82.27 222.46 83.09 C 230.40 63.55 247.05 48.98 258.77 31.62 Z" />
<path fill="#afafaf" opacity="1.00" d=" M 252.74 80.75 C 259.76 69.17 263.59 53.41 276.54 46.97 C 275.86 58.06 276.34 69.19 275.70 80.27 C 275.40 78.60 275.01 76.96 274.65 75.31 C 267.97 77.61 261.78 81.08 255.13 83.41 C 254.32 82.53 253.52 81.64 252.74 80.75 Z" />
<path fill="#afafaf" opacity="1.00" d=" M 279.04 86.17 C 278.01 73.03 278.55 59.67 279.71 46.54 C 289.75 50.44 300.03 53.74 309.90 58.08 C 308.44 71.42 309.12 84.84 308.78 98.22 C 308.06 89.14 308.78 80.02 308.25 70.93 C 299.57 77.72 285.87 78.15 279.04 86.17 Z" />
<path fill="#afafaf" opacity="1.00" d=" M 540.69 49.06 C 545.27 62.98 549.17 77.13 553.24 91.21 C 568.04 93.18 583.05 91.64 597.88 93.24 C 585.48 101.12 573.61 109.78 561.39 117.93 C 565.38 132.26 569.74 146.49 573.94 160.76 C 562.18 151.96 550.80 142.57 538.84 134.08 C 526.15 141.27 514.24 150.50 502.03 158.74 C 506.39 144.68 512.12 131.01 516.49 116.99 C 505.62 107.26 492.73 99.40 482.01 89.46 C 496.49 90.57 511.13 90.65 525.58 90.58 C 531.51 77.27 535.78 62.91 540.69 49.06 Z" />
<path fill="#afafaf" opacity="1.00" d=" M 17.97 59.14 C 22.95 55.82 29.29 53.96 35.10 56.20 C 19.50 59.02 20.76 78.59 16.43 90.50 C 15.80 90.64 14.53 90.92 13.89 91.06 C 13.10 87.13 13.70 83.00 12.28 79.18 C 12.67 72.03 13.84 64.59 17.15 58.11 L 17.40 58.42 L 17.97 59.14 Z" />
<path fill="#afafaf" opacity="1.00" d=" M 64.56 79.97 C 66.44 65.74 81.31 64.96 92.71 67.07 C 91.97 70.70 91.56 74.41 91.81 78.11 C 91.46 75.21 91.35 72.29 91.24 69.38 C 83.48 72.54 75.41 75.36 68.38 79.97 L 67.96 80.27 C 67.11 80.19 65.41 80.04 64.56 79.97 Z" />
<path fill="#afafaf" opacity="1.00" d=" M 184.24 71.59 C 194.07 71.13 203.79 73.22 213.48 74.61 C 213.86 89.03 213.57 103.81 212.24 118.02 C 212.45 113.16 212.27 108.29 211.65 103.46 C 200.80 105.63 189.70 105.89 178.74 107.33 C 179.31 95.29 181.09 83.23 184.24 71.59 Z" />
<path fill="#afafaf" opacity="1.00" d=" M 62.30 92.23 C 71.63 88.30 81.59 90.35 91.33 90.85 C 90.53 95.91 88.49 100.68 87.88 105.78 L 87.50 105.46 C 78.77 103.35 68.75 110.56 59.15 109.54 C 58.76 110.78 58.37 112.01 58.03 113.26 C 58.29 106.11 59.74 98.90 62.30 92.23 Z" />
<path fill="#afafaf" opacity="1.00" d=" M 174.90 161.11 C 191.82 150.90 202.89 132.79 215.64 117.87 C 216.08 119.99 217.33 122.53 215.26 124.23 C 203.49 139.07 190.77 153.95 174.95 164.47 C 174.94 163.63 174.91 161.95 174.90 161.11 Z" />
<path fill="#afafaf" opacity="1.00" d=" M 1117.05 161.35 C 1129.32 160.22 1141.92 160.37 1153.96 157.95 C 1155.44 159.57 1154.69 161.91 1154.86 163.88 C 1155.79 178.84 1155.27 193.89 1156.91 208.81 C 1159.46 205.35 1161.03 201.33 1162.75 197.43 C 1168.22 185.03 1174.27 172.88 1179.96 160.58 C 1187.92 160.52 1195.88 160.60 1203.85 160.53 C 1203.86 162.25 1203.88 163.97 1203.95 165.69 C 1204.70 180.26 1205.35 194.83 1206.11 209.40 C 1208.56 206.25 1209.87 202.46 1211.18 198.74 C 1217.77 185.29 1222.97 171.11 1230.09 157.98 C 1241.53 160.34 1253.51 160.19 1265.19 161.40 C 1264.60 162.79 1263.94 164.16 1263.20 165.47 C 1248.42 195.12 1233.81 224.89 1219.43 254.75 C 1207.98 255.92 1196.42 254.57 1184.95 255.52 C 1184.37 243.33 1183.61 231.15 1183.12 218.95 C 1183.31 214.00 1183.36 208.99 1182.15 204.14 C 1172.92 220.38 1165.92 237.90 1157.31 254.49 C 1146.04 256.30 1134.32 254.38 1122.90 255.51 C 1121.05 224.12 1118.41 192.76 1117.05 161.35 Z" />
<path fill="#afafaf" opacity="1.00" d=" M 1866.19 193.28 C 1883.02 167.38 1915.47 155.46 1945.55 158.05 C 1958.59 160.99 1972.65 165.15 1981.66 176.00 C 1994.37 192.98 1989.34 217.73 1975.63 232.56 C 1951.98 258.04 1910.95 264.79 1879.88 249.73 C 1879.57 249.62 1878.96 249.41 1878.65 249.30 C 1863.22 239.70 1857.31 220.62 1862.27 203.53 C 1864.30 200.44 1865.57 196.92 1866.19 193.28 M 1900.22 207.20 C 1898.95 213.24 1898.86 222.31 1905.55 225.09 C 1924.84 242.34 1963.10 215.76 1946.74 192.12 L 1946.16 192.03 C 1931.85 178.75 1904.07 187.85 1900.22 207.20 Z" />
<path fill="#afafaf" opacity="1.00" d=" M 2009.16 161.72 C 2022.08 160.88 2035.02 160.27 2047.94 159.30 C 2047.56 161.06 2047.09 162.80 2046.69 164.54 C 2042.26 185.62 2037.33 206.66 2033.78 227.90 C 2047.30 227.41 2060.83 227.74 2074.36 227.57 C 2073.52 229.16 2072.70 230.75 2071.82 232.31 C 2067.27 239.48 2064.71 248.15 2059.77 254.81 C 2036.45 255.90 2012.99 254.55 1989.63 255.51 C 1996.13 224.24 2002.59 192.97 2009.16 161.72 Z" />
<path fill="#afafaf" opacity="1.00" d=" M 2222.04 160.85 C 2234.33 160.08 2246.66 159.55 2258.98 159.05 C 2258.54 160.81 2258.08 162.56 2257.66 164.32 C 2251.05 194.48 2245.06 224.78 2238.65 254.98 C 2226.38 255.61 2214.09 254.78 2201.82 255.41 C 2195.01 243.06 2187.96 230.84 2181.29 218.43 C 2179.87 215.39 2178.23 212.45 2176.26 209.74 C 2172.84 224.67 2170.08 239.74 2166.73 254.69 C 2156.69 255.56 2146.59 255.47 2136.59 256.56 C 2134.27 256.86 2131.97 256.94 2129.69 257.01 C 2136.37 224.83 2142.98 192.63 2149.81 160.48 C 2162.15 160.53 2174.49 160.35 2186.82 160.58 C 2187.59 162.14 2188.41 163.70 2189.22 165.27 C 2197.09 178.40 2203.85 192.37 2212.81 204.75 C 2213.11 202.91 2213.48 201.08 2213.77 199.23 C 2216.37 186.46 2218.50 173.21 2222.04 160.85 Z" />
<path fill="#afafaf" opacity="1.00" d=" M 901.28 174.27 C 921.54 156.19 951.36 157.53 976.41 161.98 C 976.09 163.37 975.77 164.75 975.45 166.13 C 973.55 173.35 972.38 180.73 970.68 188.00 C 958.64 186.21 945.72 182.03 933.87 186.65 C 929.03 188.82 932.74 194.11 936.67 194.45 C 947.92 198.45 960.51 202.30 968.06 212.15 C 973.84 225.66 965.58 241.54 953.25 248.12 C 933.07 259.47 908.92 257.24 886.72 255.85 C 884.89 255.70 883.10 255.33 881.33 254.94 C 881.17 253.84 881.02 252.75 880.88 251.66 C 883.02 243.83 884.25 235.79 886.10 227.89 C 900.66 227.90 918.87 237.10 931.02 225.91 C 925.08 217.06 910.58 217.53 901.95 210.74 C 887.65 203.55 890.20 183.21 901.28 174.27 Z" />
<path fill="#afafaf" opacity="1.00" d=" M 1345.49 186.55 C 1360.63 156.30 1400.53 156.46 1429.31 161.93 C 1429.10 162.78 1428.68 164.48 1428.48 165.33 C 1426.70 172.84 1425.22 180.43 1423.68 188.00 C 1411.62 186.26 1398.71 182.01 1386.84 186.64 C 1381.98 188.85 1385.71 194.07 1389.64 194.46 C 1400.87 198.45 1413.41 202.31 1421.00 212.11 C 1425.87 223.22 1420.87 236.51 1412.00 244.06 C 1391.58 260.04 1363.82 257.37 1339.56 255.80 C 1337.50 255.63 1335.48 255.25 1333.47 254.90 C 1333.34 250.84 1336.81 246.10 1334.80 242.51 C 1336.34 239.72 1337.53 236.73 1338.03 233.58 C 1338.35 231.73 1338.65 229.88 1339.02 228.04 C 1353.56 228.04 1371.00 236.80 1383.62 226.59 C 1383.84 226.20 1384.28 225.43 1384.49 225.05 C 1376.21 217.79 1364.02 216.94 1354.81 210.74 C 1347.99 206.49 1343.35 198.78 1345.36 190.56 C 1345.44 189.23 1345.50 187.88 1345.49 186.55 Z" />
<path fill="#afafaf" opacity="1.00" d=" M 1664.75 161.79 C 1677.65 161.02 1690.55 160.35 1703.44 159.44 C 1703.23 160.32 1702.80 162.09 1702.59 162.98 C 1698.12 182.94 1694.13 203.01 1690.02 223.04 C 1688.84 226.76 1691.62 230.56 1695.55 230.45 C 1700.36 230.89 1705.11 227.87 1706.05 223.00 C 1710.45 202.66 1714.57 182.26 1718.81 161.89 C 1731.44 160.86 1744.11 160.52 1756.73 159.36 C 1756.44 161.16 1756.03 162.95 1755.59 164.72 C 1750.54 185.98 1747.09 207.63 1741.71 228.81 C 1730.88 259.92 1689.60 262.45 1663.06 252.58 C 1653.42 247.90 1649.41 236.37 1651.39 226.25 C 1655.64 204.73 1660.18 183.25 1664.75 161.79 Z" />
<path fill="#afafaf" opacity="1.00" d=" M 2094.08 161.88 C 2106.94 161.13 2119.79 160.33 2132.67 159.92 C 2132.21 161.75 2131.77 163.58 2131.33 165.41 C 2124.83 195.09 2118.96 224.91 2112.60 254.62 C 2101.96 255.12 2091.32 255.72 2080.74 256.79 C 2078.50 257.03 2076.28 257.17 2074.07 257.24 C 2075.58 251.29 2076.47 245.19 2078.04 239.25 L 2076.78 238.84 C 2077.91 236.81 2078.90 234.67 2079.45 232.39 C 2084.15 208.85 2089.09 185.35 2094.08 161.88 Z" />
<path fill="#afafaf" opacity="1.00" d=" M 2349.20 186.48 C 2364.68 156.57 2404.25 156.29 2433.14 161.96 C 2432.99 162.70 2432.69 164.17 2432.54 164.91 C 2430.54 172.52 2429.28 180.29 2427.62 187.98 C 2415.52 186.24 2402.55 182.01 2390.65 186.66 C 2385.99 189.04 2389.71 194.06 2393.60 194.48 C 2404.83 198.45 2417.31 202.37 2424.96 212.08 C 2430.74 225.56 2422.54 241.44 2410.24 248.05 C 2390.02 259.51 2365.74 257.25 2343.47 255.81 C 2341.42 255.63 2339.39 255.25 2337.40 254.92 C 2337.16 250.85 2340.83 246.07 2338.68 242.47 C 2340.25 239.72 2341.49 236.75 2341.99 233.59 C 2342.28 231.74 2342.56 229.88 2342.89 228.04 C 2357.59 227.94 2375.84 237.30 2388.11 225.90 C 2381.49 217.14 2367.67 217.40 2358.81 210.76 C 2351.98 206.60 2347.07 198.74 2349.29 190.56 C 2349.35 189.20 2349.32 187.83 2349.20 186.48 Z" />
<path fill="#afafaf" opacity="1.00" d=" M 677.79 255.51 C 684.43 223.81 690.85 192.07 697.66 160.41 C 719.92 160.54 742.18 160.48 764.44 160.44 C 764.58 162.09 764.70 163.75 764.73 165.42 C 764.60 172.21 766.00 178.92 765.81 185.71 C 753.92 185.75 742.03 185.48 730.15 185.83 C 729.50 188.92 729.00 192.03 728.67 195.17 C 736.27 194.94 743.86 194.66 751.47 194.64 C 751.26 195.46 750.84 197.12 750.62 197.95 C 748.80 204.85 747.84 211.93 746.02 218.83 C 738.45 218.94 730.86 218.46 723.31 219.09 C 722.51 222.45 721.91 225.84 721.54 229.27 C 723.77 229.15 726.01 229.04 728.26 228.87 C 738.73 228.43 749.22 228.77 759.71 228.70 C 759.02 230.25 758.28 231.77 757.40 233.22 C 753.45 240.26 750.51 247.81 746.69 254.92 C 723.74 255.74 700.74 254.63 677.79 255.51 Z" />
<path fill="#afafaf" opacity="1.00" d=" M 764.69 233.36 C 779.85 208.89 795.49 184.70 811.02 160.46 C 826.26 160.59 841.51 160.28 856.76 160.62 C 856.86 161.55 857.06 163.43 857.17 164.36 C 863.51 194.51 869.81 224.67 876.50 254.74 C 864.38 255.56 852.22 255.88 840.13 257.17 C 838.34 257.34 836.56 257.41 834.78 257.46 C 834.26 253.52 833.42 249.62 833.15 245.65 C 832.94 243.94 832.62 242.24 832.27 240.56 C 821.56 240.62 810.83 240.35 800.12 240.71 C 796.96 246.05 793.86 251.43 790.68 256.77 C 779.05 257.09 767.50 255.33 755.87 255.29 L 754.60 255.18 C 753.44 255.04 752.30 254.89 751.17 254.74 C 755.64 247.59 760.39 240.61 764.69 233.36 M 811.98 216.09 C 814.71 216.24 817.45 216.31 820.19 216.26 C 823.59 216.18 827.00 216.20 830.41 216.25 C 829.49 211.35 829.79 206.26 828.46 201.46 L 828.82 200.92 C 828.46 196.86 828.21 192.78 827.86 188.72 C 821.11 196.70 817.34 207.06 811.98 216.09 Z" />
<path fill="#afafaf" opacity="1.00" d=" M 977.96 186.16 C 984.80 179.77 987.30 168.55 992.72 160.41 C 1018.65 160.58 1044.59 160.41 1070.53 160.50 C 1070.16 162.09 1069.78 163.68 1069.38 165.26 C 1067.50 172.69 1066.26 180.27 1064.56 187.75 C 1057.31 187.92 1050.06 187.68 1042.81 187.87 C 1037.82 209.74 1033.78 231.83 1028.86 253.72 C 1018.29 255.22 1007.55 255.15 996.96 256.57 C 994.75 256.92 992.52 256.98 990.30 257.01 C 994.74 236.43 998.81 215.77 1003.27 195.20 C 1003.87 192.77 1004.44 190.34 1005.00 187.91 C 998.87 187.72 992.75 187.74 986.63 187.92 C 983.74 187.57 980.13 189.08 977.85 186.75 L 977.96 186.16 Z" />
<path fill="#afafaf" opacity="1.00" d=" M 1271.25 160.52 C 1293.56 160.43 1315.89 160.48 1338.21 160.49 C 1338.24 161.11 1338.32 162.33 1338.35 162.94 C 1338.49 170.55 1339.17 178.13 1339.84 185.70 C 1327.90 185.76 1315.95 185.47 1304.02 185.83 C 1303.25 188.92 1302.75 192.07 1302.50 195.25 C 1304.69 195.09 1306.90 194.92 1309.13 194.78 C 1314.42 194.48 1319.73 194.67 1325.05 194.63 C 1324.71 196.30 1324.40 197.97 1324.04 199.64 C 1322.43 205.97 1321.28 212.40 1319.85 218.78 C 1312.28 218.93 1304.71 218.60 1297.15 218.95 C 1296.26 222.33 1295.67 225.79 1295.42 229.28 C 1297.61 229.14 1299.82 229.00 1302.04 228.87 C 1312.43 228.55 1322.83 228.79 1333.23 228.74 C 1332.47 230.39 1331.71 232.03 1330.92 233.65 C 1327.30 240.63 1323.84 247.69 1320.52 254.81 C 1297.56 255.90 1274.51 254.53 1251.53 255.55 C 1256.79 227.82 1263.99 200.16 1268.10 172.39 C 1269.09 170.47 1269.83 168.43 1270.20 166.30 C 1270.52 164.37 1270.86 162.44 1271.25 160.52 Z" />
<path fill="#afafaf" opacity="1.00" d=" M 1445.28 160.63 C 1471.33 160.28 1497.39 160.56 1523.45 160.49 C 1523.24 161.36 1522.81 163.11 1522.60 163.98 C 1520.68 171.85 1519.17 179.81 1517.55 187.74 C 1510.30 187.92 1503.04 187.68 1495.79 187.87 C 1490.76 209.73 1486.67 231.80 1481.85 253.72 C 1471.24 255.22 1460.47 255.16 1449.85 256.58 C 1447.65 256.92 1445.43 256.98 1443.24 257.01 C 1447.79 236.07 1451.85 215.02 1456.48 194.09 C 1456.99 192.04 1457.46 189.97 1457.95 187.91 C 1451.82 187.71 1445.69 187.74 1439.57 187.92 C 1436.68 187.58 1433.07 189.07 1430.78 186.76 L 1430.90 186.19 C 1437.52 179.72 1440.45 168.95 1445.28 160.63 Z" />
<path fill="#afafaf" opacity="1.00" d=" M 1581.18 160.51 C 1603.48 160.44 1625.79 160.49 1648.09 160.48 C 1648.13 161.42 1648.22 163.29 1648.26 164.22 C 1648.57 171.39 1649.01 178.55 1649.79 185.68 C 1637.84 185.78 1625.89 185.49 1613.94 185.81 C 1613.14 188.88 1612.64 192.02 1612.44 195.19 C 1620.02 194.80 1627.60 194.72 1635.20 194.66 C 1634.79 196.26 1634.40 197.86 1633.99 199.45 C 1632.26 205.82 1631.30 212.36 1629.79 218.78 C 1622.22 218.92 1614.65 218.63 1607.09 218.92 C 1606.20 222.28 1605.61 225.71 1605.38 229.17 C 1618.03 228.98 1630.70 229.43 1643.36 228.89 C 1642.77 229.97 1642.19 231.04 1641.63 232.12 C 1637.74 239.60 1634.06 247.18 1630.47 254.79 C 1607.49 255.94 1584.41 254.49 1561.42 255.57 C 1568.00 223.88 1574.60 192.20 1581.18 160.51 Z" />
<path fill="#afafaf" opacity="1.00" d=" M 1753.21 257.73 C 1760.26 225.34 1766.60 192.79 1773.66 160.41 C 1791.74 160.72 1809.85 160.11 1827.92 160.74 C 1838.51 161.44 1850.52 163.36 1857.67 172.04 C 1867.29 188.58 1853.32 208.33 1836.80 213.18 C 1840.69 226.81 1846.51 239.85 1850.05 253.59 C 1836.96 254.83 1823.85 255.87 1810.83 257.69 L 1810.15 257.80 C 1807.81 248.98 1805.81 240.08 1803.38 231.29 C 1802.56 226.52 1802.10 221.46 1799.45 217.28 C 1796.61 229.70 1794.51 242.31 1791.46 254.68 C 1779.50 256.70 1766.90 255.99 1754.75 257.63 C 1754.37 257.65 1753.59 257.71 1753.21 257.73 M 1806.06 186.03 C 1804.10 193.70 1802.80 201.52 1801.12 209.25 C 1803.43 209.41 1805.77 209.33 1808.12 209.13 L 1808.29 208.29 C 1816.04 207.61 1822.13 199.99 1820.40 192.25 C 1818.05 186.65 1811.26 186.30 1806.06 186.03 Z" />
<path fill="#afafaf" opacity="1.00" d=" M 2275.19 160.51 C 2297.49 160.44 2319.80 160.48 2342.11 160.49 C 2342.15 161.42 2342.23 163.29 2342.27 164.23 C 2342.58 171.39 2343.02 178.55 2343.80 185.69 C 2331.84 185.78 2319.89 185.48 2307.95 185.81 C 2307.14 188.90 2306.64 192.06 2306.45 195.25 C 2308.61 195.08 2310.80 194.91 2313.01 194.77 C 2318.34 194.48 2323.68 194.67 2329.03 194.64 C 2328.66 196.27 2328.30 197.89 2327.96 199.52 C 2326.32 205.88 2325.27 212.37 2323.81 218.78 C 2316.23 218.92 2308.66 218.62 2301.09 218.92 C 2300.20 222.32 2299.61 225.79 2299.38 229.29 C 2301.50 229.14 2303.67 228.99 2305.85 228.85 C 2316.29 228.57 2326.75 228.79 2337.21 228.74 C 2336.43 230.37 2335.66 231.99 2334.88 233.60 C 2330.89 240.49 2328.34 248.47 2323.78 254.82 C 2301.06 255.91 2278.19 254.50 2255.44 255.57 C 2262.00 223.88 2268.63 192.20 2275.19 160.51 Z" />
<path fill="#afafaf" opacity="1.00" d=" M 446.49 201.60 C 450.45 191.30 453.53 179.97 458.00 170.30 C 461.98 180.36 464.13 192.17 468.14 202.65 C 479.43 202.59 490.70 203.53 502.00 203.39 C 493.12 210.58 482.98 216.08 474.06 223.19 C 476.87 234.21 480.39 245.07 483.72 255.95 C 474.01 249.83 465.65 241.39 455.94 235.54 C 446.35 241.24 437.72 248.46 428.08 254.09 C 430.86 243.23 435.96 233.02 438.76 222.19 C 430.38 214.77 420.86 208.27 412.03 201.23 C 423.51 201.25 435.00 201.67 446.49 201.60 Z" />
<path fill="#afafaf" opacity="1.00" d=" M 349.57 251.89 C 352.96 260.45 354.54 269.63 357.82 278.21 C 366.91 280.44 376.69 278.93 386.05 279.56 C 378.81 285.60 370.11 289.92 363.06 296.14 C 365.22 305.17 368.41 313.97 370.74 322.98 C 363.26 317.48 355.91 311.79 348.70 305.96 C 340.35 310.49 332.90 316.52 325.00 321.78 C 327.33 312.69 331.55 304.19 333.98 295.15 C 327.00 288.85 318.86 283.86 311.95 277.50 C 321.28 277.65 330.62 278.88 339.95 278.19 C 343.67 269.65 346.22 260.60 349.57 251.89 Z" />
<path fill="#afafaf" opacity="1.00" d=" M 254.47 303.08 C 257.12 310.16 258.42 317.68 261.26 324.69 C 268.77 325.45 276.34 325.09 283.88 325.37 C 277.78 329.61 271.36 333.43 265.52 338.02 C 266.38 345.52 269.62 352.68 271.51 360.03 C 265.14 355.87 259.66 349.87 252.98 346.57 C 246.71 350.20 241.03 354.79 234.98 358.77 C 236.76 351.67 239.88 345.00 241.94 337.99 C 237.15 332.29 229.72 329.27 224.88 323.57 C 232.23 324.39 239.65 324.33 247.03 324.16 C 249.38 317.09 252.05 310.13 254.47 303.08 Z" />
<path fill="#afafaf" opacity="1.00" d=" M 161.94 350.21 C 165.41 344.64 166.03 337.57 169.33 331.88 C 171.63 337.98 172.28 344.87 175.41 350.55 C 181.82 351.87 188.45 351.16 194.96 351.38 C 189.79 355.61 183.84 358.75 178.67 362.97 C 180.07 369.39 182.61 375.50 183.93 381.94 C 178.29 378.57 173.80 373.42 168.01 370.42 C 162.11 373.34 157.36 378.21 151.39 381.08 C 153.79 374.85 156.10 368.57 158.07 362.19 C 152.93 358.29 147.66 354.53 142.85 350.22 C 149.21 350.11 155.60 350.82 161.94 350.21 Z" />
<path fill="#afafaf" opacity="1.00" d=" M 75.61 352.96 C 77.93 358.18 78.82 363.89 80.88 369.21 C 86.53 369.86 92.28 369.06 97.89 370.12 C 93.57 373.50 88.75 376.18 84.41 379.52 C 84.53 385.39 87.60 390.97 88.82 396.73 C 84.12 393.47 79.99 389.41 75.07 386.46 C 69.69 388.59 65.35 393.04 60.26 395.91 C 62.15 390.32 64.47 384.88 66.08 379.20 C 61.38 375.67 56.67 372.17 52.18 368.38 C 57.98 368.16 64.06 370.22 69.67 368.59 C 72.29 363.65 73.50 358.12 75.61 352.96 Z" />
</g>
</svg>
