<?xml version="1.0" encoding="UTF-8" ?>
<!DOCTYPE svg PUBLIC "-//W3C//DTD SVG 1.1//EN" "http://www.w3.org/Graphics/SVG/1.1/DTD/svg11.dtd">
<svg width="465pt" height="104pt" viewBox="0 0 465 104" version="1.1" xmlns="http://www.w3.org/2000/svg">
<g id="#2b378aff">
<path fill="#939393" opacity="1.00" d=" M 413.01 4.85 C 420.09 2.51 427.61 2.06 435.01 1.83 C 440.36 2.04 445.82 2.30 450.98 3.87 C 454.62 4.92 457.61 7.58 459.48 10.83 C 459.79 13.15 459.92 15.49 460.03 17.82 C 453.08 17.89 446.12 17.84 439.17 17.85 C 438.77 17.85 437.96 17.85 437.56 17.85 L 437.04 16.68 C 436.14 13.21 431.86 13.53 429.05 13.74 C 426.71 13.61 425.26 15.50 423.89 17.05 C 425.01 18.09 426.14 19.15 427.40 20.03 C 434.11 21.65 440.90 23.05 447.37 25.50 C 451.06 26.86 454.19 29.45 456.36 32.72 C 456.66 35.90 456.64 39.23 455.25 42.18 C 452.74 48.15 446.89 51.94 440.92 53.86 C 436.15 55.65 430.98 55.11 426.00 55.16 C 308.33 55.15 190.66 55.16 72.99 55.16 C 66.67 55.15 60.35 55.23 54.04 54.99 L 53.08 54.97 C 53.53 51.77 54.14 48.60 54.61 45.40 C 56.24 45.14 57.88 44.90 59.50 44.60 C 61.24 42.32 61.28 39.34 61.90 36.65 C 62.55 32.67 63.24 28.70 63.83 24.71 C 57.93 31.93 52.64 39.64 47.09 47.14 C 44.45 47.18 41.80 47.21 39.16 47.08 C 38.70 47.04 37.78 46.98 37.32 46.95 C 35.23 41.74 32.91 36.63 30.86 31.41 C 29.92 29.09 28.82 26.83 27.59 24.65 C 26.39 31.11 25.19 37.57 24.20 44.07 C 25.92 44.50 27.64 44.89 29.37 45.27 C 28.86 48.53 28.34 51.79 27.75 55.03 C 19.67 55.24 11.58 55.27 3.50 54.90 C 3.60 54.40 3.79 53.42 3.89 52.93 C 4.42 50.24 4.85 47.54 5.40 44.86 C 7.32 44.72 9.33 45.02 11.17 44.37 C 12.80 42.67 12.61 40.07 13.16 37.93 C 14.26 30.06 16.43 22.32 16.82 14.36 C 14.89 13.83 12.90 13.64 10.90 13.54 C 11.49 10.23 12.23 6.94 12.49 3.58 C 22.02 3.98 31.58 3.85 41.11 3.66 C 43.96 10.48 46.68 17.38 49.88 24.05 C 55.02 17.40 60.16 10.72 64.82 3.72 C 74.96 3.95 85.12 3.65 95.27 3.89 C 94.76 7.15 94.23 10.41 93.65 13.66 C 91.63 13.71 89.60 13.77 87.58 13.83 C 86.05 18.12 85.55 22.65 84.75 27.11 C 83.78 32.86 82.54 38.57 81.91 44.38 C 83.93 44.66 85.96 44.91 88.00 44.95 C 196.67 44.96 305.33 44.91 414.00 44.95 C 418.73 44.92 423.48 45.16 428.19 44.56 C 429.39 44.33 431.44 43.61 430.94 41.99 C 430.85 40.13 428.89 39.33 427.45 38.67 C 421.33 36.42 414.96 34.79 409.01 32.08 C 405.07 30.28 401.50 27.26 399.96 23.11 C 399.64 20.19 399.83 17.17 401.02 14.44 C 403.12 9.46 408.09 6.50 413.01 4.85 Z" />
<path fill="#939393" opacity="1.00" d=" M 130.32 11.26 C 137.80 11.34 145.29 11.09 152.77 11.38 C 157.87 11.66 163.94 13.63 165.65 19.00 C 166.02 22.77 165.90 26.72 164.20 30.17 C 161.71 35.67 156.01 39.30 150.06 39.82 C 141.83 40.69 133.53 40.14 125.27 40.13 C 125.47 38.70 125.68 37.27 125.90 35.83 C 125.95 35.48 126.07 34.76 126.13 34.40 C 127.35 34.01 129.75 34.76 130.00 32.98 C 131.12 27.82 132.00 22.60 132.70 17.37 C 131.83 17.33 130.10 17.25 129.23 17.21 C 129.60 15.22 129.96 13.24 130.32 11.26 M 144.42 19.26 C 143.39 23.78 142.69 28.37 142.06 32.95 C 142.84 33.08 144.42 33.34 145.21 33.46 C 146.86 33.00 148.92 32.82 149.81 31.10 C 151.57 27.95 151.58 24.21 151.96 20.71 C 151.16 19.71 150.53 18.16 149.01 18.29 C 147.53 18.43 145.18 17.49 144.42 19.26 Z" />
<path fill="#939393" opacity="1.00" d=" M 170.32 11.26 C 176.63 11.24 182.95 11.28 189.27 11.23 C 189.14 11.97 188.89 13.45 188.76 14.19 C 188.59 15.19 188.43 16.20 188.26 17.21 C 187.42 17.23 185.74 17.27 184.90 17.29 C 183.88 21.45 182.80 25.67 182.74 29.98 C 182.47 31.76 183.91 32.82 185.20 33.69 C 186.86 33.71 188.61 33.91 190.21 33.33 C 192.12 32.55 192.94 30.47 193.47 28.64 C 194.37 24.94 194.87 21.17 195.47 17.42 C 194.35 17.25 193.23 17.08 192.11 16.91 C 192.41 15.24 192.70 13.57 192.98 11.89 L 193.09 11.27 C 197.69 11.24 202.29 11.26 206.89 11.25 C 206.77 12.01 206.54 13.52 206.42 14.27 C 206.27 15.23 206.12 16.19 205.98 17.15 C 204.78 17.23 203.59 17.31 202.40 17.39 C 201.20 22.34 200.80 27.45 199.50 32.37 C 198.26 36.65 194.18 39.43 189.98 40.30 C 185.30 41.16 180.46 40.80 175.85 39.71 C 173.29 38.32 170.52 36.19 170.55 32.97 C 170.44 27.69 172.25 22.62 172.66 17.38 C 171.80 17.34 170.08 17.24 169.23 17.19 C 169.59 15.22 169.95 13.24 170.32 11.26 Z" />
<path fill="#939393" opacity="1.00" d=" M 210.32 11.26 C 216.71 11.28 223.09 11.20 229.48 11.30 C 229.32 12.21 229.15 13.11 228.99 14.02 C 228.87 14.74 228.62 16.18 228.49 16.90 C 227.18 17.13 225.88 17.35 224.58 17.57 C 223.66 22.79 222.73 28.01 221.82 33.23 C 222.65 33.24 224.32 33.26 225.16 33.27 C 226.79 33.27 228.43 33.31 230.06 33.10 C 231.26 32.25 231.78 30.83 232.42 29.58 C 234.32 29.53 236.23 29.52 238.14 29.51 C 237.97 30.32 237.65 31.95 237.48 32.76 C 236.98 35.25 236.48 37.75 236.00 40.25 C 227.01 40.29 218.03 40.27 209.05 40.27 C 208.08 40.26 206.14 40.26 205.17 40.26 C 205.53 38.31 205.87 36.36 206.22 34.42 C 207.43 34.37 208.60 34.16 209.73 33.78 C 211.07 28.38 211.86 22.84 212.66 17.34 C 211.82 17.25 210.13 17.06 209.28 16.97 C 209.41 16.26 209.67 14.84 209.80 14.12 C 209.93 13.41 210.19 11.97 210.32 11.26 Z" />
<path fill="#939393" opacity="1.00" d=" M 244.10 11.26 C 255.44 11.24 266.78 11.27 278.12 11.25 C 278.02 11.98 277.83 13.45 277.74 14.18 C 277.41 16.75 277.05 19.32 276.67 21.89 C 275.50 21.90 274.34 21.90 273.19 21.90 C 272.56 21.90 271.32 21.90 270.70 21.90 C 270.62 20.77 270.54 19.65 270.48 18.52 C 268.94 18.38 267.40 18.25 265.88 18.12 C 264.91 23.46 263.88 28.79 263.17 34.17 C 264.10 34.17 265.96 34.16 266.89 34.16 C 266.83 34.90 266.69 36.39 266.63 37.14 C 266.51 38.16 266.39 39.18 266.28 40.21 C 259.48 40.33 252.69 40.31 245.90 40.11 C 246.28 38.17 246.65 36.22 247.04 34.29 C 248.39 34.25 249.75 34.21 251.11 34.17 C 251.88 30.45 252.49 26.70 253.20 22.97 C 253.48 21.33 253.71 19.69 253.95 18.05 C 252.47 18.20 250.97 18.26 249.52 18.57 C 248.74 19.60 248.15 20.74 247.51 21.85 C 246.89 21.85 245.67 21.86 245.06 21.87 C 244.27 21.87 242.68 21.88 241.89 21.88 C 242.59 18.33 243.33 14.79 244.10 11.26 Z" />
<path fill="#939393" opacity="1.00" d=" M 282.06 11.28 C 289.38 11.26 296.70 11.21 304.02 11.28 C 307.86 11.38 312.31 12.42 314.29 16.08 C 314.26 17.93 314.48 19.93 313.54 21.61 C 312.21 23.91 309.65 24.99 307.47 26.29 C 308.47 28.28 309.44 30.30 310.58 32.22 C 311.27 33.62 312.66 34.41 313.91 35.25 C 313.83 35.72 313.67 36.66 313.59 37.13 C 313.41 38.17 313.23 39.21 313.05 40.25 C 307.36 40.31 301.67 40.26 295.98 40.14 C 296.38 38.51 296.79 36.88 297.26 35.27 C 297.50 35.10 297.97 34.77 298.21 34.60 L 298.93 34.14 C 298.75 33.49 298.39 32.20 298.21 31.55 C 297.73 30.67 297.27 29.77 296.82 28.88 C 296.08 28.86 294.60 28.82 293.86 28.80 C 293.54 30.64 293.22 32.48 292.90 34.32 C 293.40 34.52 294.38 34.91 294.87 35.11 C 294.64 36.80 294.42 38.49 294.20 40.19 C 288.42 40.34 282.63 40.29 276.86 40.11 C 277.16 38.40 277.45 36.70 277.74 34.99 C 278.56 34.92 280.21 34.77 281.03 34.70 C 282.61 28.81 283.50 22.75 284.40 16.73 C 283.61 16.65 282.02 16.50 281.23 16.43 C 281.48 14.92 281.72 13.41 281.97 11.89 L 282.06 11.28 M 295.96 17.03 C 295.63 19.02 295.32 21.01 295.04 23.00 C 296.67 22.70 298.39 22.62 299.91 21.87 C 301.17 20.96 300.77 19.29 301.03 17.97 C 299.36 17.56 297.65 17.28 295.96 17.03 Z" />
<path fill="#939393" opacity="1.00" d=" M 327.17 11.26 C 334.02 11.25 340.87 11.26 347.72 11.25 C 347.95 12.33 348.18 13.41 348.41 14.49 C 349.73 20.89 350.93 27.31 352.39 33.68 C 353.06 33.85 354.40 34.19 355.07 34.37 C 354.86 36.33 354.64 38.29 354.41 40.24 C 348.42 40.30 342.42 40.33 336.43 40.08 C 336.54 39.27 336.76 37.65 336.88 36.85 L 337.07 35.82 C 337.15 35.55 337.31 35.02 337.39 34.75 C 338.56 34.16 339.72 33.57 340.90 32.98 C 336.45 32.61 331.99 32.69 327.54 32.93 C 328.15 33.35 329.36 34.18 329.97 34.60 C 329.70 36.48 329.42 38.37 329.15 40.26 C 324.35 40.38 319.55 40.09 314.76 40.08 C 314.89 39.37 315.16 37.94 315.29 37.23 C 315.46 36.31 315.63 35.39 315.81 34.47 C 317.73 34.24 319.77 33.63 320.69 31.76 C 323.65 26.97 326.68 22.22 329.34 17.26 C 328.53 17.26 326.90 17.26 326.09 17.26 C 326.45 15.26 326.80 13.26 327.17 11.26 M 332.48 26.21 C 334.68 26.24 336.89 26.27 339.10 26.29 C 338.42 23.83 337.86 21.34 337.30 18.85 C 335.34 21.06 333.99 23.70 332.48 26.21 Z" />
<path fill="#939393" opacity="1.00" d=" M 360.85 11.24 C 365.39 11.28 369.94 11.21 374.48 11.31 C 377.98 16.42 381.15 21.74 384.56 26.91 C 385.36 23.76 385.90 20.54 386.17 17.29 C 385.37 17.28 383.76 17.26 382.96 17.25 C 383.26 15.28 383.56 13.31 383.81 11.33 C 388.43 11.18 393.05 11.29 397.68 11.24 C 397.59 11.74 397.41 12.74 397.32 13.24 C 397.09 14.54 396.89 15.85 396.69 17.16 C 395.54 17.24 394.40 17.32 393.27 17.40 C 391.67 24.98 390.48 32.63 389.12 40.26 C 385.72 40.28 382.32 40.29 378.92 40.12 C 376.40 36.60 374.21 32.84 371.90 29.18 C 370.88 27.62 369.80 26.11 368.68 24.63 C 368.12 27.74 367.60 30.87 367.20 34.02 C 368.03 34.13 369.71 34.35 370.55 34.46 C 370.13 36.35 369.98 38.34 369.21 40.14 C 364.69 40.50 360.17 40.15 355.65 40.18 C 356.07 38.22 356.51 36.27 356.96 34.32 C 357.75 34.28 359.35 34.21 360.14 34.18 C 361.30 28.61 362.39 23.02 363.01 17.36 C 362.18 17.31 360.53 17.22 359.71 17.17 C 360.10 15.20 360.47 13.22 360.85 11.24 Z" />
</g>
<g id="#393e6499">
<path fill="#a2a2a2" opacity="0.60" d=" M 12.49 3.58 C 13.95 3.15 15.48 3.03 16.99 3.06 C 23.66 3.12 30.33 3.11 36.99 3.06 C 38.39 3.03 39.81 3.13 41.11 3.66 C 31.58 3.85 22.02 3.98 12.49 3.58 Z" />
</g>
<g id="#393e649a">
<path fill="#a2a2a2" opacity="0.60" d=" M 64.82 3.72 C 65.82 3.25 66.88 3.03 67.99 3.07 C 77.13 3.07 86.27 3.19 95.41 3.01 L 95.27 3.89 C 85.12 3.65 74.96 3.95 64.82 3.72 Z" />
</g>
<g id="#090c203d">
<path fill="#090c20" opacity="0.24" d=" M 95.41 3.01 C 95.57 4.01 95.73 5.02 95.89 6.02 C 96.48 6.18 97.67 6.50 98.27 6.66 C 97.71 9.90 97.80 13.39 96.40 16.40 C 94.50 16.95 92.41 16.80 90.59 17.58 C 89.51 19.17 89.33 21.16 88.97 23.00 C 87.87 30.10 86.51 37.16 85.24 44.23 C 116.16 44.55 147.09 44.22 178.02 44.40 C 179.79 44.46 181.55 44.17 183.26 43.71 C 180.54 42.92 177.40 42.40 175.85 39.71 C 180.46 40.80 185.30 41.16 189.98 40.30 C 194.18 39.43 198.26 36.65 199.50 32.37 C 200.80 27.45 201.20 22.34 202.40 17.39 C 203.59 17.31 204.78 17.23 205.98 17.15 C 206.12 16.19 206.27 15.23 206.42 14.27 C 207.27 14.24 208.95 14.16 209.80 14.12 C 209.67 14.84 209.41 16.26 209.28 16.97 C 210.13 17.06 211.82 17.25 212.66 17.34 C 210.98 17.63 209.04 17.75 208.63 19.76 C 207.53 20.23 206.23 20.33 205.33 21.17 C 203.72 26.56 204.02 32.47 201.58 37.62 C 199.56 41.35 195.36 42.72 191.59 43.95 C 193.38 44.15 195.18 44.34 196.99 44.38 C 271.99 44.31 347.00 44.38 422.00 44.34 C 424.06 44.36 426.12 44.45 428.19 44.56 C 423.48 45.16 418.73 44.92 414.00 44.95 C 305.33 44.91 196.67 44.96 88.00 44.95 C 85.96 44.91 83.93 44.66 81.91 44.38 C 82.54 38.57 83.78 32.86 84.75 27.11 C 85.55 22.65 86.05 18.12 87.58 13.83 C 89.60 13.77 91.63 13.71 93.65 13.66 C 94.23 10.41 94.76 7.15 95.27 3.89 L 95.41 3.01 Z" />
<path fill="#090c20" opacity="0.24" d=" M 191.94 14.03 C 192.20 13.50 192.72 12.43 192.98 11.89 C 192.70 13.57 192.41 15.24 192.11 16.91 C 193.23 17.08 194.35 17.25 195.47 17.42 C 194.64 17.56 192.99 17.84 192.16 17.97 C 191.83 18.39 191.16 19.21 190.83 19.63 C 189.71 20.36 187.61 20.30 187.43 21.95 C 186.54 25.83 186.11 29.81 185.20 33.69 C 183.91 32.82 182.47 31.76 182.74 29.98 C 182.80 25.67 183.88 21.45 184.90 17.29 C 185.74 17.27 187.42 17.23 188.26 17.21 C 188.43 16.20 188.59 15.19 188.76 14.19 C 189.56 14.15 191.15 14.07 191.94 14.03 Z" />
<path fill="#090c20" opacity="0.24" d=" M 396.69 17.16 C 396.89 15.85 397.09 14.54 397.32 13.24 C 398.55 13.64 399.78 14.04 401.02 14.44 C 399.83 17.17 399.64 20.19 399.96 23.11 C 399.59 22.03 399.23 20.95 398.88 19.87 C 397.88 20.49 396.02 20.51 395.99 22.04 C 394.44 29.00 393.57 36.10 392.07 43.08 C 388.57 43.15 385.07 43.18 381.58 42.87 C 380.93 41.72 380.02 40.82 378.92 40.12 C 382.32 40.29 385.72 40.28 389.12 40.26 C 390.48 32.63 391.67 24.98 393.27 17.40 C 394.40 17.32 395.54 17.24 396.69 17.16 Z" />
<path fill="#090c20" opacity="0.24" d=" M 228.99 14.02 C 229.79 14.04 231.38 14.09 232.18 14.12 C 232.04 16.09 231.77 18.05 231.33 19.98 C 230.07 20.19 228.82 20.40 227.57 20.61 C 226.87 24.85 226.25 29.11 225.16 33.27 C 224.32 33.26 222.65 33.24 221.82 33.23 C 222.73 28.01 223.66 22.79 224.58 17.57 C 225.88 17.35 227.18 17.13 228.49 16.90 C 228.62 16.18 228.87 14.74 228.99 14.02 Z" />
<path fill="#090c20" opacity="0.24" d=" M 144.42 19.26 C 145.18 17.49 147.53 18.43 149.01 18.29 C 150.53 18.16 151.16 19.71 151.96 20.71 C 150.48 20.99 149.00 21.27 147.53 21.55 C 146.83 25.53 146.03 29.50 145.21 33.46 C 144.42 33.34 142.84 33.08 142.06 32.95 C 142.69 28.37 143.39 23.78 144.42 19.26 Z" />
<path fill="#090c20" opacity="0.24" d=" M 265.88 18.12 C 267.40 18.25 268.94 18.38 270.48 18.52 C 268.02 23.37 267.34 28.82 266.89 34.16 C 265.96 34.16 264.10 34.17 263.17 34.17 C 263.88 28.79 264.91 23.46 265.88 18.12 Z" />
<path fill="#090c20" opacity="0.24" d=" M 27.59 24.65 C 28.82 26.83 29.92 29.09 30.86 31.41 C 28.67 35.07 28.21 39.58 28.15 43.74 C 28.47 43.98 29.13 44.46 29.46 44.70 C 29.53 46.58 29.98 48.26 32.21 48.26 C 31.96 51.53 31.45 54.78 30.82 58.00 C 22.96 58.15 15.10 58.13 7.24 58.02 C 7.33 55.42 4.98 55.67 3.10 55.51 C 3.36 54.65 3.63 53.79 3.89 52.93 C 3.79 53.42 3.60 54.40 3.50 54.90 C 11.58 55.27 19.67 55.24 27.75 55.03 C 28.34 51.79 28.86 48.53 29.37 45.27 C 27.64 44.89 25.92 44.50 24.20 44.07 C 25.19 37.57 26.39 31.11 27.59 24.65 Z" />
</g>
<g id="#3e4180dd">
<path fill="#949494" opacity="0.87" d=" M 107.45 11.36 C 112.48 11.39 118.06 12.88 121.12 17.17 C 119.70 16.43 118.31 15.62 116.93 14.81 C 118.25 18.08 119.10 21.50 119.32 25.03 L 118.04 24.72 C 117.73 21.32 116.58 18.07 114.88 15.11 C 114.07 15.50 113.26 15.89 112.45 16.27 C 111.71 20.30 108.72 24.96 111.76 28.67 C 110.73 29.13 109.70 29.56 108.66 29.97 C 106.22 27.76 103.11 26.61 100.15 25.31 C 100.09 27.76 100.02 30.22 99.96 32.68 C 98.56 32.85 97.16 33.00 95.75 33.13 C 95.48 31.95 95.21 30.77 94.96 29.58 C 95.84 30.40 96.72 31.21 97.60 32.03 C 97.97 29.42 98.37 26.81 98.84 24.21 C 97.70 23.56 96.57 22.91 95.44 22.26 C 95.26 24.59 95.11 26.91 94.98 29.24 L 94.21 29.25 C 93.93 26.07 94.30 22.88 95.53 19.93 C 96.83 20.92 98.13 21.91 99.43 22.89 C 101.19 18.70 104.14 15.24 107.06 11.83 L 107.45 11.36 M 107.42 14.42 C 104.53 16.75 101.56 20.02 101.20 23.81 C 103.12 25.47 105.70 26.03 108.01 26.97 C 108.91 23.07 109.72 19.14 110.85 15.30 C 109.71 15.01 108.61 14.44 107.42 14.42 Z" />
<path fill="#949494" opacity="0.87" d=" M 93.46 34.37 C 94.13 34.36 95.45 34.33 96.12 34.31 C 96.83 34.29 98.27 34.26 98.98 34.24 C 99.00 34.80 99.02 35.91 99.04 36.47 C 101.24 35.83 103.41 36.36 105.55 36.99 C 105.23 38.06 104.91 39.13 104.58 40.21 C 102.21 39.84 100.82 37.93 98.68 37.16 C 98.35 36.78 97.70 36.02 97.37 35.63 C 97.45 33.51 94.61 34.98 93.35 34.50 L 93.46 34.37 Z" />
<path fill="#949494" opacity="0.87" d=" M 17.31 87.41 C 18.95 87.23 19.74 86.09 21.50 86.39 C 21.04 86.74 20.13 87.44 19.67 87.79 C 20.23 87.80 21.36 87.81 21.92 87.82 C 21.20 88.74 20.09 89.08 18.58 88.84 C 17.17 88.65 16.42 89.06 16.36 90.06 L 14.68 89.89 C 14.32 89.99 13.60 90.20 13.24 90.30 L 13.18 91.04 C 11.50 90.99 9.89 91.68 8.57 92.41 C 7.45 92.61 6.33 92.80 5.20 93.00 L 5.21 92.21 C 8.25 91.15 11.04 89.48 14.13 88.83 C 14.67 87.73 16.47 88.26 17.31 87.41 Z" />
</g>
<g id="#0a0d2240">
<path fill="#0a0d22" opacity="0.25" d=" M 459.48 10.83 C 462.81 13.03 463.12 17.27 462.99 20.88 C 455.45 20.97 447.90 21.00 440.36 20.87 C 439.96 19.87 439.56 18.86 439.17 17.85 C 446.12 17.84 453.08 17.89 460.03 17.82 C 459.92 15.49 459.79 13.15 459.48 10.83 Z" />
</g>
<g id="#293688fe">
<path fill="#949494" opacity="1.00" d=" M 95.53 19.93 C 97.94 15.72 102.05 12.20 107.06 11.83 C 104.14 15.24 101.19 18.70 99.43 22.89 C 98.13 21.91 96.83 20.92 95.53 19.93 Z" />
</g>
<g id="#0a0c213f">
<path fill="#0a0c21" opacity="0.25" d=" M 280.97 14.09 C 281.22 13.54 281.72 12.44 281.97 11.89 C 281.72 13.41 281.48 14.92 281.23 16.43 C 282.02 16.50 283.61 16.65 284.40 16.73 C 283.52 16.82 281.76 16.99 280.89 17.08 C 280.37 19.66 280.01 22.28 279.75 24.90 C 277.88 24.94 276.01 24.97 274.15 25.01 C 273.82 23.97 273.50 22.94 273.19 21.90 C 274.34 21.90 275.50 21.90 276.67 21.89 C 277.05 19.32 277.41 16.75 277.74 14.18 C 278.55 14.16 280.16 14.11 280.97 14.09 Z" />
</g>
<g id="#2a388aff">
<path fill="#949494" opacity="1.00" d=" M 107.42 14.42 C 108.61 14.44 109.71 15.01 110.85 15.30 C 109.72 19.14 108.91 23.07 108.01 26.97 C 105.70 26.03 103.12 25.47 101.20 23.81 C 101.56 20.02 104.53 16.75 107.42 14.42 Z" />
<path fill="#949494" opacity="1.00" d=" M 112.45 16.27 C 113.26 15.89 114.07 15.50 114.88 15.11 C 116.58 18.07 117.73 21.32 118.04 24.72 L 118.17 25.60 C 116.03 26.61 113.90 27.66 111.76 28.67 C 108.72 24.96 111.71 20.30 112.45 16.27 Z" />
<path fill="#949494" opacity="1.00" d=" M 108.10 31.74 C 110.34 30.80 112.53 29.72 114.77 28.77 C 115.59 28.79 117.23 28.83 118.05 28.85 C 117.26 31.28 116.49 33.75 115.09 35.91 C 114.80 36.29 114.23 37.03 113.94 37.41 C 111.71 37.13 109.46 37.04 107.21 36.92 C 107.51 35.20 107.80 33.47 108.10 31.74 Z" />
</g>
<g id="#090c1f3b">
<path fill="#090c1f" opacity="0.23" d=" M 348.41 14.49 C 348.99 14.41 350.15 14.25 350.74 14.17 C 351.99 20.41 353.38 26.63 354.44 32.91 C 355.27 33.38 356.11 33.85 356.96 34.32 C 356.51 36.27 356.07 38.22 355.65 40.18 C 360.17 40.15 364.69 40.50 369.21 40.14 C 369.98 38.34 370.13 36.35 370.55 34.46 C 369.71 34.35 368.03 34.13 367.20 34.02 C 367.60 30.87 368.12 27.74 368.68 24.63 C 369.80 26.11 370.88 27.62 371.90 29.18 C 370.87 31.55 370.67 34.14 370.67 36.69 C 371.23 36.88 372.34 37.26 372.90 37.44 C 373.41 39.24 372.92 41.16 372.91 43.00 C 368.35 43.07 363.78 43.40 359.24 42.91 C 359.05 42.37 358.66 41.29 358.47 40.75 C 357.94 41.52 357.41 42.28 356.89 43.04 C 351.00 43.16 345.11 43.25 339.23 42.90 C 339.39 42.39 339.72 41.35 339.89 40.83 C 338.61 40.77 337.33 40.71 336.06 40.65 C 336.32 39.38 336.59 38.11 336.88 36.85 C 336.76 37.65 336.54 39.27 336.43 40.08 C 342.42 40.33 348.42 40.30 354.41 40.24 C 354.64 38.29 354.86 36.33 355.07 34.37 C 354.40 34.19 353.06 33.85 352.39 33.68 C 350.93 27.31 349.73 20.89 348.41 14.49 Z" />
<path fill="#090c1f" opacity="0.23" d=" M 293.86 28.80 C 294.60 28.82 296.08 28.86 296.82 28.88 C 297.27 29.77 297.73 30.67 298.21 31.55 C 296.77 32.57 296.77 33.59 298.21 34.60 C 297.97 34.77 297.50 35.10 297.26 35.27 C 296.79 36.88 296.38 38.51 295.98 40.14 C 301.67 40.26 307.36 40.31 313.05 40.25 C 313.23 39.21 313.41 38.17 313.59 37.13 L 315.29 37.23 C 315.16 37.94 314.89 39.37 314.76 40.08 C 319.55 40.09 324.35 40.38 329.15 40.26 C 329.42 38.37 329.70 36.48 329.97 34.60 C 329.36 34.18 328.15 33.35 327.54 32.93 C 331.99 32.69 336.45 32.61 340.90 32.98 C 339.72 33.57 338.56 34.16 337.39 34.75 C 337.31 35.02 337.15 35.55 337.07 35.82 C 334.91 35.92 332.75 36.02 330.60 36.14 C 331.20 36.45 332.40 37.08 333.00 37.39 C 332.74 39.30 332.46 41.21 332.12 43.11 C 327.56 43.12 322.99 43.17 318.43 43.02 L 318.14 41.35 C 317.85 41.26 317.29 41.09 317.00 41.00 C 316.72 41.09 316.17 41.27 315.89 41.36 L 315.66 43.08 C 310.12 43.14 304.59 43.18 299.06 43.00 C 299.25 42.44 299.62 41.31 299.81 40.75 C 298.07 40.59 296.83 41.15 296.80 43.08 C 291.32 43.14 285.83 43.18 280.36 43.01 C 280.27 40.96 278.49 40.54 276.86 40.11 C 282.63 40.29 288.42 40.34 294.20 40.19 C 294.42 38.49 294.64 36.80 294.87 35.11 C 294.38 34.91 293.40 34.52 292.90 34.32 C 293.22 32.48 293.54 30.64 293.86 28.80 Z" />
<path fill="#090c1f" opacity="0.23" d=" M 237.48 32.76 C 238.68 32.70 239.89 32.65 241.10 32.60 C 240.51 36.11 239.81 39.61 239.02 43.09 C 228.71 43.07 218.40 43.24 208.09 42.99 C 208.41 42.08 208.73 41.17 209.05 40.27 C 218.03 40.27 227.01 40.29 236.00 40.25 C 236.48 37.75 236.98 35.25 237.48 32.76 Z" />
<path fill="#090c1f" opacity="0.23" d=" M 266.63 37.14 C 267.49 37.14 269.22 37.14 270.08 37.14 C 269.79 39.13 269.48 41.12 269.13 43.10 C 262.55 43.10 255.96 43.19 249.38 43.02 C 249.31 40.96 247.52 40.55 245.90 40.11 C 252.69 40.31 259.48 40.33 266.28 40.21 C 266.39 39.18 266.51 38.16 266.63 37.14 Z" />
</g>
<g id="#090c203c">
<path fill="#090c20" opacity="0.24" d=" M 423.89 17.05 C 425.26 15.50 426.71 13.61 429.05 13.74 C 431.86 13.53 436.14 13.21 437.04 16.68 C 434.69 16.79 432.32 16.79 429.99 17.20 C 428.52 17.34 428.19 19.08 427.40 20.03 C 426.14 19.15 425.01 18.09 423.89 17.05 Z" />
<path fill="#090c20" opacity="0.24" d=" M 332.48 26.21 C 333.99 23.70 335.34 21.06 337.30 18.85 C 337.86 21.34 338.42 23.83 339.10 26.29 C 336.89 26.27 334.68 26.24 332.48 26.21 Z" />
</g>
<g id="#283689fe">
<path fill="#949494" opacity="1.00" d=" M 116.93 14.81 C 118.31 15.62 119.70 16.43 121.12 17.17 C 122.17 18.41 122.86 19.89 123.43 21.40 C 122.25 22.63 121.08 23.88 119.99 25.19 L 119.32 25.03 C 119.10 21.50 118.25 18.08 116.93 14.81 Z" />
</g>
<g id="#7b3943af">
<path fill="#636363" opacity="0.69" d=" M 122.17 15.99 C 123.34 16.43 125.85 15.20 125.94 17.02 L 126.84 17.30 C 126.84 17.90 126.84 19.11 126.84 19.72 C 125.55 20.23 125.61 22.22 124.20 22.73 C 122.81 23.58 121.41 24.41 119.99 25.19 C 121.08 23.88 122.25 22.63 123.43 21.40 C 124.12 20.40 125.64 19.53 125.70 18.31 C 124.69 17.41 123.55 17.12 122.11 17.02 L 122.17 15.99 Z" />
</g>
<g id="#0a0d213f">
<path fill="#0a0d21" opacity="0.25" d=" M 314.29 16.08 C 316.26 17.44 317.72 19.46 317.21 21.99 C 317.37 25.73 313.68 27.58 310.93 29.17 C 310.84 29.94 310.66 31.46 310.58 32.22 C 309.44 30.30 308.47 28.28 307.47 26.29 C 309.65 24.99 312.21 23.91 313.54 21.61 C 314.48 19.93 314.26 17.93 314.29 16.08 Z" />
</g>
<g id="#080b1e39">
<path fill="#080b1e" opacity="0.22" d=" M 295.96 17.03 C 297.65 17.28 299.36 17.56 301.03 17.97 C 300.77 19.29 301.17 20.96 299.91 21.87 C 298.39 22.62 296.67 22.70 295.04 23.00 C 295.32 21.01 295.63 19.02 295.96 17.03 Z" />
</g>
<g id="#090c213e">
<path fill="#090c21" opacity="0.24" d=" M 249.52 18.57 C 250.97 18.26 252.47 18.20 253.95 18.05 C 253.71 19.69 253.48 21.33 253.20 22.97 C 253.02 22.51 252.66 21.61 252.48 21.16 C 251.92 22.42 251.37 23.67 250.82 24.93 C 248.91 24.95 247.00 24.96 245.10 24.97 C 245.09 24.19 245.07 22.64 245.06 21.87 C 245.67 21.86 246.89 21.85 247.51 21.85 C 248.15 20.74 248.74 19.60 249.52 18.57 Z" />
<path fill="#090c21" opacity="0.24" d=" M 165.65 19.00 C 166.22 19.28 167.36 19.83 167.93 20.11 C 171.07 28.25 166.52 38.37 158.38 41.50 C 154.49 43.22 150.16 43.11 145.99 43.09 C 140.04 43.01 134.09 43.18 128.15 42.93 C 128.33 42.41 128.68 41.36 128.85 40.84 C 127.55 40.78 126.24 40.72 124.94 40.66 C 125.16 39.03 125.43 37.41 125.90 35.83 C 125.68 37.27 125.47 38.70 125.27 40.13 C 133.53 40.14 141.83 40.69 150.06 39.82 C 156.01 39.30 161.71 35.67 164.20 30.17 C 165.90 26.72 166.02 22.77 165.65 19.00 Z" />
</g>
<g id="#283588fe">
<path fill="#949494" opacity="1.00" d=" M 94.98 29.24 C 95.11 26.91 95.26 24.59 95.44 22.26 C 96.57 22.91 97.70 23.56 98.84 24.21 C 98.37 26.81 97.97 29.42 97.60 32.03 C 96.72 31.21 95.84 30.40 94.96 29.58 L 94.98 29.24 Z" />
</g>
<g id="#2f3686f9">
<path fill="#949494" opacity="0.98" d=" M 119.99 25.19 C 121.41 24.41 122.81 23.58 124.20 22.73 L 124.08 23.75 C 123.99 24.51 123.80 26.02 123.71 26.78 C 122.04 26.91 120.38 27.04 118.72 27.23 C 119.04 26.72 119.67 25.70 119.99 25.19 Z" />
</g>
<g id="#383c6caf">
<path fill="#a1a1a1" opacity="0.69" d=" M 124.08 23.75 C 124.73 26.64 124.38 29.67 123.02 32.31 C 123.15 30.82 123.30 29.33 123.44 27.84 C 122.00 28.16 120.57 28.49 119.14 28.82 C 118.32 31.41 117.51 34.00 116.80 36.63 C 118.94 35.56 120.99 34.32 122.96 32.95 C 120.34 37.31 115.96 40.32 110.93 41.11 C 111.72 40.06 112.50 39.01 113.28 37.96 C 110.87 37.91 108.45 37.96 106.04 38.08 C 106.34 39.06 106.64 40.04 106.94 41.02 C 106.34 40.87 105.12 40.57 104.51 40.43 L 104.58 40.21 C 104.91 39.13 105.23 38.06 105.55 36.99 C 103.41 36.36 101.24 35.83 99.04 36.47 C 99.02 35.91 99.00 34.80 98.98 34.24 C 99.36 34.23 100.12 34.22 100.49 34.21 C 102.23 35.06 103.97 35.89 105.84 36.42 C 106.27 34.98 106.71 33.53 107.20 32.11 L 108.10 31.74 C 107.80 33.47 107.51 35.20 107.21 36.92 C 109.46 37.04 111.71 37.13 113.94 37.41 C 115.32 39.16 117.38 36.42 115.09 35.91 C 116.49 33.75 117.26 31.28 118.05 28.85 C 117.23 28.83 115.59 28.79 114.77 28.77 C 116.06 28.20 117.37 27.67 118.72 27.23 C 120.38 27.04 122.04 26.91 123.71 26.78 C 123.80 26.02 123.99 24.51 124.08 23.75 Z" />
</g>
<g id="#0a0c213e">
<path fill="#0a0c21" opacity="0.24" d=" M 47.09 47.14 C 52.64 39.64 57.93 31.93 63.83 24.71 C 63.24 28.70 62.55 32.67 61.90 36.65 C 61.49 36.64 60.69 36.62 60.29 36.61 C 57.96 38.69 56.50 41.52 54.76 44.07 C 56.34 44.25 57.92 44.43 59.50 44.60 C 57.88 44.90 56.24 45.14 54.61 45.40 C 54.33 45.45 53.76 45.54 53.48 45.58 C 52.33 47.07 51.18 48.54 50.01 50.01 C 46.77 50.11 43.53 50.10 40.29 49.95 C 39.92 48.99 39.54 48.03 39.16 47.08 C 41.80 47.21 44.45 47.18 47.09 47.14 Z" />
</g>
<g id="#29378aff">
<path fill="#949494" opacity="1.00" d=" M 100.15 25.31 C 103.11 26.61 106.22 27.76 108.66 29.97 C 105.82 31.05 102.96 32.15 99.96 32.68 C 100.02 30.22 100.09 27.76 100.15 25.31 Z" />
</g>
<g id="#89395bf4">
<path fill="#636363" opacity="0.96" d=" M 118.04 24.72 L 119.32 25.03 L 119.99 25.19 C 119.67 25.70 119.04 26.72 118.72 27.23 C 117.37 27.67 116.06 28.20 114.77 28.77 C 112.53 29.72 110.34 30.80 108.10 31.74 L 107.20 32.11 C 104.98 32.87 102.73 33.53 100.49 34.21 C 100.12 34.22 99.36 34.23 98.98 34.24 C 98.27 34.26 96.83 34.29 96.12 34.31 L 95.75 33.13 C 97.16 33.00 98.56 32.85 99.96 32.68 C 102.96 32.15 105.82 31.05 108.66 29.97 C 109.70 29.56 110.73 29.13 111.76 28.67 C 113.90 27.66 116.03 26.61 118.17 25.60 L 118.04 24.72 Z" />
</g>
<g id="#283689ff">
<path fill="#949494" opacity="1.00" d=" M 119.14 28.82 C 120.57 28.49 122.00 28.16 123.44 27.84 C 123.30 29.33 123.15 30.82 123.02 32.31 L 122.96 32.95 C 120.99 34.32 118.94 35.56 116.80 36.63 C 117.51 34.00 118.32 31.41 119.14 28.82 Z" />
</g>
<g id="#7f403e99">
<path fill="#636363" opacity="0.60" d=" M 93.46 34.37 C 90.09 34.18 90.80 29.34 93.63 28.84 C 93.38 30.20 93.15 31.57 92.92 32.94 C 93.63 32.99 95.04 33.08 95.75 33.13 L 96.12 34.31 C 95.45 34.33 94.13 34.36 93.46 34.37 Z" />
</g>
<g id="#2a3688fb">
<path fill="#949494" opacity="1.00" d=" M 100.49 34.21 C 102.73 33.53 104.98 32.87 107.20 32.11 C 106.71 33.53 106.27 34.98 105.84 36.42 C 103.97 35.89 102.23 35.06 100.49 34.21 Z" />
</g>
<g id="#04050d19">
<path fill="#04050d" opacity="0.10" d=" M 298.21 34.60 C 296.77 33.59 296.77 32.57 298.21 31.55 C 298.39 32.20 298.75 33.49 298.93 34.14 L 298.21 34.60 Z" />
</g>
<g id="#090b1f3c">
<path fill="#090b1f" opacity="0.24" d=" M 456.36 32.72 C 458.27 33.98 459.41 36.08 459.54 38.37 C 459.82 44.11 456.70 49.78 451.93 52.91 C 448.80 55.03 445.31 56.64 441.66 57.61 C 437.83 58.45 433.89 58.06 430.01 58.11 C 307.00 58.11 184.00 58.11 60.99 58.11 C 59.50 58.08 58.02 58.01 56.53 57.93 C 56.00 56.70 55.14 55.73 54.04 54.99 C 60.35 55.23 66.67 55.15 72.99 55.16 C 190.66 55.16 308.33 55.15 426.00 55.16 C 430.98 55.11 436.15 55.65 440.92 53.86 C 446.89 51.94 452.74 48.15 455.25 42.18 C 456.64 39.23 456.66 35.90 456.36 32.72 Z" />
</g>
<g id="#3f416597">
<path fill="#a1a1a1" opacity="0.59" d=" M 115.09 35.91 C 117.38 36.42 115.32 39.16 113.94 37.41 C 114.23 37.03 114.80 36.29 115.09 35.91 Z" />
</g>
<g id="#2f3884f0">
<path fill="#949494" opacity="0.94" d=" M 106.04 38.08 C 108.45 37.96 110.87 37.91 113.28 37.96 C 112.50 39.01 111.72 40.06 110.93 41.11 C 109.60 41.09 108.27 41.06 106.94 41.02 C 106.64 40.04 106.34 39.06 106.04 38.08 Z" />
</g>
<g id="#ca3332fd">
<path fill="#333333" opacity="1.00" d=" M 352.84 64.80 C 354.32 64.02 356.23 62.99 357.74 64.32 C 357.75 67.13 354.42 65.95 352.76 65.87 C 349.50 71.23 347.67 77.36 345.23 83.13 C 346.85 82.42 348.43 81.59 350.12 81.02 C 348.14 82.87 345.86 84.62 343.09 84.97 C 343.44 80.64 345.84 76.87 347.32 72.88 C 348.64 69.92 349.76 66.38 352.84 64.80 Z" />
<path fill="#333333" opacity="1.00" d=" M 388.18 73.03 C 389.32 71.58 389.81 69.54 391.82 68.92 C 391.65 70.37 391.16 71.75 390.65 73.11 C 391.45 73.20 393.05 73.38 393.85 73.47 C 392.66 74.11 391.39 74.43 390.04 74.42 C 388.75 77.18 387.46 79.96 386.58 82.89 C 388.41 82.26 390.21 81.51 392.11 81.05 C 389.73 82.73 387.28 84.70 384.25 84.85 C 384.47 81.17 386.45 77.97 387.88 74.67 C 387.27 74.39 386.06 73.83 385.45 73.55 C 386.13 73.42 387.49 73.16 388.18 73.03 Z" />
<path fill="#333333" opacity="1.00" d=" M 305.14 74.89 C 306.85 73.35 308.43 71.26 310.93 71.11 C 310.70 73.73 307.81 74.00 305.95 75.02 C 303.41 77.56 302.30 80.99 300.87 84.18 C 300.36 84.13 299.35 84.05 298.84 84.00 C 300.39 80.58 301.96 77.16 303.12 73.59 C 302.27 74.15 300.56 75.29 299.71 75.85 C 300.85 73.61 303.37 72.87 305.50 71.92 L 305.14 74.89 Z" />
<path fill="#333333" opacity="1.00" d=" M 415.58 73.04 C 416.68 72.63 417.82 72.35 419.00 72.20 C 418.82 75.50 416.75 78.26 415.51 81.23 L 415.87 82.30 C 416.69 81.94 418.32 81.22 419.14 80.86 L 418.10 82.78 L 416.71 82.72 C 416.70 84.50 414.20 83.84 413.09 84.46 C 412.70 81.73 414.43 79.46 415.49 77.05 C 415.93 76.05 416.62 75.15 416.87 74.07 C 416.55 73.82 415.90 73.30 415.58 73.04 Z" />
</g>
<g id="#c53231f7">
<path fill="#333333" opacity="0.97" d=" M 399.31 68.87 C 400.82 65.69 404.47 62.89 408.12 64.00 C 407.72 66.89 404.93 66.18 402.87 65.93 C 400.88 68.72 399.96 72.09 398.67 75.22 C 400.93 74.01 403.06 72.18 405.77 72.17 C 405.12 75.99 402.81 79.22 401.46 82.80 C 402.91 82.84 404.00 81.81 405.22 81.17 C 404.15 83.38 401.75 84.19 399.73 85.24 C 398.87 81.15 402.22 77.78 403.21 74.02 C 401.74 74.58 400.28 75.16 398.84 75.74 C 397.30 78.27 396.35 81.10 395.09 83.76 C 394.51 83.92 393.36 84.24 392.78 84.40 C 395.04 79.26 396.95 73.97 399.31 68.87 Z" />
<path fill="#333333" opacity="0.97" d=" M 385.41 65.41 C 385.71 65.64 386.32 66.11 386.63 66.35 C 386.58 67.60 385.43 68.57 384.20 68.34 C 383.68 66.95 384.04 66.17 385.26 66.00 L 385.41 65.41 Z" />
<path fill="#333333" opacity="0.97" d=" M 423.57 72.71 C 424.09 72.71 425.13 72.72 425.65 72.73 C 424.00 76.22 422.24 79.67 420.92 83.31 C 421.76 83.00 423.42 82.40 424.25 82.10 C 423.69 82.62 422.55 83.66 421.99 84.18 C 420.95 84.33 419.92 84.46 418.90 84.56 C 419.08 83.17 419.23 81.79 419.38 80.40 C 421.27 78.13 422.31 75.34 423.57 72.71 Z" />
</g>
<g id="#bbb8d6ff">
<path fill="#d9d9d9" opacity="1.00" d=" M 9.92 81.35 C 34.40 71.73 60.90 68.96 86.99 68.16 C 103.33 68.11 119.70 67.99 136.01 69.17 C 151.36 69.84 166.64 71.47 181.95 72.68 C 216.96 76.03 251.92 79.94 286.96 83.08 C 288.27 83.06 290.05 83.85 290.83 82.32 C 290.68 82.98 290.39 84.30 290.24 84.96 C 291.56 84.56 292.87 84.15 294.19 83.72 C 295.74 83.77 297.29 83.86 298.84 84.00 C 299.35 84.05 300.36 84.13 300.87 84.18 C 301.38 84.26 302.40 84.42 302.91 84.51 L 303.19 84.56 C 305.52 85.08 307.91 84.94 310.28 84.98 C 310.96 84.97 312.33 84.95 313.01 84.94 C 313.31 84.93 313.91 84.92 314.20 84.92 C 331.41 86.53 348.72 86.75 365.99 86.97 C 371.00 87.51 375.99 86.60 381.01 86.80 C 393.66 86.59 406.29 85.71 418.90 84.56 C 419.92 84.46 420.95 84.33 421.99 84.18 C 422.74 84.14 424.24 84.05 424.99 84.01 L 425.69 84.21 C 427.77 84.89 430.31 85.32 431.79 83.32 C 431.99 83.17 432.41 82.88 432.62 82.74 C 440.85 81.51 449.05 79.98 457.14 78.01 C 457.83 77.72 458.55 77.93 459.23 78.10 C 457.51 78.91 455.74 79.59 453.91 80.09 C 422.17 89.37 389.04 93.40 356.03 93.80 C 350.19 94.00 344.31 94.59 338.50 93.81 C 331.03 93.28 323.49 93.93 316.05 92.97 C 310.42 92.50 304.71 93.06 299.14 91.97 C 288.12 91.37 277.12 90.46 266.16 89.11 C 262.81 88.59 259.37 88.78 256.06 87.96 C 253.09 87.59 250.06 87.64 247.14 86.97 C 241.46 86.50 235.84 85.65 230.19 84.96 C 220.91 83.77 211.62 82.68 202.34 81.45 C 201.91 81.75 201.05 82.35 200.63 82.64 C 197.84 82.57 194.97 82.94 192.24 82.33 C 195.27 82.37 198.53 82.82 201.22 81.06 C 195.41 80.85 189.67 79.85 183.90 79.26 C 183.57 79.62 182.92 80.34 182.59 80.70 C 172.01 81.08 161.55 78.90 150.98 78.65 C 142.89 77.76 134.72 77.91 126.63 77.01 C 117.42 76.51 108.18 77.12 98.97 76.72 C 84.94 76.51 70.95 77.63 56.99 78.83 C 73.90 76.80 90.99 76.07 108.00 76.62 C 113.02 76.22 118.05 77.05 123.05 76.43 C 125.35 76.34 127.58 77.11 129.88 77.16 C 144.99 77.80 160.07 78.98 175.12 80.42 C 177.87 80.44 181.04 80.98 183.31 79.03 C 179.52 78.83 175.76 78.37 172.00 77.90 C 147.09 75.00 122.09 72.66 97.00 72.23 C 68.12 71.76 38.83 73.80 11.12 82.47 C 8.44 83.21 5.90 84.49 3.11 84.80 C 5.05 83.09 7.58 82.34 9.92 81.35 Z" />
<path fill="#d9d9d9" opacity="1.00" d=" M 49.91 82.77 C 60.52 81.08 71.30 80.77 82.00 80.09 C 92.32 80.38 102.68 79.89 112.95 80.88 C 91.93 80.05 70.83 80.19 49.91 82.77 Z" />
<path fill="#d9d9d9" opacity="1.00" d=" M 376.98 95.26 C 391.05 95.44 405.09 94.21 419.10 93.10 C 409.47 94.60 399.67 94.36 390.02 95.65 C 384.01 95.00 378.01 96.08 371.99 95.76 C 364.98 95.81 357.95 95.99 350.97 95.25 C 359.65 95.10 368.32 95.72 376.98 95.26 Z" />
<path fill="#d9d9d9" opacity="1.00" d=" M 374.00 101.32 C 388.08 100.85 402.06 98.89 416.04 97.21 C 399.49 99.90 382.76 101.35 366.02 101.90 C 355.08 102.96 344.01 102.44 333.03 102.23 C 325.81 101.27 318.42 101.72 311.15 101.02 C 318.27 101.18 325.40 101.31 332.52 101.82 C 340.00 102.34 347.50 101.79 355.00 102.04 C 361.34 102.32 367.66 101.50 374.00 101.32 Z" />
</g>
<g id="#cc3230ff">
<path fill="#333333" opacity="1.00" d=" M 294.18 73.04 C 295.32 71.59 295.80 69.53 297.84 68.93 C 297.64 70.38 297.15 71.76 296.64 73.13 C 297.43 73.21 299.01 73.36 299.80 73.44 C 298.66 74.14 297.40 74.46 296.04 74.41 C 294.75 77.19 293.44 79.97 292.57 82.91 C 294.42 82.28 296.23 81.53 298.11 80.99 C 296.85 81.97 295.54 82.88 294.19 83.72 C 292.87 84.15 291.56 84.56 290.24 84.96 C 290.39 84.30 290.68 82.98 290.83 82.32 C 291.38 79.61 292.76 77.17 293.88 74.67 C 293.27 74.39 292.05 73.83 291.44 73.56 C 292.13 73.43 293.50 73.17 294.18 73.04 Z" />
<path fill="#333333" opacity="1.00" d=" M 429.43 77.74 C 427.04 73.85 434.67 69.67 436.35 73.95 C 434.75 76.29 432.96 71.73 431.15 73.97 C 430.24 77.25 435.07 79.44 432.62 82.74 C 432.41 82.88 431.99 83.17 431.79 83.32 L 431.49 82.94 L 431.11 82.40 C 430.79 80.74 430.36 79.16 429.43 77.74 Z" />
<path fill="#333333" opacity="1.00" d=" M 313.05 74.14 C 315.08 72.70 317.71 72.81 320.06 72.36 C 318.33 75.75 316.74 79.22 315.55 82.84 C 316.80 82.31 318.04 81.79 319.30 81.28 C 317.98 82.95 316.13 84.08 314.20 84.92 C 313.91 84.92 313.31 84.93 313.01 84.94 C 314.19 82.29 310.49 83.01 310.28 84.98 C 307.91 84.94 305.52 85.08 303.19 84.56 L 302.91 84.51 C 304.38 84.03 307.03 84.69 307.29 82.54 C 307.91 79.05 310.23 76.15 313.05 74.14 M 312.87 74.85 L 312.74 75.56 C 310.65 77.39 309.62 79.92 309.50 82.66 C 310.52 82.59 312.57 82.45 313.59 82.37 L 313.19 81.28 C 315.35 79.50 315.90 76.51 317.03 74.07 C 315.99 74.27 313.91 74.66 312.87 74.85 Z" />
</g>
<g id="#cb3332fe">
<path fill="#333333" opacity="1.00" d=" M 359.68 72.77 C 361.83 72.41 364.02 72.26 366.10 71.54 C 363.44 74.71 361.17 78.46 361.79 82.80 C 363.43 81.62 365.21 80.56 366.47 78.94 C 367.42 76.35 367.69 72.63 370.98 71.92 C 371.11 74.17 369.73 75.99 369.00 78.00 C 368.77 79.59 368.66 81.20 368.67 82.81 C 372.30 80.48 376.87 77.20 375.63 72.23 C 378.01 71.72 377.45 73.78 377.34 75.44 C 379.01 73.50 381.40 72.42 383.91 72.07 C 382.78 75.34 381.15 78.39 379.79 81.55 C 380.66 81.45 382.40 81.24 383.27 81.14 C 381.84 83.24 379.64 84.70 377.08 84.98 C 377.32 81.05 379.59 77.67 381.12 74.16 C 379.46 75.08 376.97 75.11 376.07 77.06 C 373.98 80.72 370.29 83.11 366.56 84.83 C 366.53 83.32 366.51 81.81 366.51 80.30 C 364.36 82.05 362.13 83.69 359.62 84.88 C 359.60 82.59 359.46 80.30 359.76 78.02 C 360.23 75.94 361.87 74.43 363.04 72.73 C 360.21 72.02 358.70 73.97 358.53 76.50 C 356.18 75.59 358.15 73.26 359.68 72.77 Z" />
</g>
<g id="#cc3433ff">
<path fill="#333333" opacity="1.00" d=" M 321.40 73.84 C 323.61 71.98 326.73 72.54 329.37 71.94 C 326.52 74.72 324.86 78.50 325.08 82.52 C 328.02 81.18 330.65 78.91 332.15 76.02 C 332.43 74.48 331.51 72.06 333.88 71.97 C 334.26 78.28 328.19 82.44 323.09 84.72 C 323.14 82.33 322.95 79.92 323.35 77.55 C 323.96 75.72 325.31 74.28 326.36 72.70 C 325.11 72.99 323.86 73.30 322.63 73.61 C 322.74 75.12 322.11 76.13 320.76 76.64 C 320.92 75.94 321.24 74.54 321.40 73.84 Z" />
</g>
<g id="#c92d2cfc">
<path fill="#333333" opacity="1.00" d=" M 333.20 80.98 C 334.31 77.52 336.53 74.06 339.91 72.49 C 341.41 71.61 344.03 72.44 343.42 74.47 C 342.16 77.64 338.48 78.26 335.90 79.87 C 335.82 80.57 335.64 81.98 335.55 82.68 C 337.64 82.95 339.38 81.38 341.34 80.88 C 339.73 82.84 337.50 84.27 335.02 84.82 C 332.71 85.37 332.58 82.45 333.20 80.98 M 338.89 73.60 C 338.12 75.49 336.52 76.90 336.18 79.02 C 338.80 78.17 341.76 76.34 341.20 73.27 C 340.62 73.35 339.47 73.52 338.89 73.60 Z" />
</g>
<g id="#40100f51">
<path fill="#333333" opacity="0.32" d=" M 412.93 76.07 C 412.40 73.76 414.76 74.20 415.58 73.04 C 415.90 73.30 416.55 73.82 416.87 74.07 C 416.62 75.15 415.93 76.05 415.49 77.05 L 415.49 75.59 C 414.85 75.71 413.57 75.95 412.93 76.07 Z" />
</g>
<g id="#0d030310">
<path fill="#0d0303" opacity="0.06" d=" M 338.89 73.60 C 339.47 73.52 340.62 73.35 341.20 73.27 C 341.76 76.34 338.80 78.17 336.18 79.02 C 336.52 76.90 338.12 75.49 338.89 73.60 Z" />
</g>
<g id="#2a378aff">
<path fill="#949494" opacity="1.00" d=" M 56.99 78.83 C 70.95 77.63 84.94 76.51 98.97 76.72 C 108.18 77.12 117.42 76.51 126.63 77.01 C 134.72 77.91 142.89 77.76 150.98 78.65 C 161.55 78.90 172.01 81.08 182.59 80.70 C 185.43 81.56 189.18 81.23 192.24 82.33 C 194.97 82.94 197.84 82.57 200.63 82.64 C 220.92 84.90 241.25 86.90 261.56 89.06 C 269.38 89.40 277.09 91.06 284.94 91.15 C 289.52 91.67 294.11 92.16 298.73 92.28 C 304.68 93.34 310.74 92.98 316.74 93.46 C 324.78 94.60 332.93 94.17 341.01 94.87 C 344.31 95.29 347.65 94.94 350.97 95.25 C 357.95 95.99 364.98 95.81 371.99 95.76 C 378.01 96.08 384.01 95.00 390.02 95.65 C 399.67 94.36 409.47 94.60 419.10 93.10 C 422.46 92.59 425.84 91.92 429.26 92.10 C 430.84 92.34 432.42 92.01 433.88 91.37 C 436.16 90.50 438.63 90.43 441.02 89.97 C 446.09 89.23 451.08 87.99 456.14 87.11 L 454.64 88.65 C 447.26 90.71 439.86 92.87 432.28 94.05 C 429.31 94.33 426.38 94.83 423.59 95.85 C 421.13 96.59 418.56 96.88 416.04 97.21 C 402.06 98.89 388.08 100.85 374.00 101.32 C 367.66 101.50 361.34 102.32 355.00 102.04 C 347.50 101.79 340.00 102.34 332.52 101.82 C 325.40 101.31 318.27 101.18 311.15 101.02 C 249.82 97.56 189.26 86.32 128.02 81.89 C 123.01 81.47 117.96 81.47 112.95 80.88 C 102.68 79.89 92.32 80.38 82.00 80.09 C 71.30 80.77 60.52 81.08 49.91 82.77 C 42.27 84.01 34.59 85.08 27.07 86.93 C 25.37 87.31 23.68 87.85 21.92 87.82 C 21.36 87.81 20.23 87.80 19.67 87.79 C 20.13 87.44 21.04 86.74 21.50 86.39 C 28.56 83.66 36.12 82.22 43.55 80.85 C 47.53 80.71 51.47 80.11 55.32 79.09 C 55.74 79.02 56.57 78.90 56.99 78.83 Z" />
</g>
<g id="#3a3c599e">
<path fill="#3a3c59" opacity="0.62" d=" M 43.55 80.85 C 47.38 79.78 51.34 79.07 55.32 79.09 C 51.47 80.11 47.53 80.71 43.55 80.85 Z" />
</g>
<g id="#a72928d3">
<path fill="#333333" opacity="0.83" d=" M 424.99 84.01 C 423.83 82.87 425.33 80.08 426.82 81.46 C 426.89 81.92 427.04 82.85 427.11 83.31 C 426.75 83.54 426.05 83.99 425.69 84.21 L 424.99 84.01 Z" />
</g>
<g id="#a85457d6">
<path fill="#333333" opacity="0.84" d=" M 430.61 82.15 L 431.11 82.40 L 431.49 82.94 L 431.79 83.32 C 430.31 85.32 427.77 84.89 425.69 84.21 C 426.05 83.99 426.75 83.54 427.11 83.31 C 427.91 83.20 429.51 82.98 430.31 82.86 L 430.61 82.15 Z" />
</g>
<g id="#220e0e2c">
<path fill="#220e0e" opacity="0.17" d=" M 310.28 84.98 C 310.49 83.01 314.19 82.29 313.01 84.94 C 312.33 84.95 310.96 84.97 310.28 84.98 Z" />
</g>
<g id="#2f2f375a">
<path fill="#2f2f37" opacity="0.35" d=" M 16.36 90.06 C 16.42 89.06 17.17 88.65 18.58 88.84 L 18.74 89.51 L 18.16 90.23 L 17.16 90.45 L 16.36 90.06 Z" />
</g>
<g id="#2b2b335d">
<path fill="#949494" opacity="0.36" d=" M 13.24 90.30 C 13.60 90.20 14.32 89.99 14.68 89.89 L 14.76 90.73 L 14.01 91.31 L 13.18 91.04 L 13.24 90.30 Z" />
</g>
<g id="#3c3c4c83">
<path fill="#3c3c4c" opacity="0.51" d=" M 429.26 92.10 C 429.23 90.14 432.76 90.33 433.88 91.37 C 432.42 92.01 430.84 92.34 429.26 92.10 Z" />
</g>
<g id="#383a589e">
<path fill="#383a58" opacity="0.62" d=" M 423.59 95.85 C 426.38 94.83 429.31 94.33 432.28 94.05 C 431.48 95.47 429.16 94.61 427.80 95.17 C 427.11 96.38 424.77 95.35 423.59 95.85 Z" />
</g>
</svg>
