<?xml version="1.0" encoding="UTF-8" ?>
<!DOCTYPE svg PUBLIC "-//W3C//DTD SVG 1.1//EN" "http://www.w3.org/Graphics/SVG/1.1/DTD/svg11.dtd">
<svg width="800pt" height="400pt" viewBox="0 0 800 400" version="1.1" xmlns="http://www.w3.org/2000/svg">
<g id="#939393ff">
<path fill="#939393" opacity="1.00" d=" M 379.59 3.61 C 391.89 2.16 404.57 3.38 417.01 3.00 C 421.37 4.39 425.80 5.50 430.42 5.56 C 461.10 10.71 490.90 22.49 515.91 41.14 C 556.15 69.99 584.57 114.76 593.71 163.41 C 604.63 216.90 590.62 274.40 557.85 317.86 C 526.55 359.70 478.02 388.56 426.10 395.12 C 423.41 395.78 420.93 397.40 418.06 397.07 C 405.35 396.88 392.65 396.97 379.94 397.05 C 377.13 397.14 374.77 395.30 372.04 394.93 C 311.59 386.82 256.26 348.36 227.04 294.91 C 214.35 272.23 206.39 246.92 203.75 221.07 C 200.38 212.45 202.64 203.01 202.00 194.00 C 201.90 188.53 201.39 182.94 203.93 177.90 C 209.61 123.17 240.26 71.79 285.15 40.13 C 310.11 22.26 339.22 10.23 369.57 5.56 C 372.96 5.21 376.45 5.11 379.59 3.61 M 381.03 20.23 C 328.24 25.17 278.67 55.21 249.28 99.25 C 211.34 154.41 208.26 231.15 242.08 288.97 C 246.09 294.90 254.34 294.44 260.36 292.39 C 269.62 289.47 278.34 282.62 280.77 272.85 C 285.94 253.02 291.19 233.21 296.40 213.39 C 297.76 209.05 298.40 204.41 300.76 200.45 C 310.02 213.63 317.64 227.93 326.90 241.12 C 329.81 245.86 337.14 246.70 341.30 243.25 C 345.83 238.80 347.13 232.28 349.52 226.62 C 356.67 208.56 362.41 189.80 370.92 172.36 C 385.08 202.10 397.78 232.62 411.30 262.70 C 413.33 267.18 415.33 272.88 420.62 274.33 C 425.92 276.02 431.58 272.59 433.46 267.56 C 443.32 242.30 452.65 216.82 462.59 191.59 C 462.85 190.24 464.37 188.83 465.22 190.67 C 474.55 205.12 483.11 220.10 492.57 234.48 C 497.27 242.09 510.05 239.22 511.35 230.39 C 519.05 197.13 526.75 163.83 534.59 130.60 C 535.39 125.42 543.41 123.57 546.28 127.79 C 563.17 160.25 567.72 198.80 559.49 234.41 C 548.62 286.95 509.50 332.44 459.40 351.49 C 436.14 360.85 410.68 363.88 385.76 362.50 C 355.72 360.91 326.41 349.73 302.56 331.45 C 291.42 323.41 282.41 312.93 272.67 303.38 C 267.00 305.24 261.53 307.84 255.57 308.94 C 268.07 329.86 288.93 344.03 309.04 356.94 C 360.65 387.16 427.61 388.78 480.93 361.86 C 512.79 345.97 539.87 320.52 557.43 289.52 C 590.09 233.55 588.92 159.60 553.96 104.99 C 552.84 103.96 551.32 103.53 549.89 103.17 C 550.66 103.17 552.21 103.15 552.99 103.15 C 549.46 98.72 547.02 92.59 542.13 89.76 C 539.96 83.89 534.67 79.95 530.73 75.28 C 493.04 34.87 435.89 13.95 381.03 20.23 Z" />
</g>
<g id="#fcfdf9ff">
<path fill="#fcfdf9" opacity="1.00" d=" M 381.03 20.23 C 435.89 13.95 493.04 34.87 530.73 75.28 C 534.67 79.95 539.96 83.89 542.13 89.76 C 536.01 90.14 530.17 92.12 524.19 93.31 C 505.46 71.87 481.35 54.95 454.36 45.68 C 425.13 35.35 392.98 33.99 362.78 40.75 C 329.07 48.47 298.07 67.33 275.68 93.67 C 255.71 116.89 242.64 145.86 238.05 176.10 C 234.23 207.90 236.81 241.88 252.98 270.14 C 256.80 272.85 260.54 267.73 261.13 264.17 C 268.82 230.85 276.53 197.52 284.18 164.19 C 284.49 154.77 297.61 149.58 303.27 157.72 C 313.88 173.40 321.57 191.01 332.71 206.34 C 342.30 181.74 350.43 156.58 359.85 131.92 C 362.71 123.30 376.21 123.16 379.37 131.63 C 393.84 164.81 407.19 198.52 422.08 231.50 C 433.16 206.63 441.06 180.43 451.26 155.18 C 453.12 150.34 458.42 147.04 463.60 148.38 C 470.02 149.72 472.19 156.77 475.35 161.66 C 482.35 173.21 488.33 185.40 496.01 196.51 C 502.76 175.17 507.07 153.12 512.44 131.40 C 514.26 124.09 515.44 115.73 521.79 110.78 C 529.29 103.76 540.02 102.27 549.89 103.17 C 551.32 103.53 552.84 103.96 553.96 104.99 C 588.92 159.60 590.09 233.55 557.43 289.52 C 539.87 320.52 512.79 345.97 480.93 361.86 C 427.61 388.78 360.65 387.16 309.04 356.94 C 288.93 344.03 268.07 329.86 255.57 308.94 C 261.53 307.84 267.00 305.24 272.67 303.38 C 282.41 312.93 291.42 323.41 302.56 331.45 C 326.41 349.73 355.72 360.91 385.76 362.50 C 410.68 363.88 436.14 360.85 459.40 351.49 C 509.50 332.44 548.62 286.95 559.49 234.41 C 567.72 198.80 563.17 160.25 546.28 127.79 C 543.41 123.57 535.39 125.42 534.59 130.60 C 526.75 163.83 519.05 197.13 511.35 230.39 C 510.05 239.22 497.27 242.09 492.57 234.48 C 483.11 220.10 474.55 205.12 465.22 190.67 C 464.37 188.83 462.85 190.24 462.59 191.59 C 452.65 216.82 443.32 242.30 433.46 267.56 C 431.58 272.59 425.92 276.02 420.62 274.33 C 415.33 272.88 413.33 267.18 411.30 262.70 C 397.78 232.62 385.08 202.10 370.92 172.36 C 362.41 189.80 356.67 208.56 349.52 226.62 C 347.13 232.28 345.83 238.80 341.30 243.25 C 337.14 246.70 329.81 245.86 326.90 241.12 C 317.64 227.93 310.02 213.63 300.76 200.45 C 298.40 204.41 297.76 209.05 296.40 213.39 C 291.19 233.21 285.94 253.02 280.77 272.85 C 278.34 282.62 269.62 289.47 260.36 292.39 C 254.34 294.44 246.09 294.90 242.08 288.97 C 208.26 231.15 211.34 154.41 249.28 99.25 C 278.67 55.21 328.24 25.17 381.03 20.23 Z" />
</g>
<g id="#4a4a4aff">
<path fill="#4a4a4a" opacity="1.00" d=" M 362.78 40.75 C 392.98 33.99 425.13 35.35 454.36 45.68 C 481.35 54.95 505.46 71.87 524.19 93.31 C 530.17 92.12 536.01 90.14 542.13 89.76 C 547.02 92.59 549.46 98.72 552.99 103.15 C 552.21 103.15 550.66 103.17 549.89 103.17 C 540.02 102.27 529.29 103.76 521.79 110.78 C 515.44 115.73 514.26 124.09 512.44 131.40 C 507.07 153.12 502.76 175.17 496.01 196.51 C 488.33 185.40 482.35 173.21 475.35 161.66 C 472.19 156.77 470.02 149.72 463.60 148.38 C 458.42 147.04 453.12 150.34 451.26 155.18 C 441.06 180.43 433.16 206.63 422.08 231.50 C 407.19 198.52 393.84 164.81 379.37 131.63 C 376.21 123.16 362.71 123.30 359.85 131.92 C 350.43 156.58 342.30 181.74 332.71 206.34 C 321.57 191.01 313.88 173.40 303.27 157.72 C 297.61 149.58 284.49 154.77 284.18 164.19 C 276.53 197.52 268.82 230.85 261.13 264.17 C 260.54 267.73 256.80 272.85 252.98 270.14 C 236.81 241.88 234.23 207.90 238.05 176.10 C 242.64 145.86 255.71 116.89 275.68 93.67 C 298.07 67.33 329.07 48.47 362.78 40.75 Z" />
<path fill="#4a4a4a" opacity="1.00" d=" M 82.78 167.55 C 87.58 167.27 92.39 167.07 97.17 167.61 C 96.67 168.78 96.17 169.95 95.68 171.13 C 102.23 184.68 108.66 198.36 115.92 211.54 C 121.64 201.50 126.19 190.83 131.59 180.61 C 133.43 176.43 137.55 171.79 134.23 167.27 C 139.12 167.38 144.00 167.34 148.89 167.28 C 147.64 169.66 146.39 172.19 146.58 174.96 C 146.69 189.65 146.62 204.34 146.61 219.03 C 146.44 221.37 147.82 223.32 148.95 225.23 C 145.00 225.39 141.05 225.39 137.10 225.19 C 138.38 223.35 139.97 221.46 139.72 219.05 C 139.66 205.03 139.69 191.00 139.70 176.98 C 131.09 192.65 123.74 208.99 115.57 224.89 C 106.82 209.32 100.01 192.61 91.30 176.98 C 91.32 191.00 91.34 205.03 91.28 219.05 C 91.02 221.46 92.62 223.35 93.91 225.20 C 90.00 225.40 86.08 225.35 82.18 225.14 C 86.47 222.06 85.22 216.55 85.33 212.00 C 85.28 199.32 85.35 186.63 85.33 173.95 C 85.56 171.49 84.07 169.48 82.78 167.55 Z" />
<path fill="#4a4a4a" opacity="1.00" d=" M 597.97 167.40 C 602.37 167.20 606.76 167.27 611.16 167.55 C 607.46 171.29 610.78 176.01 611.93 180.10 C 616.40 191.95 619.71 204.25 624.56 215.93 C 629.35 201.64 634.44 187.44 639.16 173.13 C 640.18 171.13 638.76 169.30 637.92 167.56 C 642.56 167.21 647.22 167.31 651.87 167.28 C 650.42 169.66 649.53 172.47 650.90 175.12 C 655.98 188.42 659.58 202.27 664.95 215.44 C 669.48 203.24 673.17 190.72 677.45 178.41 C 678.45 174.90 681.16 170.33 677.15 167.71 C 681.43 167.21 685.74 167.17 690.05 167.40 C 687.99 169.62 685.78 171.89 684.90 174.86 C 680.63 187.83 676.02 200.69 671.60 213.61 C 670.31 217.41 667.67 222.12 671.75 225.15 C 667.19 225.36 662.62 225.42 658.07 225.23 C 659.01 223.44 660.58 221.54 659.56 219.42 C 654.57 205.27 649.55 191.12 644.51 176.98 C 638.49 191.54 633.92 206.83 629.16 221.88 C 630.05 222.94 630.92 224.03 631.80 225.11 C 626.95 225.42 622.09 225.40 617.25 225.17 C 618.39 223.61 620.36 222.01 619.16 219.91 C 613.94 204.88 608.36 189.97 603.08 174.96 C 602.13 172.00 600.04 169.63 597.97 167.40 Z" />
<path fill="#4a4a4a" opacity="1.00" d=" M 154.84 178.12 C 159.16 177.90 163.49 177.93 167.82 177.98 C 167.45 179.31 167.08 180.64 166.71 181.98 C 170.98 187.74 175.04 193.78 180.00 198.94 C 184.47 194.37 187.70 188.63 191.52 183.50 C 193.17 181.77 192.17 179.73 191.17 177.99 C 195.22 177.93 199.27 177.89 203.31 178.13 C 196.71 183.07 192.77 190.41 187.87 196.85 C 185.56 200.23 182.12 203.49 182.60 207.96 C 183.05 213.72 181.07 220.29 184.94 225.24 C 181.31 225.37 177.68 225.37 174.05 225.24 C 177.24 221.51 176.31 216.50 176.42 212.00 C 176.28 208.47 177.07 204.40 174.38 201.59 C 167.83 193.81 162.61 184.80 154.84 178.12 Z" />
<path fill="#4a4a4a" opacity="1.00" d=" M 704.26 177.99 C 708.79 178.00 713.32 177.95 717.85 177.97 C 714.16 183.50 720.24 188.89 721.79 194.14 C 727.35 204.37 730.10 216.41 738.09 225.12 C 734.13 225.42 730.17 225.40 726.22 225.24 C 729.32 221.51 725.76 217.34 724.26 213.74 C 723.40 211.10 720.16 211.85 718.04 211.63 C 711.76 211.88 705.43 211.26 699.19 211.96 C 696.36 214.43 695.66 218.59 694.21 221.96 C 695.07 223.01 695.93 224.05 696.80 225.11 C 692.84 225.40 688.87 225.41 684.92 225.13 C 687.08 222.81 689.13 220.31 690.34 217.34 C 695.29 205.99 700.90 194.93 705.74 183.54 C 706.94 181.50 705.27 179.65 704.26 177.99 M 700.95 207.07 C 707.63 207.48 714.35 207.50 721.03 207.06 C 717.96 199.55 714.79 192.04 711.00 184.87 C 707.19 192.04 703.97 199.54 700.95 207.07 Z" />
<path fill="#4a4a4a" opacity="1.00" d=" M 731.99 178.15 C 736.54 177.95 741.09 177.95 745.65 177.98 C 744.60 179.75 743.61 181.88 745.32 183.63 C 749.38 188.87 753.09 194.45 757.75 199.19 C 761.61 193.87 765.60 188.64 769.20 183.15 C 770.73 181.40 769.15 179.58 768.29 177.98 C 772.53 177.95 776.78 177.95 781.02 178.16 C 772.80 184.05 768.49 193.55 762.21 201.21 C 759.21 204.43 760.07 209.00 759.96 213.00 C 760.04 217.21 759.11 222.13 762.77 225.18 C 758.92 225.37 755.07 225.37 751.23 225.18 C 756.10 220.43 753.35 212.98 753.99 206.94 C 753.55 201.16 747.92 197.61 745.11 192.88 C 740.95 187.79 737.55 181.91 731.99 178.15 Z" />
</g>
</svg>
