<svg xmlns="http://www.w3.org/2000/svg" fill="none" viewBox="0 0 182 18">
    <path fill="#000" d="M15.717 17.207h-4.734L6.417 7.74l-1.683 9.468H0L3.004.264h4.71l4.59 9.59 1.683-9.59h4.71l-2.98 16.943zM29.6 14.444h-6.008l-1.394 2.763h-4.95L26.402.264h5.432l3.172 16.944h-4.974l-.433-2.764zm-.553-3.581l-.841-5.504-2.788 5.504h3.63zm14.49 6.513c-1.956 0-3.534-.4-4.735-1.202-1.186-.817-1.779-2.003-1.779-3.557 0-.128.016-.352.048-.673h4.975c-.048.545.064.97.337 1.274.272.305.688.457 1.25.457.464 0 .832-.104 1.105-.313.288-.208.432-.504.432-.889 0-.449-.208-.817-.625-1.105-.4-.289-1.057-.625-1.97-1.01-.914-.384-1.667-.745-2.26-1.081a5.166 5.166 0 0 1-1.537-1.418c-.433-.609-.65-1.362-.65-2.26 0-1.169.29-2.17.866-3.003.577-.85 1.378-1.49 2.403-1.923C42.44.224 43.624 0 44.954 0c1.202 0 2.267.192 3.196.577.93.368 1.65.905 2.163 1.61.529.705.793 1.538.793 2.5 0 .256-.008.448-.024.576h-5.07c.016-.08.023-.192.023-.336 0-.385-.12-.681-.36-.89-.24-.224-.569-.336-.985-.336-.433 0-.785.112-1.058.337-.256.208-.384.504-.384.889 0 .416.2.777.6 1.081.417.289 1.058.633 1.923 1.034.93.432 1.69.84 2.283 1.225.61.369 1.13.866 1.562 1.49.433.625.65 1.394.65 2.308a4.83 4.83 0 0 1-.818 2.74c-.545.8-1.322 1.433-2.331 1.898-1.01.448-2.203.673-3.58.673zm13.982-3.99h7.042l-.65 3.822H51.584l.625-3.581 8.652-9.565h-6.97l.673-3.798h12.329l-.625 3.581-8.748 9.541zm24.833-8.724c-.177.994-.593 1.827-1.25 2.5a4.955 4.955 0 0 1-2.307 1.346c.817.192 1.45.584 1.898 1.177.465.593.698 1.298.698 2.115 0 .256-.025.52-.073.793-.24 1.442-.929 2.572-2.066 3.389-1.138.817-2.612 1.226-4.422 1.226h-8.388L69.446.264h8.123c1.538 0 2.732.313 3.581.938.85.609 1.274 1.482 1.274 2.62 0 .272-.024.552-.072.84zm-4.975.866c.016-.08.024-.2.024-.36 0-.77-.505-1.154-1.514-1.154h-2.38l-.528 3.004h2.38c1.169 0 1.842-.497 2.018-1.49zm-.745 6.392c.016-.08.024-.192.024-.336 0-.4-.136-.705-.409-.913-.256-.225-.64-.337-1.153-.337h-2.716l-.528 3.1h2.74c1.169 0 1.85-.504 2.042-1.514zM90.184.264l-1.706 9.83c-.048.288-.072.56-.072.817 0 .64.168 1.138.504 1.49.353.353.89.529 1.61.529.866 0 1.563-.249 2.091-.745.529-.497.873-1.194 1.034-2.091l1.73-9.83h4.711l-1.73 9.83c-.273 1.602-.826 2.948-1.66 4.037-.832 1.09-1.85 1.907-3.051 2.452-1.202.528-2.516.793-3.942.793-1.842 0-3.324-.48-4.446-1.442-1.105-.961-1.658-2.34-1.658-4.134 0-.577.056-1.145.168-1.706l1.73-9.83h4.687zm16.508 17.112c-1.954 0-3.532-.4-4.734-1.202-1.186-.817-1.778-2.003-1.778-3.557 0-.128.016-.352.048-.673h4.974c-.048.545.065.97.337 1.274.272.305.689.457 1.25.457.464 0 .833-.104 1.105-.313.288-.208.433-.504.433-.889 0-.449-.209-.817-.625-1.105-.401-.289-1.058-.625-1.971-1.01-.913-.384-1.666-.745-2.259-1.081a5.168 5.168 0 0 1-1.538-1.418c-.433-.609-.649-1.362-.649-2.26 0-1.169.288-2.17.865-3.003.577-.85 1.378-1.49 2.404-1.923C105.595.224 106.781 0 108.11 0c1.202 0 2.267.192 3.197.577.929.368 1.65.905 2.163 1.61.528.705.793 1.538.793 2.5 0 .256-.008.448-.024.576h-5.071c.016-.08.024-.192.024-.336 0-.385-.12-.681-.361-.89-.24-.224-.568-.336-.985-.336-.433 0-.785.112-1.057.337-.257.208-.385.504-.385.889 0 .416.2.777.601 1.081.416.289 1.057.633 1.922 1.034.93.432 1.691.84 2.284 1.225a5.128 5.128 0 0 1 1.562 1.49c.432.625.649 1.394.649 2.308 0 1.009-.273 1.922-.817 2.74-.545.8-1.322 1.433-2.332 1.898-1.009.448-2.203.673-3.581.673z"/>
    <path fill="#949494" d="M117.119 17.4c-.737 0-1.322-.184-1.755-.553-.416-.369-.625-.85-.625-1.442 0-.513.137-.985.409-1.418a3.007 3.007 0 0 1 1.178-1.057 3.388 3.388 0 0 1 1.658-.409c.721 0 1.29.192 1.706.577.433.368.649.85.649 1.442 0 .801-.312 1.482-.937 2.043-.609.544-1.37.817-2.283.817zm5.907-8.7c.288-1.666.897-3.148 1.826-4.446a9.592 9.592 0 0 1 3.509-3.052c1.41-.737 2.948-1.106 4.614-1.106 1.394 0 2.612.257 3.653.77 1.041.512 1.851 1.241 2.427 2.186.577.946.89 2.059.938 3.34h-5.071c-.193-.624-.529-1.105-1.01-1.441-.48-.337-1.073-.505-1.778-.505-1.09 0-2.027.385-2.812 1.154-.785.769-1.29 1.802-1.514 3.1a5.786 5.786 0 0 0-.096 1.081c0 .994.256 1.779.769 2.356.529.56 1.25.84 2.163.84.705 0 1.354-.168 1.947-.504a4.21 4.21 0 0 0 1.514-1.442h5.095c-.769 1.939-1.979 3.477-3.629 4.614-1.651 1.122-3.533 1.683-5.648 1.683-1.458 0-2.724-.28-3.797-.841a5.794 5.794 0 0 1-2.428-2.38c-.56-1.025-.841-2.21-.841-3.556 0-.625.056-1.242.169-1.851zm25.47 8.676c-1.426 0-2.684-.297-3.773-.89a6.214 6.214 0 0 1-2.524-2.499c-.593-1.073-.889-2.307-.889-3.7 0-2.004.416-3.782 1.25-5.336.849-1.57 2.026-2.788 3.532-3.653C147.615.433 149.353 0 151.308 0c1.458 0 2.731.296 3.821.89a6.03 6.03 0 0 1 2.547 2.475c.593 1.057.889 2.283.889 3.677 0 1.986-.424 3.765-1.273 5.335a9.242 9.242 0 0 1-3.557 3.677c-1.522.881-3.269 1.322-5.239 1.322zm.721-4.374c.945 0 1.77-.248 2.475-.745a4.676 4.676 0 0 0 1.634-1.97c.385-.834.577-1.731.577-2.693 0-1.025-.28-1.818-.841-2.379-.545-.577-1.33-.865-2.355-.865-.946 0-1.779.248-2.5.745a4.687 4.687 0 0 0-1.658 1.947c-.384.817-.577 1.714-.577 2.691 0 1.01.281 1.81.841 2.404.561.576 1.362.865 2.404.865zM182 .264l-3.004 16.943h-4.686l1.658-9.372-4.879 9.372h-3.941l-1.538-9.42-1.659 9.42h-4.734L162.221.264h5.696l2.331 10.983 6.08-10.983H182z"/>
</svg>
