<?xml version="1.0" encoding="UTF-8" ?>
<!DOCTYPE svg PUBLIC "-//W3C//DTD SVG 1.1//EN" "http://www.w3.org/Graphics/SVG/1.1/DTD/svg11.dtd">
<svg width="190pt" height="19pt" viewBox="0 0 190 19" version="1.1" xmlns="http://www.w3.org/2000/svg">
<g id="#ed1d2dff">
<path fill="#949494" opacity="1.00" d=" M 163.52 0.00 L 167.50 0.00 C 175.25 1.07 182.32 4.80 188.75 9.08 C 181.76 6.29 174.94 1.40 167.07 2.28 C 162.08 2.98 161.53 8.67 160.13 12.47 C 157.93 7.83 151.84 -2.96 147.53 5.92 C 146.54 5.13 145.53 4.35 144.50 3.61 C 149.66 1.80 156.19 -0.85 158.38 6.68 C 158.63 3.60 160.12 0.43 163.52 0.00 Z" />
<path fill="#949494" opacity="1.00" d=" M 0.00 4.75 C 1.88 -1.98 10.06 0.58 15.18 0.14 C 15.17 2.05 15.17 3.97 15.17 5.88 C 12.10 6.00 8.87 5.37 5.95 6.57 C 10.32 6.31 16.07 8.69 15.10 14.02 C 13.73 20.74 4.86 19.04 0.00 18.38 L 0.00 12.88 C 3.20 12.82 6.52 13.28 9.60 12.18 C 5.86 11.74 0.93 11.64 0.00 7.03 L 0.00 4.75 Z" />
<path fill="#949494" opacity="1.00" d=" M 15.87 0.12 C 17.82 0.12 19.76 0.12 21.70 0.11 C 22.64 3.07 23.56 6.04 24.42 9.02 C 25.54 6.10 26.45 3.10 27.40 0.11 C 29.32 0.12 31.25 0.12 33.18 0.12 C 31.30 6.38 29.31 12.61 27.44 18.88 C 25.51 18.88 23.58 18.88 21.66 18.87 C 19.75 12.61 17.79 6.37 15.87 0.12 Z" />
<path fill="#949494" opacity="1.00" d=" M 34.24 0.13 C 38.49 0.42 43.46 -0.95 47.03 2.07 C 51.45 5.71 51.45 13.29 47.03 16.93 C 43.46 19.95 38.49 18.58 34.24 18.87 C 34.24 12.62 34.24 6.38 34.24 0.13 M 39.97 5.84 C 39.97 8.28 39.97 10.71 39.98 13.15 C 45.93 14.30 46.02 4.52 39.97 5.84 Z" />
</g>
<g id="#0b6cafff">
<path fill="#ABABAB" opacity="1.00" d=" M 52.83 0.19 C 57.87 0.06 62.90 0.17 67.93 0.11 C 67.94 2.05 67.95 4.00 67.96 5.95 C 66.39 5.96 64.82 5.97 63.25 5.98 C 63.25 10.27 63.24 14.56 63.26 18.85 C 61.36 18.87 59.46 18.87 57.57 18.88 C 57.57 14.61 57.54 10.33 57.60 6.05 C 56.03 6.01 54.46 5.97 52.89 5.94 C 52.88 4.02 52.86 2.10 52.83 0.19 Z" />
<path fill="#ABABAB" opacity="1.00" d=" M 69.12 0.13 C 72.77 0.23 76.45 -0.15 80.08 0.38 C 85.24 1.94 85.29 9.54 81.03 12.21 C 82.43 14.44 83.83 16.66 85.22 18.89 C 82.97 18.87 80.72 18.87 78.47 18.87 C 77.33 17.14 76.16 15.43 74.87 13.80 C 74.83 15.49 74.82 17.17 74.82 18.86 C 72.92 18.87 71.02 18.87 69.13 18.88 C 69.13 12.63 69.12 6.38 69.12 0.13 M 74.64 6.27 C 77.73 9.79 79.92 3.67 74.64 6.27 Z" />
<path fill="#ABABAB" opacity="1.00" d=" M 86.55 18.88 C 88.44 12.61 90.39 6.36 92.31 0.10 C 102.32 -1.68 100.05 12.65 103.84 18.86 C 101.93 18.87 100.02 18.88 98.11 18.90 C 97.88 18.28 97.44 17.04 97.21 16.42 C 95.87 16.39 94.53 16.37 93.19 16.34 C 92.98 16.97 92.58 18.23 92.38 18.85 C 90.44 18.87 88.49 18.87 86.55 18.88 M 95.96 8.06 C 95.00 8.85 94.44 11.35 95.84 11.94 C 97.01 11.26 97.17 8.72 95.96 8.06 Z" />
<path fill="#ABABAB" opacity="1.00" d=" M 104.74 0.15 C 106.65 0.13 108.57 0.12 110.49 0.11 C 112.03 2.80 113.55 5.51 115.21 8.12 C 115.27 5.46 115.26 2.79 115.25 0.12 C 117.15 0.12 119.05 0.11 120.95 0.09 C 121.03 6.36 121.04 12.64 120.95 18.91 C 119.06 18.88 117.16 18.88 115.27 18.88 C 113.70 16.12 112.19 13.34 110.51 10.65 C 110.48 13.40 110.50 16.14 110.50 18.89 C 108.58 18.88 106.66 18.87 104.74 18.85 C 104.76 12.62 104.76 6.38 104.74 0.15 Z" />
<path fill="#ABABAB" opacity="1.00" d=" M 124.57 10.46 C 120.81 7.71 122.29 0.95 126.97 0.26 C 130.51 -0.05 134.07 0.20 137.62 0.12 C 137.61 2.04 137.62 3.97 137.63 5.89 C 134.70 6.34 131.06 4.84 128.57 6.82 C 133.40 5.91 139.19 9.60 137.31 15.03 C 134.94 21.00 127.32 18.26 122.43 18.88 C 122.44 16.88 122.44 14.89 122.44 12.90 C 125.49 12.87 128.53 12.93 131.57 12.77 C 129.96 10.54 126.40 12.57 124.57 10.46 Z" />
<path fill="#ABABAB" opacity="1.00" d=" M 152.15 5.16 C 147.56 6.02 152.98 0.57 152.15 5.16 Z" />
<path fill="#ABABAB" opacity="1.00" d=" M 166.20 6.34 C 171.29 2.30 179.15 5.27 183.85 8.26 C 178.57 5.09 163.94 3.13 166.65 13.70 C 164.05 12.49 165.10 8.43 166.20 6.34 Z" />
<path fill="#ABABAB" opacity="1.00" d=" M 149.27 6.74 C 152.47 9.76 153.87 14.83 158.20 16.50 C 164.89 17.49 170.91 13.43 176.36 10.11 C 171.93 13.80 167.25 17.56 161.54 19.00 L 158.53 19.00 C 153.07 17.36 152.10 10.93 149.27 6.74 Z" />
</g>
</svg>
