<?xml version="1.0" encoding="utf-8"?>
<!-- Generator: Adobe Illustrator 19.0.0, SVG Export Plug-In . SVG Version: 6.00 Build 0)  -->
<svg version="1.1" id="Слой_1" xmlns="http://www.w3.org/2000/svg" xmlns:xlink="http://www.w3.org/1999/xlink" x="0px" y="0px"
	 viewBox="0 0 207 87" style="enable-background:new 0 0 207 87;" xml:space="preserve">
<g>
	<g>
		<g>
			<g>
				<g>
					<g>
						<rect x="3.6" y="2.4" fill='none' width="200.7" height="78.7"/>
						<path fill='#969696' d="M134.1,27.4c-1.3-2.1-2.8-3.9-4.8-5.4c0.1-0.1,0.1-0.3,0.2-0.4c0.4-1,0.6-2,0.6-3.1
							c0-3.7-1.8-6.6-4.7-8.7c-3-2.3-6.5-3.3-10.3-3.3c-3.1,0-6.1,0.7-8.9,1.9c-3.1,1.3-5.8,3.2-8.2,5.5l-0.6,0.5l-0.1,0.8
							c-0.3,2.2-0.5,4.4-0.6,6.6c-0.1,2.3-0.2,4.7-0.2,7c0,3.6,0,7.2,0.2,10.8c0.1,1.3,1,5.4,1.8,6.4l0,0c0.7,1.8,1.9,3.5,3.3,5l0,0
							l0,0c0.6,0.6,1.1,1.1,1.7,1.5c0.2,0.2,0.4,0.3,0.6,0.5l0,0l0,0c3.8,3.2,8.2,6.3,13.4,6.3c5.5,0,9.9-1.7,13.2-5
							c3.1-3.2,4.7-7,4.9-11.4c0.6-1.9,0.9-3.9,0.9-6C136.6,33.7,135.9,30.4,134.1,27.4z M118.1,35.3c-0.6,0.6-1.4,0.9-2.2,0.9
							c-0.9,0-1.6-0.3-2.2-0.9s-0.9-1.4-0.9-2.3s0.3-1.6,0.9-2.2s1.3-0.9,2.2-0.9s1.6,0.3,2.2,0.9s0.9,1.4,0.9,2.2
							C119,33.9,118.6,34.6,118.1,35.3z M129.6,49.2c-2.6,2.6-5.9,4.2-9.8,4.8c1.5-0.7,2.8-1.7,4-2.9c3-3,4.5-6.6,4.5-10.9
							s-1.5-7.9-4.5-10.9s-6.6-4.5-10.8-4.5c-4.3,0-7.9,1.5-10.9,4.5c-1.4,1.4-2.4,2.9-3.1,4.5c0-1.5,0-3.2,0-5
							c0-2.6,0.1-4.9,0.2-6.9s0.3-4.2,0.6-6.5c2.3-2.2,4.8-3.9,7.6-5c2.7-1.2,5.4-1.7,8-1.7c3.4,0,6.4,1,9,2.9s3.8,4.2,3.8,7
							c0,0.8-0.1,1.6-0.4,2.3c-0.3,0.7-0.6,1.3-1.1,1.9c2.4,1.5,4.4,3.5,5.8,5.9s2.1,5.3,2.1,8.6C134.4,41.8,132.9,45.9,129.6,49.2z
							"/>
					</g>
				</g>
			</g>
		</g>
	</g>
	<g>
		<g>
			<g>
				<g>
					<g>
						<rect x="3.6" y="2.4" fill='none' width="200.7" height="78.7"/>
						<path fill='#969696' d="M93.7,30.7c0.1-0.5,0.2-1,0.3-1.4s0.1-1,0.1-1.8v-1.1c-1.3-0.4-2.5-0.6-3.7-0.8c-1.1-0.1-2.4-0.2-3.7-0.2
							c-4.9,0-8.6,1.3-11.3,3.8s-4,5.7-4,9.6c0,4.6,1.7,8.5,5.1,11.7s7.8,4.9,13.1,4.9c0.9,0,1.8,0,2.7-0.1s1.8-0.2,2.6-0.3
							c0.1-0.9,0.1-1.7,0.1-2.5s0.1-2.3,0.1-4.4c0-3-0.1-5.3-0.3-6.9s-0.5-3.3-0.9-5.1c-1.5,0.2-2.3,0.4-2.3,0.4h-0.1
							c-1,0-1.7-0.2-2.4-0.6c-0.6-0.4-0.9-1-0.9-1.7c0-1,0.5-1.9,1.5-2.5C90.6,30.9,92.1,30.6,93.7,30.7"/>
					</g>
				</g>
			</g>
		</g>
	</g>
	<g>
		<g>
			<g>
				<g>
					<g>
						<path fill='#969696' d="M54,33.9c0,0.9,0.3,1.7,0.9,2.3c0.6,0.6,1.4,0.9,2.2,0.9c0.9,0,1.6-0.3,2.2-0.9c0.6-0.6,0.9-1.4,0.9-2.3
							c0-0.8-0.3-1.6-0.9-2.2s-1.4-0.9-2.2-0.9c-0.9,0-1.6,0.3-2.2,0.9C54.4,32.2,54,33,54,33.9 M39,39.9c0-4.3,1.5-7.9,4.4-10.8
							c3-3,6.6-4.5,10.9-4.5s7.9,1.5,10.8,4.5c3,3,4.5,6.6,4.5,10.9S68,47.9,65,50.9s-6.6,4.4-10.9,4.4s-7.9-1.5-10.9-4.4
							C40.5,47.9,39,44.2,39,39.9z"/>
					</g>
				</g>
			</g>
		</g>
	</g>
	<g>
		<g>
			<g>
				<g>
					<g>
						<rect x="3.6" y="2.4" fill='none' width="200.7" height="78.7"/>
						<path fill='#969696' d="M8.9,11.6c2.5-0.2,4.9-0.3,7.3-0.4c2.4-0.1,4.6-0.2,6.5-0.2c2.1,0,4.7,0.1,7.7,0.2s6.1,0.3,9.2,0.5
							c0.3,3,0.5,5.6,0.6,8s0,4.7-0.2,6.9c-1.2,0.2-2.4,0.4-3.6,0.5c-1.2,0.1-2.4,0.2-3.7,0.2c0,1.2,0.1,2.5,0.1,3.9
							s0.1,3.2,0.1,5.6c0,2.9-0.1,5.7-0.3,8.5s-0.5,5.8-0.8,9.1c-2.6,0.1-5.2,0.1-7.8-0.1c-2.7-0.1-5.4-0.4-8.2-0.7
							c-0.2-2.5-0.3-4.5-0.3-6.2c0-1.6-0.1-3.2-0.1-4.8c0-2.9,0-5.5,0.1-7.9s0.2-4.7,0.5-7c-1.5-0.1-2.9-0.2-4.3-0.3
							c-1.4-0.1-2.8-0.2-4.1-0.4c-0.2-2.8-0.1-5.5,0.1-8C8,16.5,8.4,14,8.9,11.6"/>
					</g>
				</g>
			</g>
		</g>
	</g>
	<g>
		<g>
			<g>
				<g>
					<rect x="3.6" y="2.4" fill='none' width="200.7" height="78.7"/>
					<path fill='#969696' d="M164.6,35.9c0-1.2-0.1-2.5-0.2-3.7c-0.1-1.3-0.2-2.5-0.4-3.8l-0.3-1.6l-1.6-0.2c-1.4-0.2-2.7-0.3-4.1-0.3
						c-1.3,0-2.7,0-4,0.2l-1.4,0.2v-0.2l-2.1-0.3c-1.1-0.1-2.3-0.2-3.4-0.3c-1.1-0.1-2.2-0.1-3.2-0.1l0,0l0,0c-1,0-1.9,0-2.9,0.1
						s-2,0.1-2.9,0.3l-1.6,0.2l-0.3,1.6c-0.3,1.9-0.5,3.9-0.7,5.8c-0.2,2.1-0.2,4.1-0.3,6.2c0,4.6,0.7,9.6,3.2,13.6
						c0.7,1.1,1.5,2,2.5,2.8c0.2,0.4,0.5,0.8,0.7,1.2c1.9,3,4.8,4.5,8.7,4.5c3.8,0,7-1.9,9.6-5.7c2-3,3.2-6.8,3.7-11.3
						C164.4,42.1,164.6,39,164.6,35.9L164.6,35.9z M158.6,51.1c-2.6,3.8-5.8,5.7-9.6,5.7c-3.9,0-6.8-1.5-8.7-4.5
						c-1.9-3-2.9-7.1-2.9-12.4c0-1.8,0.1-3.9,0.2-6c0.2-2.2,0.4-4.1,0.7-5.6c0.9-0.1,1.9-0.2,2.8-0.2c1-0.1,1.9-0.1,2.8-0.1
						c1,0,2.1,0.1,3.2,0.1c1.1,0.1,2.2,0.2,3.2,0.3c-0.1,1.1-0.1,2.2-0.2,3.2c0,1,0,1.9,0,2.8c0,1.3,0.1,2.2,0.4,2.8
						c0.3,0.5,0.7,0.8,1.4,0.8c0.8,0,1.4-0.4,1.8-1.1c0.4-0.7,0.6-2.5,0.6-5.4v-2.8c1.2-0.1,2.5-0.2,3.7-0.2c1.3,0,2.5,0.1,3.9,0.3
						c0.2,1.2,0.3,2.4,0.4,3.6c0.1,1.2,0.1,2.4,0.2,3.6C162.4,42.3,161.1,47.3,158.6,51.1z"/>
				</g>
			</g>
		</g>
	</g>
	<g>
		<g>
			<g>
				<path fill='#969696' d="M118.1,14.3c-0.8-0.8-1.9-1.3-3.1-1.3s-2.3,0.4-3.1,1.3c-0.8,0.8-1.3,1.9-1.3,3.1s0.4,2.3,1.3,3.1
					c0.8,0.9,1.9,1.3,3.1,1.3s2.3-0.4,3.1-1.3c0.9-0.9,1.3-1.9,1.3-3.2C119.5,16.2,119,15.1,118.1,14.3z M116.6,19
					c-0.4,0.4-1,0.7-1.6,0.6c-0.6,0-1.1-0.2-1.6-0.6c-0.4-0.4-0.6-1-0.6-1.6s0.2-1.1,0.6-1.6c0.4-0.4,0.9-0.6,1.6-0.6
					c0.6,0,1.1,0.2,1.6,0.7c0.4,0.4,0.7,1,0.7,1.5C117.2,18,117,18.5,116.6,19z"/>
			</g>
		</g>
	</g>
	<g>
		<g>
			<g>
				<g>
					<path fill='#969696' d="M199.6,54c-1.9-3.7-6-5.8-9.7-7.1c-1.5-0.6-3.1-1-4.6-1.4c2.7-2.4,4.7-5.1,3.4-7.2
						c0.9-1.4,1.5-2.9,1.2-4.5c-0.6-4-5.6-5.3-9-5.9l-0.6-0.1l-0.6,0.2c-3.4,1.4-7.3,3.6-10.2,5.8c-3.1,2.3-6.7,5.7-7,9.9
						c-0.1,0.8,0,1.6,0.2,2.4c0.6,2.6,2.2,4.7,4.1,6.6l0.1,0.1c1.4,2.7,4,4.8,6.3,6.6l-0.1,0.1c-0.5,0.2-1.9,0.4-2.5,0.5
						c-1.9,0.3-3.8,0.5-5.7,0.6c-6.1,0.5-12.3,0.8-18.4,1c-17.5,0.7-35.1,0.9-52.7,1.2c-18.3,0.3-36.5,0.4-54.8,0.6
						c-6.1,0.1-12.3,0.1-18.4,0.3c-1.8,0-3.6,0.1-5.4,0.2c-0.8,0-2.3,0.1-3,0.4c-0.8,0.4-1.3,1.1-1.3,1.9c-0.1,2.3,2.4,2.5,3.9,2.7
						c1.9,0.2,3.8,0.4,5.8,0.6c6.8,0.6,13.7,1,20.5,1.4c-15.4,0.2-26,0.3-26.6,0.6c-2.4,1.1,102.8,7.6,160.7,5.4
						c11.7-0.4,19.2-2.6,21.5-5.7c2.5-3.4,3.3-6.2,3-8.5C200.7,59.8,201,56.8,199.6,54z M195.2,65.8c-2.3,3.2-9.8,5.3-21.5,5.7
						C115.8,73.8,10.6,67.3,13,66.1c2.4-1.1,154.9-0.4,161.2-4.9s-7.4-7.6-9.4-15.7S180.5,30,180.5,30c14.8,2.5,3.1,11-2.7,14.6
						C173.2,47.4,208.7,47,195.2,65.8z"/>
				</g>
			</g>
		</g>
	</g>
</g>
</svg>
