<?xml version="1.0" encoding="UTF-8" ?>
<!DOCTYPE svg PUBLIC "-//W3C//DTD SVG 1.1//EN" "http://www.w3.org/Graphics/SVG/1.1/DTD/svg11.dtd">
<svg width="300pt" height="90pt" viewBox="0 0 300 90" version="1.1" xmlns="http://www.w3.org/2000/svg">
<g id="#949494ff">
<path fill="#949494" opacity="1.00" d=" M 229.94 8.64 C 242.85 6.65 255.97 7.22 268.97 7.85 C 274.41 7.90 280.64 9.20 283.44 14.43 C 288.38 23.51 286.52 34.42 284.44 44.06 C 284.83 34.89 286.19 24.90 281.51 16.53 C 280.52 14.47 278.51 13.34 276.35 12.89 C 276.61 13.58 277.14 14.94 277.41 15.63 C 265.08 13.55 252.55 13.29 240.08 13.70 C 238.92 12.52 238.06 10.05 236.02 10.62 C 232.75 11.30 228.94 10.95 226.31 13.32 C 223.66 15.46 219.99 15.39 217.05 16.97 C 203.74 23.55 193.60 34.69 182.99 44.77 C 190.65 34.91 199.40 25.80 209.46 18.36 C 215.62 13.95 222.40 10.03 229.94 8.64 Z" />
<path fill="#949494" opacity="1.00" d=" M 285.27 12.64 C 290.13 12.08 295.52 11.65 299.68 14.78 C 298.97 20.12 300.69 25.63 299.22 30.86 C 298.20 33.50 293.53 36.37 291.86 32.89 C 290.68 27.79 292.66 22.75 293.40 17.75 C 292.70 15.35 289.69 16.63 287.87 16.23 C 287.01 15.03 286.14 13.84 285.27 12.64 Z" />
<path fill="#949494" opacity="1.00" d=" M 233.86 17.77 C 235.26 16.48 233.44 14.15 235.02 12.78 C 235.84 14.28 236.53 15.84 237.12 17.44 C 251.17 17.03 265.11 19.02 279.04 20.60 C 270.68 20.43 262.38 19.26 254.02 19.21 C 248.91 19.34 243.73 18.04 238.70 19.38 C 238.80 25.15 238.26 30.93 237.41 36.63 C 237.09 39.69 230.81 39.35 231.50 36.00 C 231.62 31.94 232.57 27.94 232.38 23.87 C 230.90 33.78 229.49 43.82 229.42 53.85 C 232.15 54.78 235.07 54.91 237.92 55.28 C 245.31 55.88 252.73 57.27 260.16 56.44 C 268.27 55.25 276.26 53.26 283.95 50.42 C 283.52 59.31 283.09 68.29 280.98 76.97 C 280.55 79.48 278.44 81.15 276.13 81.89 C 266.83 85.24 256.75 84.83 247.02 84.78 C 238.14 84.41 229.08 84.25 220.44 82.01 C 226.79 81.23 233.21 82.09 239.58 81.54 C 239.70 77.86 240.56 74.26 241.00 70.61 C 239.66 70.33 238.32 70.14 236.99 69.89 C 238.23 68.45 238.93 65.85 236.09 66.84 C 236.23 67.63 236.53 69.20 236.67 69.98 L 233.77 69.63 C 234.07 68.42 234.37 67.21 234.68 66.00 C 233.73 66.38 232.77 66.74 231.81 67.07 L 233.66 68.02 C 232.55 68.73 231.38 69.82 229.91 69.10 C 230.23 68.53 230.88 67.38 231.20 66.81 C 231.11 66.18 230.93 64.94 230.84 64.32 C 234.26 65.25 237.84 65.62 241.18 66.82 C 241.41 67.52 241.85 68.92 242.08 69.62 C 247.38 69.17 252.70 69.54 258.00 69.34 C 261.95 68.86 265.91 68.74 269.88 68.56 C 269.81 65.93 271.41 64.17 273.68 63.09 C 274.03 64.27 274.39 65.44 274.75 66.62 C 276.13 65.62 277.75 65.11 279.46 65.05 C 279.78 62.05 277.67 63.30 276.28 64.53 C 275.62 64.01 274.97 63.48 274.33 62.96 C 276.41 62.45 278.48 61.87 280.52 61.24 C 280.75 58.84 281.03 56.45 281.40 54.07 C 272.79 56.75 263.94 58.75 254.97 59.68 C 245.10 59.85 235.20 58.59 225.57 56.49 C 227.40 45.18 227.99 33.72 229.66 22.39 C 229.96 20.07 232.38 19.22 233.86 17.77 M 280.31 62.95 C 280.40 66.32 283.27 61.40 280.31 62.95 M 273.04 66.39 C 272.56 65.88 272.56 65.88 273.04 66.39 M 272.92 67.75 C 272.28 68.00 271.01 68.52 270.37 68.78 C 269.40 72.88 269.28 77.14 268.01 81.19 C 271.26 80.44 275.06 80.11 277.44 77.48 C 279.41 73.95 279.51 69.77 280.09 65.87 C 277.76 66.70 275.39 67.51 272.92 67.75 M 241.46 70.33 C 241.24 74.16 240.26 77.90 240.05 81.74 C 249.28 81.62 258.51 82.03 267.72 81.34 C 268.42 77.28 268.84 73.17 269.73 69.15 C 265.49 69.15 261.26 69.29 257.03 69.58 C 251.84 69.90 246.56 69.00 241.46 70.33 Z" />
<path fill="#949494" opacity="1.00" d=" M 221.12 17.40 C 222.77 16.97 225.62 15.15 226.69 17.32 C 228.38 21.33 227.14 25.78 226.52 29.89 C 224.87 39.66 223.46 49.46 221.73 59.20 C 221.29 46.23 224.94 33.32 223.56 20.32 C 223.25 20.17 222.62 19.85 222.31 19.69 C 212.35 24.28 204.05 31.58 195.28 37.99 C 202.73 29.88 210.90 21.89 221.12 17.40 Z" />
<path fill="#949494" opacity="1.00" d=" M 213.47 36.21 C 214.66 32.75 214.95 28.84 217.34 25.91 C 215.91 37.60 214.89 49.34 213.85 61.08 C 214.60 63.12 216.46 64.46 217.83 66.08 C 215.64 64.69 212.61 63.68 211.65 61.10 C 211.96 53.78 212.67 46.47 212.85 39.14 C 207.78 40.29 202.89 42.09 198.01 43.86 C 202.72 40.59 207.62 36.96 213.47 36.21 Z" />
<path fill="#949494" opacity="1.00" d=" M 162.12 70.88 C 159.96 68.05 161.51 63.32 165.04 62.54 C 168.61 62.41 172.19 62.88 175.76 62.49 C 175.75 64.36 175.74 66.22 175.75 68.08 C 173.23 66.17 170.04 64.51 167.15 66.82 C 168.84 71.01 173.53 72.56 176.12 76.06 C 177.45 79.40 175.02 83.24 171.94 84.61 C 168.39 85.04 164.05 85.58 161.36 82.67 C 159.67 81.69 160.62 79.62 160.48 78.07 C 162.64 79.56 164.71 82.32 167.66 81.55 C 169.28 80.68 169.64 78.67 169.29 77.00 C 167.17 74.65 164.18 73.28 162.12 70.88 Z" />
<path fill="#949494" opacity="1.00" d=" M 64.47 63.35 C 71.80 63.43 79.13 63.37 86.45 63.39 C 86.64 64.94 86.84 66.50 87.05 68.05 C 84.76 66.45 82.16 65.38 79.32 65.53 C 79.25 71.83 79.22 78.14 79.35 84.45 C 76.74 84.58 74.13 84.60 71.52 84.51 C 71.63 78.19 71.57 71.86 71.56 65.53 C 68.55 65.42 65.86 66.78 63.24 68.07 C 63.64 66.49 64.05 64.92 64.47 63.35 Z" />
<path fill="#949494" opacity="1.00" d=" M 90.19 63.35 C 94.43 63.50 98.69 63.14 102.91 63.59 C 106.60 64.18 109.46 68.29 108.10 71.91 C 107.05 73.70 105.18 74.74 103.60 75.99 C 105.11 77.95 106.56 79.94 107.98 81.96 C 108.93 81.11 109.88 80.26 110.83 79.41 C 110.85 81.11 110.87 82.80 110.90 84.50 C 107.87 84.55 104.82 84.73 101.79 84.48 C 100.05 83.19 99.11 81.06 97.43 79.66 C 97.42 81.29 97.43 82.93 97.47 84.57 C 95.00 84.58 92.54 84.55 90.08 84.48 C 90.29 77.44 90.11 70.39 90.19 63.35 M 97.46 65.39 C 97.38 68.85 97.39 72.30 97.57 75.76 C 99.48 74.61 102.59 73.73 102.54 70.97 C 103.02 67.92 100.39 65.46 97.46 65.39 Z" />
<path fill="#949494" opacity="1.00" d=" M 115.68 63.41 C 119.36 63.45 123.05 63.23 126.72 63.47 C 129.74 70.30 131.72 77.57 134.37 84.56 C 131.81 84.56 129.26 84.57 126.71 84.58 C 126.23 83.10 125.75 81.63 125.27 80.15 C 121.14 81.32 117.76 84.57 113.33 84.71 C 115.19 78.48 117.03 72.26 118.76 66.00 C 117.70 66.67 116.63 67.33 115.57 68.01 C 115.61 66.47 115.65 64.94 115.68 63.41 M 120.83 69.77 C 119.89 73.18 118.81 76.55 118.08 80.01 C 120.05 79.03 122.00 78.01 123.96 77.02 C 123.01 74.57 122.61 71.80 120.83 69.77 Z" />
<path fill="#949494" opacity="1.00" d=" M 136.87 63.31 C 139.38 63.38 141.89 63.40 144.39 63.41 C 144.43 64.26 144.50 65.95 144.54 66.79 C 146.49 65.36 148.29 63.11 150.98 63.37 C 154.15 62.83 157.25 65.91 156.88 69.06 C 157.01 73.51 155.07 77.60 154.01 81.83 C 155.17 81.07 156.31 80.31 157.47 79.55 C 156.90 81.23 156.34 82.92 155.76 84.60 C 152.60 84.56 149.44 84.55 146.28 84.58 C 149.03 80.59 150.63 75.47 149.25 70.68 C 148.68 68.48 145.22 68.60 144.74 70.81 C 143.97 75.33 144.59 79.98 144.44 84.54 C 141.87 84.56 139.30 84.56 136.73 84.57 C 136.82 77.48 136.57 70.39 136.87 63.31 Z" />
<path fill="#949494" opacity="1.00" d=" M 223.43 63.23 C 225.64 63.48 227.86 63.74 230.09 63.66 C 229.88 65.39 229.67 67.11 229.52 68.84 C 225.41 69.70 227.73 66.55 227.71 64.89 C 226.37 65.51 225.57 66.83 224.48 67.77 C 223.34 66.48 223.54 64.79 223.43 63.23 Z" />
<path fill="#949494" opacity="1.00" d=" M 197.48 72.37 C 199.46 68.15 203.75 65.76 208.05 64.51 C 213.19 65.72 214.24 71.51 213.75 76.00 C 213.37 77.84 213.99 80.43 212.35 81.73 C 212.69 77.37 213.05 72.41 210.45 68.61 C 208.15 65.82 204.30 68.28 202.16 70.10 C 198.33 73.03 197.56 78.23 198.79 82.66 C 194.83 82.43 190.83 82.41 186.93 81.60 C 190.19 81.57 193.44 81.43 196.68 81.19 C 196.47 78.25 196.01 75.09 197.48 72.37 Z" />
</g>
<g id="#242424ff">
<path fill="#242424" opacity="1.00" d=" M 0.19 26.18 C 1.52 20.51 2.19 14.64 3.94 9.09 C 30.42 9.04 56.92 8.81 83.40 9.21 C 83.95 14.89 85.52 20.42 85.91 26.12 C 80.94 23.49 76.60 19.69 71.34 17.63 C 66.70 16.74 61.91 17.36 57.20 17.21 C 57.33 39.62 57.13 62.04 57.35 84.45 C 48.11 84.72 38.85 84.69 29.60 84.47 C 29.74 61.91 29.79 39.34 29.58 16.78 C 24.82 17.11 19.79 16.12 15.31 18.17 C 10.05 20.41 5.42 23.88 0.19 26.18 Z" />
<path fill="#242424" opacity="1.00" d=" M 94.32 9.08 C 100.28 8.94 106.25 9.05 112.21 9.01 C 107.20 15.59 104.87 24.18 106.65 32.33 C 107.52 34.92 110.67 36.70 113.22 35.33 C 115.35 33.54 116.18 30.69 116.12 27.99 C 116.16 21.66 116.00 15.34 116.09 9.01 C 120.78 9.02 125.48 9.00 130.17 9.03 C 130.16 21.31 130.18 33.59 130.16 45.87 C 125.51 45.91 120.85 45.88 116.20 45.91 C 115.97 43.93 115.70 41.96 115.44 39.99 C 113.11 41.77 111.03 44.00 108.29 45.16 C 103.48 46.61 97.29 46.39 94.08 41.95 C 91.73 39.24 92.38 35.43 92.75 32.17 C 93.86 25.55 96.20 19.22 98.61 12.98 C 96.43 14.34 94.29 15.78 92.13 17.19 C 92.77 14.46 93.55 11.77 94.32 9.08 Z" />
<path fill="#242424" opacity="1.00" d=" M 136.28 9.06 C 143.54 9.02 150.80 8.93 158.07 9.08 C 162.85 9.08 167.96 11.53 169.88 16.12 C 171.04 18.99 171.46 22.73 169.30 25.24 C 167.39 27.66 164.51 28.95 161.81 30.26 C 164.26 34.03 167.01 37.63 169.99 41.00 C 172.19 40.04 173.75 38.03 175.71 36.65 C 175.74 39.73 175.72 42.80 175.74 45.88 C 169.79 45.93 163.83 45.83 157.88 45.95 C 155.25 42.93 152.98 39.62 150.21 36.73 C 150.16 39.76 150.20 42.80 150.23 45.83 C 145.58 45.93 140.93 45.92 136.29 45.84 C 136.36 33.58 136.38 21.32 136.28 9.06 M 150.18 12.73 C 150.16 18.47 150.15 24.21 150.23 29.94 C 154.26 28.97 159.58 26.95 159.75 22.07 C 160.52 16.68 155.58 11.78 150.18 12.73 Z" />
</g>
</svg>
