<svg id="Слой_1" data-name="Слой 1" xmlns="http://www.w3.org/2000/svg" viewBox="0 0 183.09 74"><path fill='#979797' d="M0.57,3C1.09,1.84,1.73.5,3.13,0.36,7.76-.31,12.46.22,17.13,0c3,0.1,6.12-.43,8.92.85-0.58,2.45-3.13,3.37-4.51,5.26C21,15.38,22,24.68,21.67,33.92,19,40.45,15.28,46.49,12.55,53c-2.8.06-5.6,0.07-8.41,0.07C3.57,37.24,3.68,21.38,3,5.55,2.15,4.72,1.34,3.86.57,3Z"/><path fill='#979797' d="M34,0.06h7.83c0.34,8.35.29,16.7,0.36,25,0,4,1.08,8.3-.84,12C38.69,42.41,35.92,47.6,33.55,53c-2.8.06-5.61,0.07-8.42,0.07-0.25-11.32-.6-22.66-0.42-34C27.09,12.47,31.05,6.48,34,.06Z"/><path fill='#979797' d="M48.39,2.61C49.66-.68,53.33.12,56.14,0c2.6,0.15,5.44-.44,7.79,1-0.78,2.19-3.09,2.94-4.81,4.2C56.45,6.91,55,9.85,53.65,12.6,51,18.18,47.86,23.52,45.39,29.19c0-2.6-.47-5.25,0-7.83,1.77-4.64,4.77-8.75,6.31-13.49C52.75,5.35,49.72,4.12,48.39,2.61Z"/><path fill='#979797' d="M140.53,19.66c1.4-.83,2.84-1.8,4.57-1.6,4.28,0,8.59-.26,12.85.32-0.14,1.7-1.8,2.54-2.84,3.67-0.31,6.09.62,12.18,0.1,18.25-1.59,4.44-4.14,8.47-6.11,12.76h-5.47c-0.41-10.48-.71-21-0.84-31.46Z"/><path fill='#979797' d="M163.45,18.07l5.36,0c0.06,7.66.31,15.31,0.41,23-2,4-4,8-6,12l-5.6,0c0.17-7.58-.64-15.16-0.18-22.74C159,26,161.53,22.19,163.45,18.07Z"/><path fill='#979797' d="M173.36,18.5a57.44,57.44,0,0,1,9.73-.49v1.37c-6.61,4-8.35,11.94-12.14,18.15-0.63-5.45,2.43-10,4.68-14.7A36.43,36.43,0,0,1,173.36,18.5Z"/><path fill='#979797' d="M54.1,19.63c1.13-.93,2.34-1.84,3.9-1.57,4.31,0.14,8.71-.4,13,0.33,2.62,1.23-1.89,2.41-2.67,3.38-2.36,9.18-4.59,18.4-6.94,27.6L64,51.62c-1.18.68-2.37,1.61-3.83,1.43-4.52,0-9.05.17-13.56-.17-0.6-2.15,1.8-2.58,3.13-3.51,2.36-9.2,4.59-18.43,6.95-27.62Z"/><path fill='#979797' d="M75.87,19.16c4.67-2.29,10.22-.58,15.26-1.1,2.49,7.79,5.23,15.51,7.59,23.33-0.17,4-1.79,7.77-2.56,11.67h-7C85.5,42.75,82.31,32.29,78.56,22,77.57,21.16,76.34,20.46,75.87,19.16Z"/><path fill='#979797' d="M97.69,19.86c0.53-2,2.81-1.73,4.43-1.83,2.25,0.12,4.82-.5,6.76,1-1.65,1.94-4.5,2.82-5.38,5.37-1.57,4.58-2.38,9.38-3.71,14-2.88-5.31.76-10.61,0.61-16.09C99.47,21.53,98.56,20.71,97.69,19.86Z"/><path fill='#979797' d="M110.55,19.79c1.08-.67,2-1.91,3.43-1.72,3.93-.09,7.86,0,11.79,0-2.91,11.67-5.85,23.32-8.74,35-4.8-.43-10,1-14.5-1,1.33-1.41,3.86-2,4.21-4.13,2.2-8.8,4.51-17.58,6.52-26.42Z"/><path fill='#979797' d="M127.85,18.07h10.67c-1,3.46-1.76,7-2.76,10.42l-2,.17c-0.31-3.82-2.46-7.27-6.41-8.1C127.47,19.93,127.72,18.69,127.85,18.07Z"/><path fill='#979797' d="M73.23,45.9c1.82-6.36,3.21-12.84,4.9-19.24a42.9,42.9,0,0,1,1.36,5.21c-0.88,5.13-2.9,10-3.42,15.22-0.43,2.17,1.71,3.42,2.72,5-3.55,1.66-7.61,1-11.36.55C69.29,50.3,72.43,49,73.23,45.9Z"/><path fill='#979797' d="M123.18,35.61c2.76-2.65,4.68-6.32,8.11-8.15a87.54,87.54,0,0,1-3.46,14.29l-1.76.37A13.41,13.41,0,0,0,123.18,35.61Z"/><path fill='#979797' d="M125.21,48.24c2.85-1.84,4.21-5.28,7.29-6.85-0.31,4-1.56,7.8-2.48,11.67H119.17c0.2-.83.41-1.67,0.61-2.5A22.68,22.68,0,0,0,125.21,48.24Z"/><path fill='#979797' d="M0,70C0.65,65,1.24,59.8,3.46,55.2a72.87,72.87,0,0,1,3,8.22c2-3,4.11-6,7-8.22-0.59,4.45-1,9.07-2.76,13.25L9,69.84c0.5-3.34,1.23-6.65,1.91-10-1.59,2-2.75,4.7-4.84,6-1.59-1.07-1.76-4-2.7-5.81C2.62,63.44,3,67.58,0,70Z"/><path fill='#979797' d="M15.19,56.23q2.46-.72,1.64,1.7Q14.37,58.67,15.19,56.23Z"/><path fill='#979797' d="M61.93,56l3.53-.1c3.33,3.89,2.35,9.72-1,13.25l-3.61-.09c-0.52-1.12-1-2.24-1.55-3.36-1,1.14-2,2.28-3,3.4l-3.48,0c-0.51-1.1-1-2.19-1.5-3.29-1,1.12-2,2.24-3,3.34l-2.73-.1A21.12,21.12,0,0,1,42.72,74c0.28-4.68,1.54-9.21,2.43-13.79,2,0,3.93-.15,5.9-0.22,0.17,0.67.5,2,.67,2.68,1.64-1.13,3.1-3.12,5.34-2.68,2.08-.27,1.94,2.75,2.47,4,1.07-2.82,3.55-4.17,6.38-4.6C64.59,58.25,63.27,57.14,61.93,56ZM46.16,63.16c-0.23,1.78-.46,3.56-0.65,5.34a28.15,28.15,0,0,0,3.28-1.89c1.41-1.71.92-4,.79-6C48.43,61.42,47.29,62.29,46.16,63.16Zm8.08,5.13c3.51-.88,3.27-5,3-7.84C54.17,61.69,52.23,65.32,54.24,68.29Zm9.28-7.13a5.74,5.74,0,0,0-1.46,7.09c3.22-.53,3.64-4.33,3.65-7Z"/><path fill='#979797' d="M78.29,56.26c1.63-.54,2.18,0,1.68,1.64Q77.53,58.7,78.29,56.26Z"/><path fill='#979797' d="M122,56.79c2-1.13,4.42-.64,6.62-0.73-2.8,1.28-5.78,2.22-8.3,4,1.86,0.38,4.57-1,5.8,1,0.89,3.08-.67,5.89-2.66,8.12l-3.54-.1c-0.59-1-1.17-2.1-1.75-3.15q-1.58,1.88-3.16,3.73c-2.1-1-4-2.3-6.19-3.08l0.57,2.47-2,0c0.56-2.79,1-5.6,1.3-8.43q-1.59,1.24-3.15,2.52c-0.53,2.38-.77,5.07-2.85,6.69,0.27-3.14.83-6.24,1-9.39-3.91,1.9-3,6.82-5.93,9.51a86,86,0,0,1,1.58-9.83,29.5,29.5,0,0,1,6.7.55l1.25-.65,3.05,0c-0.06,1.07-.19,3.19-0.25,4.26l1-.49c0.81-2.1,2.46-4.44,5.07-3.82,1.78-.25,1.71,2.4,2.6,3.39C119.28,61,119.71,58.21,122,56.79Zm-8.76,11.45c3.6-.72,3.24-5,3.06-7.78C113.23,61.67,111.21,65.25,113.19,68.24Zm7.66,0.51a6.43,6.43,0,0,0,3.23-7.93C120.31,61.47,119.78,65.73,120.85,68.75Z"/><path fill='#979797' d="M150.31,56.24q2.44-.77,1.64,1.67Q149.49,58.68,150.31,56.24Z"/><path fill='#979797' d="M165.29,56.25c1.63-.53,2.18,0,1.68,1.65Q164.53,58.7,165.29,56.25Z"/><path fill='#979797' d="M177.09,56.05l6,0v2h-6C177.08,57.56,177.09,56.55,177.09,56.05Z"/><path fill='#979797' d="M14.4,60.06l4.8,0c0.32,1.45.62,2.9,0.93,4.35,1-1.78,1.95-3.58,3.11-5.25,0,1.74-.12,3.49-0.22,5.24,1.45-2.07,3-4.16,5.5-5-1.87,2.62-3.92,5.65-2.63,9,3.7-1.48,1.33-7.19,4.89-9.15-0.17,1.63-.37,3.26-0.6,4.88L33.4,64a9.06,9.06,0,0,1,2.77-4.72c-0.71,3.65-.6,7.84-3.29,10.77,0-1.65.11-3.3,0.2-4.95H29.89L29,69.12,24.37,69l-0.93-4.42A36.36,36.36,0,0,1,20.24,70l0.28-5.3c-1.09,1.48-2.17,3-3.27,4.44q-2.34,0-4.68,0C13.19,66.06,13.83,63.07,14.4,60.06Zm1.9,1.25c-0.88,2-1.68,4.35-1,6.54,1.79,1.08,2.12-1.84,2.68-3C18.12,63.59,18.55,59.94,16.3,61.31Z"/><path fill='#979797' d="M36.31,68.84c-1.43-3.2.17-6.64,2.49-8.91l4.94,0.16c-0.51,3.07-1,6.15-1.41,9.25l-1.6-.8C39.29,68.78,37.77,69.41,36.31,68.84Zm2.26-6.32c-1.16,1.82-.67,4.1-0.75,6.13,3.13-1.52,3.7-4.94,4.23-8C40.89,61.23,39.52,61.56,38.57,62.52Z"/><path fill='#979797' d="M67,69.88c0.79-3.61.46-8,3.42-10.69-0.08,1.71-.22,3.42-0.35,5.12,3.29,0.25,4-3.06,5.7-5.12-0.62,3.62-.2,8.23-3.47,10.67,0.22-1.61.49-3.21,0.77-4.8l-3.18,0A10,10,0,0,1,67,69.88Z"/><path fill='#979797' d="M76,70c0.62-3.67.32-8.14,3.34-10.84C78.78,62.8,79.13,67.36,76,70Z"/><path fill='#979797' d="M86,60l4.87,0.12c0,0.71-.08,2.13-0.11,2.84,0.86-.95,1.72-1.9,2.59-2.84L97.6,60c0,1.46-.1,2.92-0.14,4.38a16.92,16.92,0,0,1-1.83,4.91l-3.76-.23-1-1L87.64,69c-1.53-.1-3.66.83-4.52-1C82.33,64.9,84,62.15,86,60ZM85.37,63.3a35.51,35.51,0,0,0-.53,5l3.07-1.38c0.46-2.09.9-4.18,1.27-6.28C87.88,61.38,86,61.71,85.37,63.3Zm9.06-2.07c-1.05.23-2.28,2.36-.67,2.68C95.75,64.39,97.15,60.43,94.43,61.23Zm-2.71,4c0.6,1.08.55,3,2.24,2.91,0.73-.94,1.41-1.9,2.06-2.9h-4.3Z"/><path fill='#979797' d="M126.65,59.17c2.71,1.71,2.17,5.16,2.69,7.85,1.34-2.82,2.32-6.15,5.25-7.75A74.35,74.35,0,0,1,128.86,71c-0.78,1.6-2.59,2.06-4.07,2.73,1-1.32,2.2-2.55,3.12-4C127.84,66.18,126.77,62.73,126.65,59.17Z"/><path fill='#979797' d="M133.09,67c-0.88-4.16,2.94-7.63,7-7.29l0.13,1.38-3.2,0a8,8,0,0,0-1.58,7l4.28-.79c0.69-2.77.4-6.32,3.14-8.07-0.2,1.62-.42,3.23-0.68,4.84l3.31-.13c0.52-1.78,1-3.65,2.7-4.72-0.63,3.68-.62,7.84-3.28,10.79q0.06-2.47.21-4.95H141.9c-0.29,1.35-.59,2.69-0.87,4C138.4,68.67,134.07,70.47,133.09,67Z"/><path fill='#979797' d="M148,70c0.62-3.67.32-8.15,3.34-10.84C150.78,62.79,151.14,67.36,148,70Z"/><path fill='#979797' d="M157.63,60.06l5.58,0c-1,3.33-.68,7.55-3.71,9.87,0.35-3.18,1.09-6.3,1.52-9.47-3.93,2.12-2.24,9.27-7.89,9.08,0.91-.93,1.83-1.86,2.77-2.78C156.51,64.52,157.08,62.29,157.63,60.06Z"/><path fill='#979797' d="M163,70c0.62-3.66.32-8.14,3.34-10.83C165.77,62.8,166.13,67.36,163,70Z"/><path fill='#979797' d="M166.46,70c0.6-3.64.1-8.27,3.37-10.78-0.2,1.62-.42,3.23-0.67,4.84l3.3-.13c0.52-1.78,1-3.66,2.7-4.72-0.63,3.68-.62,7.85-3.29,10.79,0-1.65.12-3.29,0.22-4.94l-2.83,0A16.86,16.86,0,0,1,166.46,70Z"/><path fill='#979797' d="M176.62,60.09c1.72,0,3.45,0,5.18,0q-1,4.5-1.91,9H178c0.64-2.76,1.23-5.52,1.76-8.3l-1.87.4c-0.3,3.06-.1,6.8-2.94,8.78C175.27,66.63,176,63.37,176.62,60.09Z"/></svg>